<?xml version="1.0" encoding="utf-8" standalone="no"?>
<!DOCTYPE svg PUBLIC "-//W3C//DTD SVG 1.1//EN"
  "http://www.w3.org/Graphics/SVG/1.1/DTD/svg11.dtd">
<!-- Created with matplotlib (https://matplotlib.org/) -->
<svg height="290.99625pt" version="1.1" viewBox="0 0 408.053125 290.99625" width="408.053125pt" xmlns="http://www.w3.org/2000/svg" xmlns:xlink="http://www.w3.org/1999/xlink">
 <defs>
  <style type="text/css">
*{stroke-linecap:butt;stroke-linejoin:round;}
  </style>
 </defs>
 <g id="figure_1">
  <g id="patch_1">
   <path d="M 0 290.99625 
L 408.053125 290.99625 
L 408.053125 0 
L 0 0 
z
" style="fill:#ffffff;"/>
  </g>
  <g id="axes_1">
   <g id="patch_2">
    <path d="M 66.053125 253.44 
L 400.853125 253.44 
L 400.853125 36 
L 66.053125 36 
z
" style="fill:#ffffff;"/>
   </g>
   <g id="PathCollection_1">
    <defs>
     <path d="M 0 3 
C 0.795609 3 1.55874 2.683901 2.12132 2.12132 
C 2.683901 1.55874 3 0.795609 3 0 
C 3 -0.795609 2.683901 -1.55874 2.12132 -2.12132 
C 1.55874 -2.683901 0.795609 -3 0 -3 
C -0.795609 -3 -1.55874 -2.683901 -2.12132 -2.12132 
C -2.683901 -1.55874 -3 -0.795609 -3 0 
C -3 0.795609 -2.683901 1.55874 -2.12132 2.12132 
C -1.55874 2.683901 -0.795609 3 0 3 
z
" id="md2201af7ea" style="stroke:#1f77b4;"/>
    </defs>
    <g clip-path="url(#p4c6c0e76b9)">
     <use style="fill:#1f77b4;stroke:#1f77b4;" x="99.335121" xlink:href="#md2201af7ea" y="231.247994"/>
     <use style="fill:#1f77b4;stroke:#1f77b4;" x="192.888731" xlink:href="#md2201af7ea" y="176.484449"/>
     <use style="fill:#1f77b4;stroke:#1f77b4;" x="212.869949" xlink:href="#md2201af7ea" y="153.471404"/>
     <use style="fill:#1f77b4;stroke:#1f77b4;" x="364.590114" xlink:href="#md2201af7ea" y="82.11256"/>
     <use style="fill:#1f77b4;stroke:#1f77b4;" x="105.617324" xlink:href="#md2201af7ea" y="233.483502"/>
     <use style="fill:#1f77b4;stroke:#1f77b4;" x="265.085157" xlink:href="#md2201af7ea" y="132.959569"/>
     <use style="fill:#1f77b4;stroke:#1f77b4;" x="271.853392" xlink:href="#md2201af7ea" y="140.445509"/>
     <use style="fill:#1f77b4;stroke:#1f77b4;" x="106.233511" xlink:href="#md2201af7ea" y="239.168916"/>
     <use style="fill:#1f77b4;stroke:#1f77b4;" x="151.42783" xlink:href="#md2201af7ea" y="206.865408"/>
     <use style="fill:#1f77b4;stroke:#1f77b4;" x="105.630008" xlink:href="#md2201af7ea" y="236.202569"/>
     <use style="fill:#1f77b4;stroke:#1f77b4;" x="207.75988" xlink:href="#md2201af7ea" y="157.464556"/>
     <use style="fill:#1f77b4;stroke:#1f77b4;" x="265.085157" xlink:href="#md2201af7ea" y="133.24122"/>
     <use style="fill:#1f77b4;stroke:#1f77b4;" x="83.575472" xlink:href="#md2201af7ea" y="238.485168"/>
     <use style="fill:#1f77b4;stroke:#1f77b4;" x="83.168365" xlink:href="#md2201af7ea" y="228.410547"/>
     <use style="fill:#1f77b4;stroke:#1f77b4;" x="140.54713" xlink:href="#md2201af7ea" y="212.318653"/>
     <use style="fill:#1f77b4;stroke:#1f77b4;" x="259.098833" xlink:href="#md2201af7ea" y="136.548617"/>
     <use style="fill:#1f77b4;stroke:#1f77b4;" x="227.395105" xlink:href="#md2201af7ea" y="156.622339"/>
     <use style="fill:#1f77b4;stroke:#1f77b4;" x="135.862017" xlink:href="#md2201af7ea" y="214.777963"/>
     <use style="fill:#1f77b4;stroke:#1f77b4;" x="112.938087" xlink:href="#md2201af7ea" y="225.464669"/>
     <use style="fill:#1f77b4;stroke:#1f77b4;" x="226.765413" xlink:href="#md2201af7ea" y="146.990855"/>
     <use style="fill:#1f77b4;stroke:#1f77b4;" x="215.707454" xlink:href="#md2201af7ea" y="151.159508"/>
     <use style="fill:#1f77b4;stroke:#1f77b4;" x="112.938087" xlink:href="#md2201af7ea" y="225.781526"/>
     <use style="fill:#1f77b4;stroke:#1f77b4;" x="132.631939" xlink:href="#md2201af7ea" y="216.223623"/>
     <use style="fill:#1f77b4;stroke:#1f77b4;" x="104.404809" xlink:href="#md2201af7ea" y="236.145302"/>
     <use style="fill:#1f77b4;stroke:#1f77b4;" x="101.885" xlink:href="#md2201af7ea" y="236.233851"/>
     <use style="fill:#1f77b4;stroke:#1f77b4;" x="183.129086" xlink:href="#md2201af7ea" y="184.526428"/>
     <use style="fill:#1f77b4;stroke:#1f77b4;" x="118.765596" xlink:href="#md2201af7ea" y="215.762117"/>
     <use style="fill:#1f77b4;stroke:#1f77b4;" x="154.207678" xlink:href="#md2201af7ea" y="205.207903"/>
     <use style="fill:#1f77b4;stroke:#1f77b4;" x="226.765413" xlink:href="#md2201af7ea" y="146.990855"/>
     <use style="fill:#1f77b4;stroke:#1f77b4;" x="385.061371" xlink:href="#md2201af7ea" y="45.883636"/>
     <use style="fill:#1f77b4;stroke:#1f77b4;" x="192.888731" xlink:href="#md2201af7ea" y="176.554862"/>
     <use style="fill:#1f77b4;stroke:#1f77b4;" x="85.08247" xlink:href="#md2201af7ea" y="225.814776"/>
     <use style="fill:#1f77b4;stroke:#1f77b4;" x="156.29839" xlink:href="#md2201af7ea" y="202.591609"/>
     <use style="fill:#1f77b4;stroke:#1f77b4;" x="172.071505" xlink:href="#md2201af7ea" y="195.852561"/>
     <use style="fill:#1f77b4;stroke:#1f77b4;" x="164.542786" xlink:href="#md2201af7ea" y="194.920526"/>
     <use style="fill:#1f77b4;stroke:#1f77b4;" x="135.862017" xlink:href="#md2201af7ea" y="214.179454"/>
     <use style="fill:#1f77b4;stroke:#1f77b4;" x="136.660142" xlink:href="#md2201af7ea" y="211.510338"/>
     <use style="fill:#1f77b4;stroke:#1f77b4;" x="135.862017" xlink:href="#md2201af7ea" y="214.32028"/>
     <use style="fill:#1f77b4;stroke:#1f77b4;" x="83.168365" xlink:href="#md2201af7ea" y="229.502465"/>
     <use style="fill:#1f77b4;stroke:#1f77b4;" x="104.246877" xlink:href="#md2201af7ea" y="234.874664"/>
     <use style="fill:#1f77b4;stroke:#1f77b4;" x="104.410298" xlink:href="#md2201af7ea" y="235.63209"/>
     <use style="fill:#1f77b4;stroke:#1f77b4;" x="137.771954" xlink:href="#md2201af7ea" y="211.59354"/>
     <use style="fill:#1f77b4;stroke:#1f77b4;" x="147.444959" xlink:href="#md2201af7ea" y="223.323649"/>
     <use style="fill:#1f77b4;stroke:#1f77b4;" x="122.462219" xlink:href="#md2201af7ea" y="214.369116"/>
     <use style="fill:#1f77b4;stroke:#1f77b4;" x="105.396665" xlink:href="#md2201af7ea" y="229.91157"/>
     <use style="fill:#1f77b4;stroke:#1f77b4;" x="110.21424" xlink:href="#md2201af7ea" y="235.353073"/>
     <use style="fill:#1f77b4;stroke:#1f77b4;" x="385.061371" xlink:href="#md2201af7ea" y="46.72859"/>
     <use style="fill:#1f77b4;stroke:#1f77b4;" x="116.412231" xlink:href="#md2201af7ea" y="223.770417"/>
     <use style="fill:#1f77b4;stroke:#1f77b4;" x="212.383639" xlink:href="#md2201af7ea" y="158.602521"/>
     <use style="fill:#1f77b4;stroke:#1f77b4;" x="176.233303" xlink:href="#md2201af7ea" y="188.31351"/>
     <use style="fill:#1f77b4;stroke:#1f77b4;" x="94.343789" xlink:href="#md2201af7ea" y="232.723866"/>
     <use style="fill:#1f77b4;stroke:#1f77b4;" x="196.941656" xlink:href="#md2201af7ea" y="175.233317"/>
     <use style="fill:#1f77b4;stroke:#1f77b4;" x="81.274247" xlink:href="#md2201af7ea" y="236.2956"/>
     <use style="fill:#1f77b4;stroke:#1f77b4;" x="355.126549" xlink:href="#md2201af7ea" y="87.695219"/>
     <use style="fill:#1f77b4;stroke:#1f77b4;" x="119.12098" xlink:href="#md2201af7ea" y="219.714469"/>
     <use style="fill:#1f77b4;stroke:#1f77b4;" x="106.233511" xlink:href="#md2201af7ea" y="239.028091"/>
     <use style="fill:#1f77b4;stroke:#1f77b4;" x="195.301179" xlink:href="#md2201af7ea" y="176.588606"/>
     <use style="fill:#1f77b4;stroke:#1f77b4;" x="209.577405" xlink:href="#md2201af7ea" y="154.205637"/>
     <use style="fill:#1f77b4;stroke:#1f77b4;" x="227.395105" xlink:href="#md2201af7ea" y="156.551927"/>
     <use style="fill:#1f77b4;stroke:#1f77b4;" x="176.233303" xlink:href="#md2201af7ea" y="188.454335"/>
     <use style="fill:#1f77b4;stroke:#1f77b4;" x="91.801439" xlink:href="#md2201af7ea" y="234.121144"/>
     <use style="fill:#1f77b4;stroke:#1f77b4;" x="114.82588" xlink:href="#md2201af7ea" y="217.563078"/>
     <use style="fill:#1f77b4;stroke:#1f77b4;" x="207.75988" xlink:href="#md2201af7ea" y="157.922239"/>
     <use style="fill:#1f77b4;stroke:#1f77b4;" x="196.941656" xlink:href="#md2201af7ea" y="175.19811"/>
     <use style="fill:#1f77b4;stroke:#1f77b4;" x="215.707454" xlink:href="#md2201af7ea" y="151.419684"/>
     <use style="fill:#1f77b4;stroke:#1f77b4;" x="120.701707" xlink:href="#md2201af7ea" y="221.690353"/>
     <use style="fill:#1f77b4;stroke:#1f77b4;" x="137.681731" xlink:href="#md2201af7ea" y="215.623911"/>
     <use style="fill:#1f77b4;stroke:#1f77b4;" x="81.686474" xlink:href="#md2201af7ea" y="236.790519"/>
     <use style="fill:#1f77b4;stroke:#1f77b4;" x="159.336575" xlink:href="#md2201af7ea" y="200.013764"/>
     <use style="fill:#1f77b4;stroke:#1f77b4;" x="299.7705" xlink:href="#md2201af7ea" y="125.4887"/>
     <use style="fill:#1f77b4;stroke:#1f77b4;" x="307.726398" xlink:href="#md2201af7ea" y="115.906631"/>
     <use style="fill:#1f77b4;stroke:#1f77b4;" x="187.450805" xlink:href="#md2201af7ea" y="180.387536"/>
     <use style="fill:#1f77b4;stroke:#1f77b4;" x="90.489116" xlink:href="#md2201af7ea" y="231.644811"/>
     <use style="fill:#1f77b4;stroke:#1f77b4;" x="244.343825" xlink:href="#md2201af7ea" y="150.586842"/>
     <use style="fill:#1f77b4;stroke:#1f77b4;" x="117.679761" xlink:href="#md2201af7ea" y="222.53794"/>
     <use style="fill:#1f77b4;stroke:#1f77b4;" x="117.679761" xlink:href="#md2201af7ea" y="222.221082"/>
     <use style="fill:#1f77b4;stroke:#1f77b4;" x="81.274247" xlink:href="#md2201af7ea" y="236.330806"/>
     <use style="fill:#1f77b4;stroke:#1f77b4;" x="203.107368" xlink:href="#md2201af7ea" y="165.870952"/>
     <use style="fill:#1f77b4;stroke:#1f77b4;" x="155.152133" xlink:href="#md2201af7ea" y="202.558838"/>
     <use style="fill:#1f77b4;stroke:#1f77b4;" x="118.765596" xlink:href="#md2201af7ea" y="215.445259"/>
     <use style="fill:#1f77b4;stroke:#1f77b4;" x="196.941656" xlink:href="#md2201af7ea" y="176.5534"/>
     <use style="fill:#1f77b4;stroke:#1f77b4;" x="221.22781" xlink:href="#md2201af7ea" y="159.901976"/>
     <use style="fill:#1f77b4;stroke:#1f77b4;" x="104.527692" xlink:href="#md2201af7ea" y="235.998035"/>
     <use style="fill:#1f77b4;stroke:#1f77b4;" x="179.420594" xlink:href="#md2201af7ea" y="188.702919"/>
     <use style="fill:#1f77b4;stroke:#1f77b4;" x="85.781041" xlink:href="#md2201af7ea" y="238.550196"/>
     <use style="fill:#1f77b4;stroke:#1f77b4;" x="143.518407" xlink:href="#md2201af7ea" y="202.603434"/>
     <use style="fill:#1f77b4;stroke:#1f77b4;" x="88.904675" xlink:href="#md2201af7ea" y="242.554711"/>
     <use style="fill:#1f77b4;stroke:#1f77b4;" x="85.955763" xlink:href="#md2201af7ea" y="228.146931"/>
     <use style="fill:#1f77b4;stroke:#1f77b4;" x="84.265253" xlink:href="#md2201af7ea" y="229.220814"/>
     <use style="fill:#1f77b4;stroke:#1f77b4;" x="89.556415" xlink:href="#md2201af7ea" y="231.076895"/>
     <use style="fill:#1f77b4;stroke:#1f77b4;" x="155.152133" xlink:href="#md2201af7ea" y="202.558838"/>
     <use style="fill:#1f77b4;stroke:#1f77b4;" x="112.938087" xlink:href="#md2201af7ea" y="225.640701"/>
     <use style="fill:#1f77b4;stroke:#1f77b4;" x="83.575472" xlink:href="#md2201af7ea" y="238.485168"/>
     <use style="fill:#1f77b4;stroke:#1f77b4;" x="138.681095" xlink:href="#md2201af7ea" y="205.066009"/>
     <use style="fill:#1f77b4;stroke:#1f77b4;" x="128.562165" xlink:href="#md2201af7ea" y="218.989978"/>
     <use style="fill:#1f77b4;stroke:#1f77b4;" x="289.782728" xlink:href="#md2201af7ea" y="124.686168"/>
     <use style="fill:#1f77b4;stroke:#1f77b4;" x="149.679874" xlink:href="#md2201af7ea" y="225.977052"/>
     <use style="fill:#1f77b4;stroke:#1f77b4;" x="226.765413" xlink:href="#md2201af7ea" y="146.990855"/>
     <use style="fill:#1f77b4;stroke:#1f77b4;" x="157.726326" xlink:href="#md2201af7ea" y="197.642416"/>
     <use style="fill:#1f77b4;stroke:#1f77b4;" x="99.174067" xlink:href="#md2201af7ea" y="232.691223"/>
     <use style="fill:#1f77b4;stroke:#1f77b4;" x="383.294165" xlink:href="#md2201af7ea" y="58.080335"/>
     <use style="fill:#1f77b4;stroke:#1f77b4;" x="111.451721" xlink:href="#md2201af7ea" y="232.948914"/>
     <use style="fill:#1f77b4;stroke:#1f77b4;" x="130.745887" xlink:href="#md2201af7ea" y="215.985234"/>
     <use style="fill:#1f77b4;stroke:#1f77b4;" x="85.08247" xlink:href="#md2201af7ea" y="225.216267"/>
     <use style="fill:#1f77b4;stroke:#1f77b4;" x="105.505378" xlink:href="#md2201af7ea" y="239.693649"/>
     <use style="fill:#1f77b4;stroke:#1f77b4;" x="215.707454" xlink:href="#md2201af7ea" y="151.208445"/>
     <use style="fill:#1f77b4;stroke:#1f77b4;" x="114.82588" xlink:href="#md2201af7ea" y="217.73911"/>
     <use style="fill:#1f77b4;stroke:#1f77b4;" x="111.224796" xlink:href="#md2201af7ea" y="218.325264"/>
     <use style="fill:#1f77b4;stroke:#1f77b4;" x="89.917813" xlink:href="#md2201af7ea" y="243.556364"/>
     <use style="fill:#1f77b4;stroke:#1f77b4;" x="126.967444" xlink:href="#md2201af7ea" y="219.226003"/>
     <use style="fill:#1f77b4;stroke:#1f77b4;" x="201.752262" xlink:href="#md2201af7ea" y="165.413269"/>
     <use style="fill:#1f77b4;stroke:#1f77b4;" x="289.782728" xlink:href="#md2201af7ea" y="124.721374"/>
     <use style="fill:#1f77b4;stroke:#1f77b4;" x="122.629778" xlink:href="#md2201af7ea" y="217.462981"/>
     <use style="fill:#1f77b4;stroke:#1f77b4;" x="132.631939" xlink:href="#md2201af7ea" y="216.118004"/>
     <use style="fill:#1f77b4;stroke:#1f77b4;" x="239.727162" xlink:href="#md2201af7ea" y="152.596809"/>
     <use style="fill:#1f77b4;stroke:#1f77b4;" x="128.621946" xlink:href="#md2201af7ea" y="213.351533"/>
     <use style="fill:#1f77b4;stroke:#1f77b4;" x="299.7705" xlink:href="#md2201af7ea" y="125.277462"/>
     <use style="fill:#1f77b4;stroke:#1f77b4;" x="143.518407" xlink:href="#md2201af7ea" y="202.427402"/>
     <use style="fill:#1f77b4;stroke:#1f77b4;" x="175.017327" xlink:href="#md2201af7ea" y="194.924461"/>
     <use style="fill:#1f77b4;stroke:#1f77b4;" x="385.634943" xlink:href="#md2201af7ea" y="53.626342"/>
     <use style="fill:#1f77b4;stroke:#1f77b4;" x="124.718776" xlink:href="#md2201af7ea" y="211.375337"/>
     <use style="fill:#1f77b4;stroke:#1f77b4;" x="137.771954" xlink:href="#md2201af7ea" y="211.487921"/>
     <use style="fill:#1f77b4;stroke:#1f77b4;" x="229.07612" xlink:href="#md2201af7ea" y="170.686623"/>
     <use style="fill:#1f77b4;stroke:#1f77b4;" x="142.99385" xlink:href="#md2201af7ea" y="214.671333"/>
     <use style="fill:#1f77b4;stroke:#1f77b4;" x="203.107368" xlink:href="#md2201af7ea" y="163.418537"/>
     <use style="fill:#1f77b4;stroke:#1f77b4;" x="104.682854" xlink:href="#md2201af7ea" y="240.141552"/>
     <use style="fill:#1f77b4;stroke:#1f77b4;" x="142.175261" xlink:href="#md2201af7ea" y="211.457857"/>
     <use style="fill:#1f77b4;stroke:#1f77b4;" x="383.399469" xlink:href="#md2201af7ea" y="50.32639"/>
     <use style="fill:#1f77b4;stroke:#1f77b4;" x="126.967444" xlink:href="#md2201af7ea" y="219.226003"/>
     <use style="fill:#1f77b4;stroke:#1f77b4;" x="149.679874" xlink:href="#md2201af7ea" y="233.348304"/>
     <use style="fill:#1f77b4;stroke:#1f77b4;" x="192.888731" xlink:href="#md2201af7ea" y="175.921147"/>
     <use style="fill:#1f77b4;stroke:#1f77b4;" x="108.956946" xlink:href="#md2201af7ea" y="235.55656"/>
     <use style="fill:#1f77b4;stroke:#1f77b4;" x="338.47749" xlink:href="#md2201af7ea" y="100.175079"/>
     <use style="fill:#1f77b4;stroke:#1f77b4;" x="111.451721" xlink:href="#md2201af7ea" y="233.089739"/>
     <use style="fill:#1f77b4;stroke:#1f77b4;" x="85.781041" xlink:href="#md2201af7ea" y="238.726228"/>
     <use style="fill:#1f77b4;stroke:#1f77b4;" x="113.60016" xlink:href="#md2201af7ea" y="222.202705"/>
     <use style="fill:#1f77b4;stroke:#1f77b4;" x="179.420594" xlink:href="#md2201af7ea" y="188.49168"/>
     <use style="fill:#1f77b4;stroke:#1f77b4;" x="212.869949" xlink:href="#md2201af7ea" y="153.471404"/>
     <use style="fill:#1f77b4;stroke:#1f77b4;" x="130.745887" xlink:href="#md2201af7ea" y="215.386725"/>
     <use style="fill:#1f77b4;stroke:#1f77b4;" x="314.207215" xlink:href="#md2201af7ea" y="106.962979"/>
     <use style="fill:#1f77b4;stroke:#1f77b4;" x="203.107368" xlink:href="#md2201af7ea" y="163.383331"/>
     <use style="fill:#1f77b4;stroke:#1f77b4;" x="190.269208" xlink:href="#md2201af7ea" y="183.256671"/>
     <use style="fill:#1f77b4;stroke:#1f77b4;" x="114.989624" xlink:href="#md2201af7ea" y="222.866374"/>
     <use style="fill:#1f77b4;stroke:#1f77b4;" x="279.536505" xlink:href="#md2201af7ea" y="129.301991"/>
     <use style="fill:#1f77b4;stroke:#1f77b4;" x="142.99385" xlink:href="#md2201af7ea" y="214.389682"/>
     <use style="fill:#1f77b4;stroke:#1f77b4;" x="214.921425" xlink:href="#md2201af7ea" y="151.617191"/>
     <use style="fill:#1f77b4;stroke:#1f77b4;" x="113.60016" xlink:href="#md2201af7ea" y="222.378737"/>
     <use style="fill:#1f77b4;stroke:#1f77b4;" x="94.343789" xlink:href="#md2201af7ea" y="230.161659"/>
     <use style="fill:#1f77b4;stroke:#1f77b4;" x="105.617324" xlink:href="#md2201af7ea" y="234.011598"/>
     <use style="fill:#1f77b4;stroke:#1f77b4;" x="319.519742" xlink:href="#md2201af7ea" y="110.874929"/>
     <use style="fill:#1f77b4;stroke:#1f77b4;" x="176.233303" xlink:href="#md2201af7ea" y="188.559955"/>
     <use style="fill:#1f77b4;stroke:#1f77b4;" x="248.982244" xlink:href="#md2201af7ea" y="145.078957"/>
     <use style="fill:#1f77b4;stroke:#1f77b4;" x="271.853392" xlink:href="#md2201af7ea" y="140.33989"/>
     <use style="fill:#1f77b4;stroke:#1f77b4;" x="198.877259" xlink:href="#md2201af7ea" y="167.571832"/>
     <use style="fill:#1f77b4;stroke:#1f77b4;" x="82.405687" xlink:href="#md2201af7ea" y="231.856828"/>
     <use style="fill:#1f77b4;stroke:#1f77b4;" x="122.629778" xlink:href="#md2201af7ea" y="214.404323"/>
     <use style="fill:#1f77b4;stroke:#1f77b4;" x="116.412231" xlink:href="#md2201af7ea" y="223.605708"/>
     <use style="fill:#1f77b4;stroke:#1f77b4;" x="99.174067" xlink:href="#md2201af7ea" y="232.867255"/>
     <use style="fill:#1f77b4;stroke:#1f77b4;" x="88.286945" xlink:href="#md2201af7ea" y="230.724831"/>
     <use style="fill:#1f77b4;stroke:#1f77b4;" x="134.561248" xlink:href="#md2201af7ea" y="216.188417"/>
     <use style="fill:#1f77b4;stroke:#1f77b4;" x="106.449773" xlink:href="#md2201af7ea" y="226.37445"/>
     <use style="fill:#1f77b4;stroke:#1f77b4;" x="199.761744" xlink:href="#md2201af7ea" y="169.898089"/>
     <use style="fill:#1f77b4;stroke:#1f77b4;" x="221.22781" xlink:href="#md2201af7ea" y="159.972389"/>
     <use style="fill:#1f77b4;stroke:#1f77b4;" x="124.718776" xlink:href="#md2201af7ea" y="211.164099"/>
     <use style="fill:#1f77b4;stroke:#1f77b4;" x="346.04488" xlink:href="#md2201af7ea" y="100.139873"/>
     <use style="fill:#1f77b4;stroke:#1f77b4;" x="110.21424" xlink:href="#md2201af7ea" y="236.409265"/>
     <use style="fill:#1f77b4;stroke:#1f77b4;" x="107.479884" xlink:href="#md2201af7ea" y="235.16929"/>
     <use style="fill:#1f77b4;stroke:#1f77b4;" x="198.877259" xlink:href="#md2201af7ea" y="167.642245"/>
     <use style="fill:#1f77b4;stroke:#1f77b4;" x="214.172963" xlink:href="#md2201af7ea" y="152.743373"/>
     <use style="fill:#1f77b4;stroke:#1f77b4;" x="97.287809" xlink:href="#md2201af7ea" y="228.026546"/>
     <use style="fill:#1f77b4;stroke:#1f77b4;" x="177.828667" xlink:href="#md2201af7ea" y="191.710287"/>
     <use style="fill:#1f77b4;stroke:#1f77b4;" x="330.408009" xlink:href="#md2201af7ea" y="95.805213"/>
     <use style="fill:#1f77b4;stroke:#1f77b4;" x="105.396665" xlink:href="#md2201af7ea" y="230.122808"/>
     <use style="fill:#1f77b4;stroke:#1f77b4;" x="319.519742" xlink:href="#md2201af7ea" y="110.804516"/>
     <use style="fill:#1f77b4;stroke:#1f77b4;" x="159.336575" xlink:href="#md2201af7ea" y="201.316401"/>
     <use style="fill:#1f77b4;stroke:#1f77b4;" x="131.592122" xlink:href="#md2201af7ea" y="219.110955"/>
     <use style="fill:#1f77b4;stroke:#1f77b4;" x="307.726398" xlink:href="#md2201af7ea" y="115.554567"/>
     <use style="fill:#1f77b4;stroke:#1f77b4;" x="197.903602" xlink:href="#md2201af7ea" y="171.039574"/>
     <use style="fill:#1f77b4;stroke:#1f77b4;" x="172.071505" xlink:href="#md2201af7ea" y="195.746942"/>
     <use style="fill:#1f77b4;stroke:#1f77b4;" x="383.294165" xlink:href="#md2201af7ea" y="56.601666"/>
     <use style="fill:#1f77b4;stroke:#1f77b4;" x="91.003484" xlink:href="#md2201af7ea" y="237.715472"/>
     <use style="fill:#1f77b4;stroke:#1f77b4;" x="324.800525" xlink:href="#md2201af7ea" y="110.346833"/>
     <use style="fill:#1f77b4;stroke:#1f77b4;" x="125.966411" xlink:href="#md2201af7ea" y="224.475159"/>
     <use style="fill:#1f77b4;stroke:#1f77b4;" x="179.420594" xlink:href="#md2201af7ea" y="188.597299"/>
     <use style="fill:#1f77b4;stroke:#1f77b4;" x="104.527692" xlink:href="#md2201af7ea" y="235.751591"/>
     <use style="fill:#1f77b4;stroke:#1f77b4;" x="106.233511" xlink:href="#md2201af7ea" y="239.063297"/>
     <use style="fill:#1f77b4;stroke:#1f77b4;" x="125.966411" xlink:href="#md2201af7ea" y="224.932842"/>
     <use style="fill:#1f77b4;stroke:#1f77b4;" x="126.967444" xlink:href="#md2201af7ea" y="218.979558"/>
     <use style="fill:#1f77b4;stroke:#1f77b4;" x="81.271307" xlink:href="#md2201af7ea" y="238.917667"/>
     <use style="fill:#1f77b4;stroke:#1f77b4;" x="104.682854" xlink:href="#md2201af7ea" y="240.176758"/>
     <use style="fill:#1f77b4;stroke:#1f77b4;" x="142.99385" xlink:href="#md2201af7ea" y="214.319269"/>
     <use style="fill:#1f77b4;stroke:#1f77b4;" x="355.126549" xlink:href="#md2201af7ea" y="86.392582"/>
     <use style="fill:#1f77b4;stroke:#1f77b4;" x="86.602131" xlink:href="#md2201af7ea" y="234.660601"/>
     <use style="fill:#1f77b4;stroke:#1f77b4;" x="122.629778" xlink:href="#md2201af7ea" y="217.462981"/>
     <use style="fill:#1f77b4;stroke:#1f77b4;" x="104.246877" xlink:href="#md2201af7ea" y="234.733838"/>
     <use style="fill:#1f77b4;stroke:#1f77b4;" x="87.242506" xlink:href="#md2201af7ea" y="237.971203"/>
     <use style="fill:#1f77b4;stroke:#1f77b4;" x="190.269208" xlink:href="#md2201af7ea" y="183.221465"/>
     <use style="fill:#1f77b4;stroke:#1f77b4;" x="134.561248" xlink:href="#md2201af7ea" y="212.87808"/>
     <use style="fill:#1f77b4;stroke:#1f77b4;" x="138.681095" xlink:href="#md2201af7ea" y="204.995596"/>
     <use style="fill:#1f77b4;stroke:#1f77b4;" x="217.142795" xlink:href="#md2201af7ea" y="152.438019"/>
     <use style="fill:#1f77b4;stroke:#1f77b4;" x="121.818521" xlink:href="#md2201af7ea" y="217.073821"/>
     <use style="fill:#1f77b4;stroke:#1f77b4;" x="84.739399" xlink:href="#md2201af7ea" y="241.771016"/>
     <use style="fill:#1f77b4;stroke:#1f77b4;" x="154.207678" xlink:href="#md2201af7ea" y="204.961458"/>
     <use style="fill:#1f77b4;stroke:#1f77b4;" x="136.660142" xlink:href="#md2201af7ea" y="211.334306"/>
     <use style="fill:#1f77b4;stroke:#1f77b4;" x="381.317195" xlink:href="#md2201af7ea" y="64.859865"/>
     <use style="fill:#1f77b4;stroke:#1f77b4;" x="232.187922" xlink:href="#md2201af7ea" y="143.683039"/>
     <use style="fill:#1f77b4;stroke:#1f77b4;" x="145.111138" xlink:href="#md2201af7ea" y="218.116814"/>
     <use style="fill:#1f77b4;stroke:#1f77b4;" x="105.630008" xlink:href="#md2201af7ea" y="235.991331"/>
     <use style="fill:#1f77b4;stroke:#1f77b4;" x="156.29839" xlink:href="#md2201af7ea" y="202.732434"/>
     <use style="fill:#1f77b4;stroke:#1f77b4;" x="198.877259" xlink:href="#md2201af7ea" y="167.325387"/>
     <use style="fill:#1f77b4;stroke:#1f77b4;" x="93.640527" xlink:href="#md2201af7ea" y="234.297176"/>
     <use style="fill:#1f77b4;stroke:#1f77b4;" x="199.761744" xlink:href="#md2201af7ea" y="167.607038"/>
     <use style="fill:#1f77b4;stroke:#1f77b4;" x="385.061371" xlink:href="#md2201af7ea" y="45.989256"/>
     <use style="fill:#1f77b4;stroke:#1f77b4;" x="149.487482" xlink:href="#md2201af7ea" y="203.042605"/>
     <use style="fill:#1f77b4;stroke:#1f77b4;" x="126.967444" xlink:href="#md2201af7ea" y="219.331622"/>
     <use style="fill:#1f77b4;stroke:#1f77b4;" x="109.717486" xlink:href="#md2201af7ea" y="221.665295"/>
     <use style="fill:#1f77b4;stroke:#1f77b4;" x="214.172963" xlink:href="#md2201af7ea" y="152.461721"/>
     <use style="fill:#1f77b4;stroke:#1f77b4;" x="307.726398" xlink:href="#md2201af7ea" y="115.272916"/>
     <use style="fill:#1f77b4;stroke:#1f77b4;" x="212.383639" xlink:href="#md2201af7ea" y="153.804676"/>
     <use style="fill:#1f77b4;stroke:#1f77b4;" x="149.487482" xlink:href="#md2201af7ea" y="204.679575"/>
     <use style="fill:#1f77b4;stroke:#1f77b4;" x="86.602131" xlink:href="#md2201af7ea" y="234.660601"/>
     <use style="fill:#1f77b4;stroke:#1f77b4;" x="104.527692" xlink:href="#md2201af7ea" y="235.892416"/>
     <use style="fill:#1f77b4;stroke:#1f77b4;" x="239.727162" xlink:href="#md2201af7ea" y="152.49119"/>
     <use style="fill:#1f77b4;stroke:#1f77b4;" x="118.765596" xlink:href="#md2201af7ea" y="215.374847"/>
     <use style="fill:#1f77b4;stroke:#1f77b4;" x="131.592122" xlink:href="#md2201af7ea" y="218.195588"/>
     <use style="fill:#1f77b4;stroke:#1f77b4;" x="109.717486" xlink:href="#md2201af7ea" y="221.665295"/>
     <use style="fill:#1f77b4;stroke:#1f77b4;" x="227.395105" xlink:href="#md2201af7ea" y="147.342919"/>
     <use style="fill:#1f77b4;stroke:#1f77b4;" x="211.316872" xlink:href="#md2201af7ea" y="153.523025"/>
     <use style="fill:#1f77b4;stroke:#1f77b4;" x="142.175261" xlink:href="#md2201af7ea" y="211.387444"/>
     <use style="fill:#1f77b4;stroke:#1f77b4;" x="248.982244" xlink:href="#md2201af7ea" y="144.65648"/>
     <use style="fill:#1f77b4;stroke:#1f77b4;" x="96.875025" xlink:href="#md2201af7ea" y="233.241224"/>
     <use style="fill:#1f77b4;stroke:#1f77b4;" x="169.857396" xlink:href="#md2201af7ea" y="194.234331"/>
     <use style="fill:#1f77b4;stroke:#1f77b4;" x="299.7705" xlink:href="#md2201af7ea" y="125.171843"/>
     <use style="fill:#1f77b4;stroke:#1f77b4;" x="140.467746" xlink:href="#md2201af7ea" y="209.098089"/>
     <use style="fill:#1f77b4;stroke:#1f77b4;" x="105.396665" xlink:href="#md2201af7ea" y="229.594712"/>
     <use style="fill:#1f77b4;stroke:#1f77b4;" x="91.003484" xlink:href="#md2201af7ea" y="237.645059"/>
     <use style="fill:#1f77b4;stroke:#1f77b4;" x="88.904675" xlink:href="#md2201af7ea" y="242.695537"/>
     <use style="fill:#1f77b4;stroke:#1f77b4;" x="159.336575" xlink:href="#md2201af7ea" y="201.42202"/>
     <use style="fill:#1f77b4;stroke:#1f77b4;" x="105.029154" xlink:href="#md2201af7ea" y="234.091335"/>
     <use style="fill:#1f77b4;stroke:#1f77b4;" x="385.061371" xlink:href="#md2201af7ea" y="46.72859"/>
     <use style="fill:#1f77b4;stroke:#1f77b4;" x="153.005003" xlink:href="#md2201af7ea" y="205.858752"/>
     <use style="fill:#1f77b4;stroke:#1f77b4;" x="307.726398" xlink:href="#md2201af7ea" y="115.977044"/>
     <use style="fill:#1f77b4;stroke:#1f77b4;" x="104.404809" xlink:href="#md2201af7ea" y="236.391747"/>
     <use style="fill:#1f77b4;stroke:#1f77b4;" x="213.45458" xlink:href="#md2201af7ea" y="148.630866"/>
     <use style="fill:#1f77b4;stroke:#1f77b4;" x="232.187922" xlink:href="#md2201af7ea" y="143.894277"/>
     <use style="fill:#1f77b4;stroke:#1f77b4;" x="124.961754" xlink:href="#md2201af7ea" y="219.444629"/>
     <use style="fill:#1f77b4;stroke:#1f77b4;" x="112.938087" xlink:href="#md2201af7ea" y="225.711114"/>
     <use style="fill:#1f77b4;stroke:#1f77b4;" x="147.072568" xlink:href="#md2201af7ea" y="204.679575"/>
     <use style="fill:#1f77b4;stroke:#1f77b4;" x="89.556415" xlink:href="#md2201af7ea" y="230.900863"/>
     <use style="fill:#1f77b4;stroke:#1f77b4;" x="383.399469" xlink:href="#md2201af7ea" y="51.276963"/>
     <use style="fill:#1f77b4;stroke:#1f77b4;" x="162.386023" xlink:href="#md2201af7ea" y="194.794934"/>
     <use style="fill:#1f77b4;stroke:#1f77b4;" x="203.107368" xlink:href="#md2201af7ea" y="163.664982"/>
     <use style="fill:#1f77b4;stroke:#1f77b4;" x="112.239032" xlink:href="#md2201af7ea" y="218.747741"/>
     <use style="fill:#1f77b4;stroke:#1f77b4;" x="99.174067" xlink:href="#md2201af7ea" y="232.691223"/>
     <use style="fill:#1f77b4;stroke:#1f77b4;" x="195.301179" xlink:href="#md2201af7ea" y="176.201336"/>
     <use style="fill:#1f77b4;stroke:#1f77b4;" x="179.420594" xlink:href="#md2201af7ea" y="188.386061"/>
     <use style="fill:#1f77b4;stroke:#1f77b4;" x="139.496401" xlink:href="#md2201af7ea" y="208.418638"/>
     <use style="fill:#1f77b4;stroke:#1f77b4;" x="218.954445" xlink:href="#md2201af7ea" y="158.498092"/>
     <use style="fill:#1f77b4;stroke:#1f77b4;" x="134.218787" xlink:href="#md2201af7ea" y="212.35166"/>
     <use style="fill:#1f77b4;stroke:#1f77b4;" x="181.114909" xlink:href="#md2201af7ea" y="189.97123"/>
     <use style="fill:#1f77b4;stroke:#1f77b4;" x="319.519742" xlink:href="#md2201af7ea" y="110.839722"/>
     <use style="fill:#1f77b4;stroke:#1f77b4;" x="221.22781" xlink:href="#md2201af7ea" y="160.042801"/>
     <use style="fill:#1f77b4;stroke:#1f77b4;" x="93.640527" xlink:href="#md2201af7ea" y="234.226764"/>
     <use style="fill:#1f77b4;stroke:#1f77b4;" x="197.903602" xlink:href="#md2201af7ea" y="171.039574"/>
     <use style="fill:#1f77b4;stroke:#1f77b4;" x="187.450805" xlink:href="#md2201af7ea" y="180.457949"/>
     <use style="fill:#1f77b4;stroke:#1f77b4;" x="211.316872" xlink:href="#md2201af7ea" y="153.27658"/>
     <use style="fill:#1f77b4;stroke:#1f77b4;" x="124.961754" xlink:href="#md2201af7ea" y="219.479835"/>
     <use style="fill:#1f77b4;stroke:#1f77b4;" x="88.286945" xlink:href="#md2201af7ea" y="231.777817"/>
     <use style="fill:#1f77b4;stroke:#1f77b4;" x="107.479884" xlink:href="#md2201af7ea" y="236.148774"/>
     <use style="fill:#1f77b4;stroke:#1f77b4;" x="138.681095" xlink:href="#md2201af7ea" y="205.171628"/>
     <use style="fill:#1f77b4;stroke:#1f77b4;" x="96.875025" xlink:href="#md2201af7ea" y="232.794279"/>
     <use style="fill:#1f77b4;stroke:#1f77b4;" x="145.111138" xlink:href="#md2201af7ea" y="218.116814"/>
     <use style="fill:#1f77b4;stroke:#1f77b4;" x="215.707454" xlink:href="#md2201af7ea" y="151.525303"/>
     <use style="fill:#1f77b4;stroke:#1f77b4;" x="139.496401" xlink:href="#md2201af7ea" y="208.629876"/>
     <use style="fill:#1f77b4;stroke:#1f77b4;" x="346.04488" xlink:href="#md2201af7ea" y="90.088779"/>
     <use style="fill:#1f77b4;stroke:#1f77b4;" x="85.08247" xlink:href="#md2201af7ea" y="224.969822"/>
     <use style="fill:#1f77b4;stroke:#1f77b4;" x="160.831853" xlink:href="#md2201af7ea" y="200.149414"/>
     <use style="fill:#1f77b4;stroke:#1f77b4;" x="213.45458" xlink:href="#md2201af7ea" y="149.229374"/>
     <use style="fill:#1f77b4;stroke:#1f77b4;" x="124.099419" xlink:href="#md2201af7ea" y="219.800389"/>
     <use style="fill:#1f77b4;stroke:#1f77b4;" x="147.444959" xlink:href="#md2201af7ea" y="222.689934"/>
     <use style="fill:#1f77b4;stroke:#1f77b4;" x="81.686474" xlink:href="#md2201af7ea" y="237.001758"/>
     <use style="fill:#1f77b4;stroke:#1f77b4;" x="213.45458" xlink:href="#md2201af7ea" y="149.158962"/>
     <use style="fill:#1f77b4;stroke:#1f77b4;" x="155.152133" xlink:href="#md2201af7ea" y="202.488426"/>
     <use style="fill:#1f77b4;stroke:#1f77b4;" x="96.875025" xlink:href="#md2201af7ea" y="232.924366"/>
     <use style="fill:#1f77b4;stroke:#1f77b4;" x="120.701707" xlink:href="#md2201af7ea" y="221.373495"/>
     <use style="fill:#1f77b4;stroke:#1f77b4;" x="153.005003" xlink:href="#md2201af7ea" y="205.717927"/>
     <use style="fill:#1f77b4;stroke:#1f77b4;" x="199.761744" xlink:href="#md2201af7ea" y="169.475612"/>
     <use style="fill:#1f77b4;stroke:#1f77b4;" x="128.621946" xlink:href="#md2201af7ea" y="213.562772"/>
     <use style="fill:#1f77b4;stroke:#1f77b4;" x="239.727162" xlink:href="#md2201af7ea" y="152.385571"/>
     <use style="fill:#1f77b4;stroke:#1f77b4;" x="121.902876" xlink:href="#md2201af7ea" y="220.968148"/>
     <use style="fill:#1f77b4;stroke:#1f77b4;" x="143.518407" xlink:href="#md2201af7ea" y="211.246618"/>
     <use style="fill:#1f77b4;stroke:#1f77b4;" x="88.286945" xlink:href="#md2201af7ea" y="231.460959"/>
     <use style="fill:#1f77b4;stroke:#1f77b4;" x="111.451721" xlink:href="#md2201af7ea" y="232.772882"/>
     <use style="fill:#1f77b4;stroke:#1f77b4;" x="102.758224" xlink:href="#md2201af7ea" y="226.977822"/>
     <use style="fill:#1f77b4;stroke:#1f77b4;" x="124.718776" xlink:href="#md2201af7ea" y="212.084103"/>
     <use style="fill:#1f77b4;stroke:#1f77b4;" x="147.444959" xlink:href="#md2201af7ea" y="225.272924"/>
     <use style="fill:#1f77b4;stroke:#1f77b4;" x="131.592122" xlink:href="#md2201af7ea" y="220.202353"/>
     <use style="fill:#1f77b4;stroke:#1f77b4;" x="184.837921" xlink:href="#md2201af7ea" y="177.990393"/>
     <use style="fill:#1f77b4;stroke:#1f77b4;" x="108.069654" xlink:href="#md2201af7ea" y="224.528452"/>
     <use style="fill:#1f77b4;stroke:#1f77b4;" x="104.410298" xlink:href="#md2201af7ea" y="235.350439"/>
     <use style="fill:#1f77b4;stroke:#1f77b4;" x="229.07612" xlink:href="#md2201af7ea" y="170.862655"/>
     <use style="fill:#1f77b4;stroke:#1f77b4;" x="259.098833" xlink:href="#md2201af7ea" y="147.100777"/>
     <use style="fill:#1f77b4;stroke:#1f77b4;" x="87.998354" xlink:href="#md2201af7ea" y="241.944493"/>
     <use style="fill:#1f77b4;stroke:#1f77b4;" x="147.072568" xlink:href="#md2201af7ea" y="204.785195"/>
     <use style="fill:#1f77b4;stroke:#1f77b4;" x="187.450805" xlink:href="#md2201af7ea" y="181.021251"/>
     <use style="fill:#1f77b4;stroke:#1f77b4;" x="187.450805" xlink:href="#md2201af7ea" y="180.669187"/>
     <use style="fill:#1f77b4;stroke:#1f77b4;" x="122.629778" xlink:href="#md2201af7ea" y="217.392568"/>
     <use style="fill:#1f77b4;stroke:#1f77b4;" x="383.294165" xlink:href="#md2201af7ea" y="58.573225"/>
     <use style="fill:#1f77b4;stroke:#1f77b4;" x="374.733279" xlink:href="#md2201af7ea" y="67.657723"/>
     <use style="fill:#1f77b4;stroke:#1f77b4;" x="84.265253" xlink:href="#md2201af7ea" y="229.220814"/>
     <use style="fill:#1f77b4;stroke:#1f77b4;" x="175.017327" xlink:href="#md2201af7ea" y="188.028378"/>
     <use style="fill:#1f77b4;stroke:#1f77b4;" x="289.782728" xlink:href="#md2201af7ea" y="124.545342"/>
     <use style="fill:#1f77b4;stroke:#1f77b4;" x="96.875025" xlink:href="#md2201af7ea" y="233.311636"/>
     <use style="fill:#1f77b4;stroke:#1f77b4;" x="157.726326" xlink:href="#md2201af7ea" y="197.642416"/>
     <use style="fill:#1f77b4;stroke:#1f77b4;" x="90.489116" xlink:href="#md2201af7ea" y="232.489765"/>
     <use style="fill:#1f77b4;stroke:#1f77b4;" x="253.302255" xlink:href="#md2201af7ea" y="146.959952"/>
     <use style="fill:#1f77b4;stroke:#1f77b4;" x="114.989624" xlink:href="#md2201af7ea" y="223.359264"/>
     <use style="fill:#1f77b4;stroke:#1f77b4;" x="81.274247" xlink:href="#md2201af7ea" y="236.225187"/>
     <use style="fill:#1f77b4;stroke:#1f77b4;" x="355.126549" xlink:href="#md2201af7ea" y="87.202329"/>
     <use style="fill:#1f77b4;stroke:#1f77b4;" x="107.479884" xlink:href="#md2201af7ea" y="235.620678"/>
     <use style="fill:#1f77b4;stroke:#1f77b4;" x="117.679761" xlink:href="#md2201af7ea" y="222.397114"/>
     <use style="fill:#1f77b4;stroke:#1f77b4;" x="289.782728" xlink:href="#md2201af7ea" y="124.75658"/>
     <use style="fill:#1f77b4;stroke:#1f77b4;" x="200.602855" xlink:href="#md2201af7ea" y="165.185965"/>
     <use style="fill:#1f77b4;stroke:#1f77b4;" x="124.718776" xlink:href="#md2201af7ea" y="211.727401"/>
     <use style="fill:#1f77b4;stroke:#1f77b4;" x="99.174067" xlink:href="#md2201af7ea" y="232.761636"/>
     <use style="fill:#1f77b4;stroke:#1f77b4;" x="209.577405" xlink:href="#md2201af7ea" y="154.381669"/>
     <use style="fill:#1f77b4;stroke:#1f77b4;" x="221.22781" xlink:href="#md2201af7ea" y="158.955775"/>
     <use style="fill:#1f77b4;stroke:#1f77b4;" x="91.003484" xlink:href="#md2201af7ea" y="237.609853"/>
     <use style="fill:#1f77b4;stroke:#1f77b4;" x="196.941656" xlink:href="#md2201af7ea" y="174.951666"/>
     <use style="fill:#1f77b4;stroke:#1f77b4;" x="155.152133" xlink:href="#md2201af7ea" y="202.558838"/>
     <use style="fill:#1f77b4;stroke:#1f77b4;" x="123.145937" xlink:href="#md2201af7ea" y="218.629136"/>
     <use style="fill:#1f77b4;stroke:#1f77b4;" x="82.405687" xlink:href="#md2201af7ea" y="231.856828"/>
     <use style="fill:#1f77b4;stroke:#1f77b4;" x="84.739399" xlink:href="#md2201af7ea" y="241.947048"/>
     <use style="fill:#1f77b4;stroke:#1f77b4;" x="153.005003" xlink:href="#md2201af7ea" y="205.929165"/>
     <use style="fill:#1f77b4;stroke:#1f77b4;" x="137.771954" xlink:href="#md2201af7ea" y="211.839985"/>
     <use style="fill:#1f77b4;stroke:#1f77b4;" x="205.954443" xlink:href="#md2201af7ea" y="147.194125"/>
     <use style="fill:#1f77b4;stroke:#1f77b4;" x="383.399469" xlink:href="#md2201af7ea" y="51.734646"/>
     <use style="fill:#1f77b4;stroke:#1f77b4;" x="239.727162" xlink:href="#md2201af7ea" y="152.632016"/>
     <use style="fill:#1f77b4;stroke:#1f77b4;" x="89.556415" xlink:href="#md2201af7ea" y="230.689625"/>
     <use style="fill:#1f77b4;stroke:#1f77b4;" x="214.921425" xlink:href="#md2201af7ea" y="151.476365"/>
     <use style="fill:#1f77b4;stroke:#1f77b4;" x="104.404809" xlink:href="#md2201af7ea" y="234.614356"/>
     <use style="fill:#1f77b4;stroke:#1f77b4;" x="364.590114" xlink:href="#md2201af7ea" y="80.105795"/>
     <use style="fill:#1f77b4;stroke:#1f77b4;" x="147.072568" xlink:href="#md2201af7ea" y="204.92602"/>
     <use style="fill:#1f77b4;stroke:#1f77b4;" x="116.412231" xlink:href="#md2201af7ea" y="223.946449"/>
     <use style="fill:#1f77b4;stroke:#1f77b4;" x="381.317195" xlink:href="#md2201af7ea" y="64.331769"/>
     <use style="fill:#1f77b4;stroke:#1f77b4;" x="104.246877" xlink:href="#md2201af7ea" y="234.593013"/>
     <use style="fill:#1f77b4;stroke:#1f77b4;" x="116.797061" xlink:href="#md2201af7ea" y="218.71797"/>
     <use style="fill:#1f77b4;stroke:#1f77b4;" x="90.489116" xlink:href="#md2201af7ea" y="231.996875"/>
     <use style="fill:#1f77b4;stroke:#1f77b4;" x="151.42783" xlink:href="#md2201af7ea" y="206.900615"/>
     <use style="fill:#1f77b4;stroke:#1f77b4;" x="140.467746" xlink:href="#md2201af7ea" y="209.133295"/>
     <use style="fill:#1f77b4;stroke:#1f77b4;" x="104.410298" xlink:href="#md2201af7ea" y="233.387207"/>
     <use style="fill:#1f77b4;stroke:#1f77b4;" x="157.726326" xlink:href="#md2201af7ea" y="202.87326"/>
     <use style="fill:#1f77b4;stroke:#1f77b4;" x="101.283853" xlink:href="#md2201af7ea" y="228.152549"/>
     <use style="fill:#1f77b4;stroke:#1f77b4;" x="85.955763" xlink:href="#md2201af7ea" y="228.428582"/>
     <use style="fill:#1f77b4;stroke:#1f77b4;" x="124.961754" xlink:href="#md2201af7ea" y="219.550248"/>
     <use style="fill:#1f77b4;stroke:#1f77b4;" x="105.505378" xlink:href="#md2201af7ea" y="240.151332"/>
     <use style="fill:#1f77b4;stroke:#1f77b4;" x="204.409302" xlink:href="#md2201af7ea" y="147.229331"/>
     <use style="fill:#1f77b4;stroke:#1f77b4;" x="184.837921" xlink:href="#md2201af7ea" y="177.814361"/>
     <use style="fill:#1f77b4;stroke:#1f77b4;" x="134.561248" xlink:href="#md2201af7ea" y="212.772461"/>
     <use style="fill:#1f77b4;stroke:#1f77b4;" x="124.099419" xlink:href="#md2201af7ea" y="220.504517"/>
     <use style="fill:#1f77b4;stroke:#1f77b4;" x="199.761744" xlink:href="#md2201af7ea" y="170.109327"/>
     <use style="fill:#1f77b4;stroke:#1f77b4;" x="95.352692" xlink:href="#md2201af7ea" y="230.26763"/>
     <use style="fill:#1f77b4;stroke:#1f77b4;" x="217.142795" xlink:href="#md2201af7ea" y="152.614051"/>
     <use style="fill:#1f77b4;stroke:#1f77b4;" x="147.444959" xlink:href="#md2201af7ea" y="222.33787"/>
     <use style="fill:#1f77b4;stroke:#1f77b4;" x="99.335121" xlink:href="#md2201af7ea" y="231.353614"/>
     <use style="fill:#1f77b4;stroke:#1f77b4;" x="381.317195" xlink:href="#md2201af7ea" y="64.155737"/>
     <use style="fill:#1f77b4;stroke:#1f77b4;" x="87.998354" xlink:href="#md2201af7ea" y="242.155731"/>
     <use style="fill:#1f77b4;stroke:#1f77b4;" x="175.017327" xlink:href="#md2201af7ea" y="188.169203"/>
     <use style="fill:#1f77b4;stroke:#1f77b4;" x="114.82588" xlink:href="#md2201af7ea" y="218.196793"/>
     <use style="fill:#1f77b4;stroke:#1f77b4;" x="87.242506" xlink:href="#md2201af7ea" y="238.112029"/>
     <use style="fill:#1f77b4;stroke:#1f77b4;" x="307.726398" xlink:href="#md2201af7ea" y="115.62498"/>
     <use style="fill:#1f77b4;stroke:#1f77b4;" x="221.22781" xlink:href="#md2201af7ea" y="160.042801"/>
     <use style="fill:#1f77b4;stroke:#1f77b4;" x="81.274247" xlink:href="#md2201af7ea" y="235.978742"/>
     <use style="fill:#1f77b4;stroke:#1f77b4;" x="196.941656" xlink:href="#md2201af7ea" y="175.127698"/>
    </g>
   </g>
   <g id="matplotlib.axis_1">
    <g id="xtick_1">
     <g id="line2d_1">
      <defs>
       <path d="M 0 0 
L 0 3.5 
" id="m5d8ab49321" style="stroke:#000000;stroke-width:0.8;"/>
      </defs>
      <g>
       <use style="stroke:#000000;stroke-width:0.8;" x="98.152273" xlink:href="#m5d8ab49321" y="253.44"/>
      </g>
     </g>
     <g id="text_1">
      <!-- 175000 -->
      <defs>
       <path d="M 12.40625 8.296875 
L 28.515625 8.296875 
L 28.515625 63.921875 
L 10.984375 60.40625 
L 10.984375 69.390625 
L 28.421875 72.90625 
L 38.28125 72.90625 
L 38.28125 8.296875 
L 54.390625 8.296875 
L 54.390625 0 
L 12.40625 0 
z
" id="DejaVuSans-49"/>
       <path d="M 8.203125 72.90625 
L 55.078125 72.90625 
L 55.078125 68.703125 
L 28.609375 0 
L 18.3125 0 
L 43.21875 64.59375 
L 8.203125 64.59375 
z
" id="DejaVuSans-55"/>
       <path d="M 10.796875 72.90625 
L 49.515625 72.90625 
L 49.515625 64.59375 
L 19.828125 64.59375 
L 19.828125 46.734375 
Q 21.96875 47.46875 24.109375 47.828125 
Q 26.265625 48.1875 28.421875 48.1875 
Q 40.625 48.1875 47.75 41.5 
Q 54.890625 34.8125 54.890625 23.390625 
Q 54.890625 11.625 47.5625 5.09375 
Q 40.234375 -1.421875 26.90625 -1.421875 
Q 22.3125 -1.421875 17.546875 -0.640625 
Q 12.796875 0.140625 7.71875 1.703125 
L 7.71875 11.625 
Q 12.109375 9.234375 16.796875 8.0625 
Q 21.484375 6.890625 26.703125 6.890625 
Q 35.15625 6.890625 40.078125 11.328125 
Q 45.015625 15.765625 45.015625 23.390625 
Q 45.015625 31 40.078125 35.4375 
Q 35.15625 39.890625 26.703125 39.890625 
Q 22.75 39.890625 18.8125 39.015625 
Q 14.890625 38.140625 10.796875 36.28125 
z
" id="DejaVuSans-53"/>
       <path d="M 31.78125 66.40625 
Q 24.171875 66.40625 20.328125 58.90625 
Q 16.5 51.421875 16.5 36.375 
Q 16.5 21.390625 20.328125 13.890625 
Q 24.171875 6.390625 31.78125 6.390625 
Q 39.453125 6.390625 43.28125 13.890625 
Q 47.125 21.390625 47.125 36.375 
Q 47.125 51.421875 43.28125 58.90625 
Q 39.453125 66.40625 31.78125 66.40625 
z
M 31.78125 74.21875 
Q 44.046875 74.21875 50.515625 64.515625 
Q 56.984375 54.828125 56.984375 36.375 
Q 56.984375 17.96875 50.515625 8.265625 
Q 44.046875 -1.421875 31.78125 -1.421875 
Q 19.53125 -1.421875 13.0625 8.265625 
Q 6.59375 17.96875 6.59375 36.375 
Q 6.59375 54.828125 13.0625 64.515625 
Q 19.53125 74.21875 31.78125 74.21875 
z
" id="DejaVuSans-48"/>
      </defs>
      <g transform="translate(79.064773 268.038437)scale(0.1 -0.1)">
       <use xlink:href="#DejaVuSans-49"/>
       <use x="63.623047" xlink:href="#DejaVuSans-55"/>
       <use x="127.246094" xlink:href="#DejaVuSans-53"/>
       <use x="190.869141" xlink:href="#DejaVuSans-48"/>
       <use x="254.492188" xlink:href="#DejaVuSans-48"/>
       <use x="318.115234" xlink:href="#DejaVuSans-48"/>
      </g>
     </g>
    </g>
    <g id="xtick_2">
     <g id="line2d_2">
      <g>
       <use style="stroke:#000000;stroke-width:0.8;" x="137.101021" xlink:href="#m5d8ab49321" y="253.44"/>
      </g>
     </g>
     <g id="text_2">
      <!-- 200000 -->
      <defs>
       <path d="M 19.1875 8.296875 
L 53.609375 8.296875 
L 53.609375 0 
L 7.328125 0 
L 7.328125 8.296875 
Q 12.9375 14.109375 22.625 23.890625 
Q 32.328125 33.6875 34.8125 36.53125 
Q 39.546875 41.84375 41.421875 45.53125 
Q 43.3125 49.21875 43.3125 52.78125 
Q 43.3125 58.59375 39.234375 62.25 
Q 35.15625 65.921875 28.609375 65.921875 
Q 23.96875 65.921875 18.8125 64.3125 
Q 13.671875 62.703125 7.8125 59.421875 
L 7.8125 69.390625 
Q 13.765625 71.78125 18.9375 73 
Q 24.125 74.21875 28.421875 74.21875 
Q 39.75 74.21875 46.484375 68.546875 
Q 53.21875 62.890625 53.21875 53.421875 
Q 53.21875 48.921875 51.53125 44.890625 
Q 49.859375 40.875 45.40625 35.40625 
Q 44.1875 33.984375 37.640625 27.21875 
Q 31.109375 20.453125 19.1875 8.296875 
z
" id="DejaVuSans-50"/>
      </defs>
      <g transform="translate(118.013521 268.038437)scale(0.1 -0.1)">
       <use xlink:href="#DejaVuSans-50"/>
       <use x="63.623047" xlink:href="#DejaVuSans-48"/>
       <use x="127.246094" xlink:href="#DejaVuSans-48"/>
       <use x="190.869141" xlink:href="#DejaVuSans-48"/>
       <use x="254.492188" xlink:href="#DejaVuSans-48"/>
       <use x="318.115234" xlink:href="#DejaVuSans-48"/>
      </g>
     </g>
    </g>
    <g id="xtick_3">
     <g id="line2d_3">
      <g>
       <use style="stroke:#000000;stroke-width:0.8;" x="176.049769" xlink:href="#m5d8ab49321" y="253.44"/>
      </g>
     </g>
     <g id="text_3">
      <!-- 225000 -->
      <g transform="translate(156.962269 268.038437)scale(0.1 -0.1)">
       <use xlink:href="#DejaVuSans-50"/>
       <use x="63.623047" xlink:href="#DejaVuSans-50"/>
       <use x="127.246094" xlink:href="#DejaVuSans-53"/>
       <use x="190.869141" xlink:href="#DejaVuSans-48"/>
       <use x="254.492188" xlink:href="#DejaVuSans-48"/>
       <use x="318.115234" xlink:href="#DejaVuSans-48"/>
      </g>
     </g>
    </g>
    <g id="xtick_4">
     <g id="line2d_4">
      <g>
       <use style="stroke:#000000;stroke-width:0.8;" x="214.998516" xlink:href="#m5d8ab49321" y="253.44"/>
      </g>
     </g>
     <g id="text_4">
      <!-- 250000 -->
      <g transform="translate(195.911016 268.038437)scale(0.1 -0.1)">
       <use xlink:href="#DejaVuSans-50"/>
       <use x="63.623047" xlink:href="#DejaVuSans-53"/>
       <use x="127.246094" xlink:href="#DejaVuSans-48"/>
       <use x="190.869141" xlink:href="#DejaVuSans-48"/>
       <use x="254.492188" xlink:href="#DejaVuSans-48"/>
       <use x="318.115234" xlink:href="#DejaVuSans-48"/>
      </g>
     </g>
    </g>
    <g id="xtick_5">
     <g id="line2d_5">
      <g>
       <use style="stroke:#000000;stroke-width:0.8;" x="253.947264" xlink:href="#m5d8ab49321" y="253.44"/>
      </g>
     </g>
     <g id="text_5">
      <!-- 275000 -->
      <g transform="translate(234.859764 268.038437)scale(0.1 -0.1)">
       <use xlink:href="#DejaVuSans-50"/>
       <use x="63.623047" xlink:href="#DejaVuSans-55"/>
       <use x="127.246094" xlink:href="#DejaVuSans-53"/>
       <use x="190.869141" xlink:href="#DejaVuSans-48"/>
       <use x="254.492188" xlink:href="#DejaVuSans-48"/>
       <use x="318.115234" xlink:href="#DejaVuSans-48"/>
      </g>
     </g>
    </g>
    <g id="xtick_6">
     <g id="line2d_6">
      <g>
       <use style="stroke:#000000;stroke-width:0.8;" x="292.896012" xlink:href="#m5d8ab49321" y="253.44"/>
      </g>
     </g>
     <g id="text_6">
      <!-- 300000 -->
      <defs>
       <path d="M 40.578125 39.3125 
Q 47.65625 37.796875 51.625 33 
Q 55.609375 28.21875 55.609375 21.1875 
Q 55.609375 10.40625 48.1875 4.484375 
Q 40.765625 -1.421875 27.09375 -1.421875 
Q 22.515625 -1.421875 17.65625 -0.515625 
Q 12.796875 0.390625 7.625 2.203125 
L 7.625 11.71875 
Q 11.71875 9.328125 16.59375 8.109375 
Q 21.484375 6.890625 26.8125 6.890625 
Q 36.078125 6.890625 40.9375 10.546875 
Q 45.796875 14.203125 45.796875 21.1875 
Q 45.796875 27.640625 41.28125 31.265625 
Q 36.765625 34.90625 28.71875 34.90625 
L 20.21875 34.90625 
L 20.21875 43.015625 
L 29.109375 43.015625 
Q 36.375 43.015625 40.234375 45.921875 
Q 44.09375 48.828125 44.09375 54.296875 
Q 44.09375 59.90625 40.109375 62.90625 
Q 36.140625 65.921875 28.71875 65.921875 
Q 24.65625 65.921875 20.015625 65.03125 
Q 15.375 64.15625 9.8125 62.3125 
L 9.8125 71.09375 
Q 15.4375 72.65625 20.34375 73.4375 
Q 25.25 74.21875 29.59375 74.21875 
Q 40.828125 74.21875 47.359375 69.109375 
Q 53.90625 64.015625 53.90625 55.328125 
Q 53.90625 49.265625 50.4375 45.09375 
Q 46.96875 40.921875 40.578125 39.3125 
z
" id="DejaVuSans-51"/>
      </defs>
      <g transform="translate(273.808512 268.038437)scale(0.1 -0.1)">
       <use xlink:href="#DejaVuSans-51"/>
       <use x="63.623047" xlink:href="#DejaVuSans-48"/>
       <use x="127.246094" xlink:href="#DejaVuSans-48"/>
       <use x="190.869141" xlink:href="#DejaVuSans-48"/>
       <use x="254.492188" xlink:href="#DejaVuSans-48"/>
       <use x="318.115234" xlink:href="#DejaVuSans-48"/>
      </g>
     </g>
    </g>
    <g id="xtick_7">
     <g id="line2d_7">
      <g>
       <use style="stroke:#000000;stroke-width:0.8;" x="331.844759" xlink:href="#m5d8ab49321" y="253.44"/>
      </g>
     </g>
     <g id="text_7">
      <!-- 325000 -->
      <g transform="translate(312.757259 268.038437)scale(0.1 -0.1)">
       <use xlink:href="#DejaVuSans-51"/>
       <use x="63.623047" xlink:href="#DejaVuSans-50"/>
       <use x="127.246094" xlink:href="#DejaVuSans-53"/>
       <use x="190.869141" xlink:href="#DejaVuSans-48"/>
       <use x="254.492188" xlink:href="#DejaVuSans-48"/>
       <use x="318.115234" xlink:href="#DejaVuSans-48"/>
      </g>
     </g>
    </g>
    <g id="xtick_8">
     <g id="line2d_8">
      <g>
       <use style="stroke:#000000;stroke-width:0.8;" x="370.793507" xlink:href="#m5d8ab49321" y="253.44"/>
      </g>
     </g>
     <g id="text_8">
      <!-- 350000 -->
      <g transform="translate(351.706007 268.038437)scale(0.1 -0.1)">
       <use xlink:href="#DejaVuSans-51"/>
       <use x="63.623047" xlink:href="#DejaVuSans-53"/>
       <use x="127.246094" xlink:href="#DejaVuSans-48"/>
       <use x="190.869141" xlink:href="#DejaVuSans-48"/>
       <use x="254.492188" xlink:href="#DejaVuSans-48"/>
       <use x="318.115234" xlink:href="#DejaVuSans-48"/>
      </g>
     </g>
    </g>
    <g id="text_9">
     <!-- Actual -->
     <defs>
      <path d="M 34.1875 63.1875 
L 20.796875 26.90625 
L 47.609375 26.90625 
z
M 28.609375 72.90625 
L 39.796875 72.90625 
L 67.578125 0 
L 57.328125 0 
L 50.6875 18.703125 
L 17.828125 18.703125 
L 11.1875 0 
L 0.78125 0 
z
" id="DejaVuSans-65"/>
      <path d="M 48.78125 52.59375 
L 48.78125 44.1875 
Q 44.96875 46.296875 41.140625 47.34375 
Q 37.3125 48.390625 33.40625 48.390625 
Q 24.65625 48.390625 19.8125 42.84375 
Q 14.984375 37.3125 14.984375 27.296875 
Q 14.984375 17.28125 19.8125 11.734375 
Q 24.65625 6.203125 33.40625 6.203125 
Q 37.3125 6.203125 41.140625 7.25 
Q 44.96875 8.296875 48.78125 10.40625 
L 48.78125 2.09375 
Q 45.015625 0.34375 40.984375 -0.53125 
Q 36.96875 -1.421875 32.421875 -1.421875 
Q 20.0625 -1.421875 12.78125 6.34375 
Q 5.515625 14.109375 5.515625 27.296875 
Q 5.515625 40.671875 12.859375 48.328125 
Q 20.21875 56 33.015625 56 
Q 37.15625 56 41.109375 55.140625 
Q 45.0625 54.296875 48.78125 52.59375 
z
" id="DejaVuSans-99"/>
      <path d="M 18.3125 70.21875 
L 18.3125 54.6875 
L 36.8125 54.6875 
L 36.8125 47.703125 
L 18.3125 47.703125 
L 18.3125 18.015625 
Q 18.3125 11.328125 20.140625 9.421875 
Q 21.96875 7.515625 27.59375 7.515625 
L 36.8125 7.515625 
L 36.8125 0 
L 27.59375 0 
Q 17.1875 0 13.234375 3.875 
Q 9.28125 7.765625 9.28125 18.015625 
L 9.28125 47.703125 
L 2.6875 47.703125 
L 2.6875 54.6875 
L 9.28125 54.6875 
L 9.28125 70.21875 
z
" id="DejaVuSans-116"/>
      <path d="M 8.5 21.578125 
L 8.5 54.6875 
L 17.484375 54.6875 
L 17.484375 21.921875 
Q 17.484375 14.15625 20.5 10.265625 
Q 23.53125 6.390625 29.59375 6.390625 
Q 36.859375 6.390625 41.078125 11.03125 
Q 45.3125 15.671875 45.3125 23.6875 
L 45.3125 54.6875 
L 54.296875 54.6875 
L 54.296875 0 
L 45.3125 0 
L 45.3125 8.40625 
Q 42.046875 3.421875 37.71875 1 
Q 33.40625 -1.421875 27.6875 -1.421875 
Q 18.265625 -1.421875 13.375 4.4375 
Q 8.5 10.296875 8.5 21.578125 
z
M 31.109375 56 
z
" id="DejaVuSans-117"/>
      <path d="M 34.28125 27.484375 
Q 23.390625 27.484375 19.1875 25 
Q 14.984375 22.515625 14.984375 16.5 
Q 14.984375 11.71875 18.140625 8.90625 
Q 21.296875 6.109375 26.703125 6.109375 
Q 34.1875 6.109375 38.703125 11.40625 
Q 43.21875 16.703125 43.21875 25.484375 
L 43.21875 27.484375 
z
M 52.203125 31.203125 
L 52.203125 0 
L 43.21875 0 
L 43.21875 8.296875 
Q 40.140625 3.328125 35.546875 0.953125 
Q 30.953125 -1.421875 24.3125 -1.421875 
Q 15.921875 -1.421875 10.953125 3.296875 
Q 6 8.015625 6 15.921875 
Q 6 25.140625 12.171875 29.828125 
Q 18.359375 34.515625 30.609375 34.515625 
L 43.21875 34.515625 
L 43.21875 35.40625 
Q 43.21875 41.609375 39.140625 45 
Q 35.0625 48.390625 27.6875 48.390625 
Q 23 48.390625 18.546875 47.265625 
Q 14.109375 46.140625 10.015625 43.890625 
L 10.015625 52.203125 
Q 14.9375 54.109375 19.578125 55.046875 
Q 24.21875 56 28.609375 56 
Q 40.484375 56 46.34375 49.84375 
Q 52.203125 43.703125 52.203125 31.203125 
z
" id="DejaVuSans-97"/>
      <path d="M 9.421875 75.984375 
L 18.40625 75.984375 
L 18.40625 0 
L 9.421875 0 
z
" id="DejaVuSans-108"/>
     </defs>
     <g transform="translate(217.789062 281.716562)scale(0.1 -0.1)">
      <use xlink:href="#DejaVuSans-65"/>
      <use x="66.658203" xlink:href="#DejaVuSans-99"/>
      <use x="121.638672" xlink:href="#DejaVuSans-116"/>
      <use x="160.847656" xlink:href="#DejaVuSans-117"/>
      <use x="224.226562" xlink:href="#DejaVuSans-97"/>
      <use x="285.505859" xlink:href="#DejaVuSans-108"/>
     </g>
    </g>
   </g>
   <g id="matplotlib.axis_2">
    <g id="ytick_1">
     <g id="line2d_9">
      <defs>
       <path d="M 0 0 
L -3.5 0 
" id="m4564bfbf5f" style="stroke:#000000;stroke-width:0.8;"/>
      </defs>
      <g>
       <use style="stroke:#000000;stroke-width:0.8;" x="66.053125" xlink:href="#m4564bfbf5f" y="210.018004"/>
      </g>
     </g>
     <g id="text_10">
      <!-- 200000 -->
      <g transform="translate(20.878125 213.817223)scale(0.1 -0.1)">
       <use xlink:href="#DejaVuSans-50"/>
       <use x="63.623047" xlink:href="#DejaVuSans-48"/>
       <use x="127.246094" xlink:href="#DejaVuSans-48"/>
       <use x="190.869141" xlink:href="#DejaVuSans-48"/>
       <use x="254.492188" xlink:href="#DejaVuSans-48"/>
       <use x="318.115234" xlink:href="#DejaVuSans-48"/>
      </g>
     </g>
    </g>
    <g id="ytick_2">
     <g id="line2d_10">
      <g>
       <use style="stroke:#000000;stroke-width:0.8;" x="66.053125" xlink:href="#m4564bfbf5f" y="162.54563"/>
      </g>
     </g>
     <g id="text_11">
      <!-- 250000 -->
      <g transform="translate(20.878125 166.344849)scale(0.1 -0.1)">
       <use xlink:href="#DejaVuSans-50"/>
       <use x="63.623047" xlink:href="#DejaVuSans-53"/>
       <use x="127.246094" xlink:href="#DejaVuSans-48"/>
       <use x="190.869141" xlink:href="#DejaVuSans-48"/>
       <use x="254.492188" xlink:href="#DejaVuSans-48"/>
       <use x="318.115234" xlink:href="#DejaVuSans-48"/>
      </g>
     </g>
    </g>
    <g id="ytick_3">
     <g id="line2d_11">
      <g>
       <use style="stroke:#000000;stroke-width:0.8;" x="66.053125" xlink:href="#m4564bfbf5f" y="115.073255"/>
      </g>
     </g>
     <g id="text_12">
      <!-- 300000 -->
      <g transform="translate(20.878125 118.872474)scale(0.1 -0.1)">
       <use xlink:href="#DejaVuSans-51"/>
       <use x="63.623047" xlink:href="#DejaVuSans-48"/>
       <use x="127.246094" xlink:href="#DejaVuSans-48"/>
       <use x="190.869141" xlink:href="#DejaVuSans-48"/>
       <use x="254.492188" xlink:href="#DejaVuSans-48"/>
       <use x="318.115234" xlink:href="#DejaVuSans-48"/>
      </g>
     </g>
    </g>
    <g id="ytick_4">
     <g id="line2d_12">
      <g>
       <use style="stroke:#000000;stroke-width:0.8;" x="66.053125" xlink:href="#m4564bfbf5f" y="67.600881"/>
      </g>
     </g>
     <g id="text_13">
      <!-- 350000 -->
      <g transform="translate(20.878125 71.4001)scale(0.1 -0.1)">
       <use xlink:href="#DejaVuSans-51"/>
       <use x="63.623047" xlink:href="#DejaVuSans-53"/>
       <use x="127.246094" xlink:href="#DejaVuSans-48"/>
       <use x="190.869141" xlink:href="#DejaVuSans-48"/>
       <use x="254.492188" xlink:href="#DejaVuSans-48"/>
       <use x="318.115234" xlink:href="#DejaVuSans-48"/>
      </g>
     </g>
    </g>
    <g id="text_14">
     <!-- Prediction -->
     <defs>
      <path d="M 19.671875 64.796875 
L 19.671875 37.40625 
L 32.078125 37.40625 
Q 38.96875 37.40625 42.71875 40.96875 
Q 46.484375 44.53125 46.484375 51.125 
Q 46.484375 57.671875 42.71875 61.234375 
Q 38.96875 64.796875 32.078125 64.796875 
z
M 9.8125 72.90625 
L 32.078125 72.90625 
Q 44.34375 72.90625 50.609375 67.359375 
Q 56.890625 61.8125 56.890625 51.125 
Q 56.890625 40.328125 50.609375 34.8125 
Q 44.34375 29.296875 32.078125 29.296875 
L 19.671875 29.296875 
L 19.671875 0 
L 9.8125 0 
z
" id="DejaVuSans-80"/>
      <path d="M 41.109375 46.296875 
Q 39.59375 47.171875 37.8125 47.578125 
Q 36.03125 48 33.890625 48 
Q 26.265625 48 22.1875 43.046875 
Q 18.109375 38.09375 18.109375 28.8125 
L 18.109375 0 
L 9.078125 0 
L 9.078125 54.6875 
L 18.109375 54.6875 
L 18.109375 46.1875 
Q 20.953125 51.171875 25.484375 53.578125 
Q 30.03125 56 36.53125 56 
Q 37.453125 56 38.578125 55.875 
Q 39.703125 55.765625 41.0625 55.515625 
z
" id="DejaVuSans-114"/>
      <path d="M 56.203125 29.59375 
L 56.203125 25.203125 
L 14.890625 25.203125 
Q 15.484375 15.921875 20.484375 11.0625 
Q 25.484375 6.203125 34.421875 6.203125 
Q 39.59375 6.203125 44.453125 7.46875 
Q 49.3125 8.734375 54.109375 11.28125 
L 54.109375 2.78125 
Q 49.265625 0.734375 44.1875 -0.34375 
Q 39.109375 -1.421875 33.890625 -1.421875 
Q 20.796875 -1.421875 13.15625 6.1875 
Q 5.515625 13.8125 5.515625 26.8125 
Q 5.515625 40.234375 12.765625 48.109375 
Q 20.015625 56 32.328125 56 
Q 43.359375 56 49.78125 48.890625 
Q 56.203125 41.796875 56.203125 29.59375 
z
M 47.21875 32.234375 
Q 47.125 39.59375 43.09375 43.984375 
Q 39.0625 48.390625 32.421875 48.390625 
Q 24.90625 48.390625 20.390625 44.140625 
Q 15.875 39.890625 15.1875 32.171875 
z
" id="DejaVuSans-101"/>
      <path d="M 45.40625 46.390625 
L 45.40625 75.984375 
L 54.390625 75.984375 
L 54.390625 0 
L 45.40625 0 
L 45.40625 8.203125 
Q 42.578125 3.328125 38.25 0.953125 
Q 33.9375 -1.421875 27.875 -1.421875 
Q 17.96875 -1.421875 11.734375 6.484375 
Q 5.515625 14.40625 5.515625 27.296875 
Q 5.515625 40.1875 11.734375 48.09375 
Q 17.96875 56 27.875 56 
Q 33.9375 56 38.25 53.625 
Q 42.578125 51.265625 45.40625 46.390625 
z
M 14.796875 27.296875 
Q 14.796875 17.390625 18.875 11.75 
Q 22.953125 6.109375 30.078125 6.109375 
Q 37.203125 6.109375 41.296875 11.75 
Q 45.40625 17.390625 45.40625 27.296875 
Q 45.40625 37.203125 41.296875 42.84375 
Q 37.203125 48.484375 30.078125 48.484375 
Q 22.953125 48.484375 18.875 42.84375 
Q 14.796875 37.203125 14.796875 27.296875 
z
" id="DejaVuSans-100"/>
      <path d="M 9.421875 54.6875 
L 18.40625 54.6875 
L 18.40625 0 
L 9.421875 0 
z
M 9.421875 75.984375 
L 18.40625 75.984375 
L 18.40625 64.59375 
L 9.421875 64.59375 
z
" id="DejaVuSans-105"/>
      <path d="M 30.609375 48.390625 
Q 23.390625 48.390625 19.1875 42.75 
Q 14.984375 37.109375 14.984375 27.296875 
Q 14.984375 17.484375 19.15625 11.84375 
Q 23.34375 6.203125 30.609375 6.203125 
Q 37.796875 6.203125 41.984375 11.859375 
Q 46.1875 17.53125 46.1875 27.296875 
Q 46.1875 37.015625 41.984375 42.703125 
Q 37.796875 48.390625 30.609375 48.390625 
z
M 30.609375 56 
Q 42.328125 56 49.015625 48.375 
Q 55.71875 40.765625 55.71875 27.296875 
Q 55.71875 13.875 49.015625 6.21875 
Q 42.328125 -1.421875 30.609375 -1.421875 
Q 18.84375 -1.421875 12.171875 6.21875 
Q 5.515625 13.875 5.515625 27.296875 
Q 5.515625 40.765625 12.171875 48.375 
Q 18.84375 56 30.609375 56 
z
" id="DejaVuSans-111"/>
      <path d="M 54.890625 33.015625 
L 54.890625 0 
L 45.90625 0 
L 45.90625 32.71875 
Q 45.90625 40.484375 42.875 44.328125 
Q 39.84375 48.1875 33.796875 48.1875 
Q 26.515625 48.1875 22.3125 43.546875 
Q 18.109375 38.921875 18.109375 30.90625 
L 18.109375 0 
L 9.078125 0 
L 9.078125 54.6875 
L 18.109375 54.6875 
L 18.109375 46.1875 
Q 21.34375 51.125 25.703125 53.5625 
Q 30.078125 56 35.796875 56 
Q 45.21875 56 50.046875 50.171875 
Q 54.890625 44.34375 54.890625 33.015625 
z
" id="DejaVuSans-110"/>
     </defs>
     <g transform="translate(14.798438 169.556719)rotate(-90)scale(0.1 -0.1)">
      <use xlink:href="#DejaVuSans-80"/>
      <use x="58.552734" xlink:href="#DejaVuSans-114"/>
      <use x="97.416016" xlink:href="#DejaVuSans-101"/>
      <use x="158.939453" xlink:href="#DejaVuSans-100"/>
      <use x="222.416016" xlink:href="#DejaVuSans-105"/>
      <use x="250.199219" xlink:href="#DejaVuSans-99"/>
      <use x="305.179688" xlink:href="#DejaVuSans-116"/>
      <use x="344.388672" xlink:href="#DejaVuSans-105"/>
      <use x="372.171875" xlink:href="#DejaVuSans-111"/>
      <use x="433.353516" xlink:href="#DejaVuSans-110"/>
     </g>
    </g>
   </g>
   <g id="patch_3">
    <path d="M 66.053125 253.44 
L 66.053125 36 
" style="fill:none;stroke:#000000;stroke-linecap:square;stroke-linejoin:miter;stroke-width:0.8;"/>
   </g>
   <g id="patch_4">
    <path d="M 400.853125 253.44 
L 400.853125 36 
" style="fill:none;stroke:#000000;stroke-linecap:square;stroke-linejoin:miter;stroke-width:0.8;"/>
   </g>
   <g id="patch_5">
    <path d="M 66.053125 253.44 
L 400.853125 253.44 
" style="fill:none;stroke:#000000;stroke-linecap:square;stroke-linejoin:miter;stroke-width:0.8;"/>
   </g>
   <g id="patch_6">
    <path d="M 66.053125 36 
L 400.853125 36 
" style="fill:none;stroke:#000000;stroke-linecap:square;stroke-linejoin:miter;stroke-width:0.8;"/>
   </g>
   <g id="text_15">
    <!-- Source: FRED and Zillow -->
    <defs>
     <path d="M 60.296875 70.515625 
L 58.40625 60.890625 
Q 53.46875 63.53125 48.609375 64.875 
Q 43.75 66.21875 39.203125 66.21875 
Q 30.375 66.21875 25.140625 62.359375 
Q 19.921875 58.5 19.921875 52.09375 
Q 19.921875 48.578125 21.84375 46.703125 
Q 23.78125 44.828125 31.78125 42.671875 
L 37.703125 41.21875 
Q 47.703125 38.625 51.609375 34.640625 
Q 55.515625 30.671875 55.515625 23.484375 
Q 55.515625 12.453125 46.84375 5.515625 
Q 38.1875 -1.421875 24.03125 -1.421875 
Q 18.21875 -1.421875 12.359375 -0.265625 
Q 6.5 0.875 0.59375 3.21875 
L 2.59375 13.375 
Q 8.015625 10.015625 13.453125 8.296875 
Q 18.890625 6.59375 24.3125 6.59375 
Q 33.546875 6.59375 39.109375 10.6875 
Q 44.671875 14.796875 44.671875 21.390625 
Q 44.671875 25.78125 42.453125 28.046875 
Q 40.234375 30.328125 32.90625 32.171875 
L 27 33.6875 
Q 16.890625 36.328125 13.203125 39.765625 
Q 9.515625 43.21875 9.515625 49.421875 
Q 9.515625 60.296875 17.890625 67.25 
Q 26.265625 74.21875 39.703125 74.21875 
Q 44.921875 74.21875 50.046875 73.28125 
Q 55.171875 72.359375 60.296875 70.515625 
z
" id="DejaVuSans-Oblique-83"/>
     <path d="M 25.390625 -1.421875 
Q 15.765625 -1.421875 10.171875 4.515625 
Q 4.59375 10.453125 4.59375 20.703125 
Q 4.59375 26.65625 6.515625 32.828125 
Q 8.453125 39.015625 11.53125 43.21875 
Q 16.359375 49.75 22.3125 52.875 
Q 28.265625 56 35.796875 56 
Q 45.125 56 50.859375 50.1875 
Q 56.59375 44.390625 56.59375 35.015625 
Q 56.59375 28.515625 54.6875 22.0625 
Q 52.78125 15.625 49.703125 11.375 
Q 44.921875 4.828125 38.96875 1.703125 
Q 33.015625 -1.421875 25.390625 -1.421875 
z
M 13.921875 21 
Q 13.921875 13.578125 17.015625 9.890625 
Q 20.125 6.203125 26.421875 6.203125 
Q 35.453125 6.203125 41.375 14.078125 
Q 47.3125 21.96875 47.3125 34.078125 
Q 47.3125 41.15625 44.140625 44.765625 
Q 40.96875 48.390625 34.8125 48.390625 
Q 29.734375 48.390625 25.78125 46.015625 
Q 21.828125 43.65625 18.703125 38.8125 
Q 16.40625 35.203125 15.15625 30.5625 
Q 13.921875 25.921875 13.921875 21 
z
" id="DejaVuSans-Oblique-111"/>
     <path d="M 6.6875 21.6875 
L 13.09375 54.6875 
L 22.125 54.6875 
L 15.71875 22.015625 
Q 15.234375 19.625 15.015625 17.921875 
Q 14.796875 16.21875 14.796875 15.09375 
Q 14.796875 10.9375 17.328125 8.65625 
Q 19.875 6.390625 24.515625 6.390625 
Q 31.734375 6.390625 37 11.265625 
Q 42.28125 16.15625 43.890625 24.421875 
L 49.90625 54.6875 
L 58.890625 54.6875 
L 48.296875 0 
L 39.3125 0 
L 41.109375 8.59375 
Q 37.3125 3.8125 32.0625 1.1875 
Q 26.8125 -1.421875 20.90625 -1.421875 
Q 13.71875 -1.421875 9.71875 2.515625 
Q 5.71875 6.453125 5.71875 13.484375 
Q 5.71875 14.9375 5.953125 17.140625 
Q 6.203125 19.34375 6.6875 21.6875 
z
" id="DejaVuSans-Oblique-117"/>
     <path d="M 44.578125 46.390625 
Q 43.21875 47.125 41.453125 47.515625 
Q 39.703125 47.90625 37.703125 47.90625 
Q 30.515625 47.90625 25.140625 42.453125 
Q 19.78125 37.015625 18.015625 27.875 
L 12.5 0 
L 3.515625 0 
L 14.203125 54.6875 
L 23.1875 54.6875 
L 21.484375 46.1875 
Q 25.046875 50.921875 30 53.453125 
Q 34.96875 56 40.578125 56 
Q 42.046875 56 43.453125 55.828125 
Q 44.875 55.671875 46.296875 55.28125 
z
" id="DejaVuSans-Oblique-114"/>
     <path d="M 53.609375 52.59375 
L 51.8125 43.703125 
Q 48.578125 46.046875 44.9375 47.21875 
Q 41.3125 48.390625 37.40625 48.390625 
Q 33.109375 48.390625 29.21875 46.875 
Q 25.34375 45.359375 22.703125 42.578125 
Q 18.5 38.328125 16.203125 32.609375 
Q 13.921875 26.90625 13.921875 20.796875 
Q 13.921875 13.421875 17.609375 9.8125 
Q 21.296875 6.203125 28.8125 6.203125 
Q 32.515625 6.203125 36.6875 7.328125 
Q 40.875 8.453125 45.40625 10.6875 
L 43.703125 1.8125 
Q 39.796875 0.203125 35.671875 -0.609375 
Q 31.546875 -1.421875 27.203125 -1.421875 
Q 16.3125 -1.421875 10.453125 4.015625 
Q 4.59375 9.46875 4.59375 19.578125 
Q 4.59375 28.078125 7.640625 35.234375 
Q 10.6875 42.390625 16.703125 48.09375 
Q 20.796875 52 26.3125 54 
Q 31.84375 56 38.375 56 
Q 42.1875 56 45.9375 55.140625 
Q 49.703125 54.296875 53.609375 52.59375 
z
" id="DejaVuSans-Oblique-99"/>
     <path d="M 48.09375 32.234375 
Q 48.25 33.015625 48.3125 33.84375 
Q 48.390625 34.671875 48.390625 35.5 
Q 48.390625 41.453125 44.890625 44.921875 
Q 41.40625 48.390625 35.40625 48.390625 
Q 28.71875 48.390625 23.578125 44.15625 
Q 18.453125 39.9375 15.828125 32.171875 
z
M 55.90625 25.203125 
L 14.109375 25.203125 
Q 13.8125 23.34375 13.71875 22.265625 
Q 13.625 21.1875 13.625 20.40625 
Q 13.625 13.625 17.796875 9.90625 
Q 21.96875 6.203125 29.59375 6.203125 
Q 35.453125 6.203125 40.671875 7.515625 
Q 45.90625 8.84375 50.390625 11.375 
L 48.6875 2.484375 
Q 43.84375 0.53125 38.6875 -0.4375 
Q 33.546875 -1.421875 28.21875 -1.421875 
Q 16.84375 -1.421875 10.71875 4.015625 
Q 4.59375 9.46875 4.59375 19.484375 
Q 4.59375 28.03125 7.640625 35.375 
Q 10.6875 42.71875 16.609375 48.484375 
Q 20.40625 52.09375 25.65625 54.046875 
Q 30.90625 56 36.8125 56 
Q 46.09375 56 51.578125 50.4375 
Q 57.078125 44.875 57.078125 35.5 
Q 57.078125 33.25 56.78125 30.6875 
Q 56.5 28.125 55.90625 25.203125 
z
" id="DejaVuSans-Oblique-101"/>
     <path d="M 15.28125 51.703125 
L 25.59375 51.703125 
L 23.1875 39.3125 
L 12.890625 39.3125 
z
M 7.625 12.40625 
L 17.921875 12.40625 
L 15.484375 0 
L 5.171875 0 
z
" id="DejaVuSans-Oblique-58"/>
     <path id="DejaVuSans-Oblique-32"/>
     <path d="M 16.890625 72.90625 
L 58.6875 72.90625 
L 57.078125 64.59375 
L 25.09375 64.59375 
L 20.90625 43.109375 
L 49.8125 43.109375 
L 48.1875 34.8125 
L 19.28125 34.8125 
L 12.5 0 
L 2.6875 0 
z
" id="DejaVuSans-Oblique-70"/>
     <path d="M 25.203125 64.796875 
L 20.21875 38.921875 
L 32.90625 38.921875 
Q 40.375 38.921875 44.984375 43.046875 
Q 49.609375 47.171875 49.609375 53.8125 
Q 49.609375 59.125 46.5 61.953125 
Q 43.40625 64.796875 37.59375 64.796875 
z
M 43.3125 35.015625 
Q 46.4375 34.28125 48.515625 31.390625 
Q 50.59375 28.515625 53.328125 19.921875 
L 59.515625 0 
L 49.125 0 
L 43.40625 18.703125 
Q 41.21875 25.921875 38.328125 28.359375 
Q 35.453125 30.8125 29.5 30.8125 
L 18.609375 30.8125 
L 12.59375 0 
L 2.6875 0 
L 16.890625 72.90625 
L 39.109375 72.90625 
Q 49.21875 72.90625 54.609375 68.328125 
Q 60.015625 63.765625 60.015625 55.171875 
Q 60.015625 47.5625 55.421875 41.984375 
Q 50.828125 36.421875 43.3125 35.015625 
z
" id="DejaVuSans-Oblique-82"/>
     <path d="M 16.890625 72.90625 
L 62.984375 72.90625 
L 61.375 64.59375 
L 25.09375 64.59375 
L 20.90625 43.015625 
L 55.71875 43.015625 
L 54.109375 34.71875 
L 19.28125 34.71875 
L 14.203125 8.296875 
L 51.3125 8.296875 
L 49.703125 0 
L 2.6875 0 
z
" id="DejaVuSans-Oblique-69"/>
     <path d="M 16.890625 72.90625 
L 38.09375 72.90625 
Q 54.984375 72.90625 63.59375 65.75 
Q 72.21875 58.59375 72.21875 44.484375 
Q 72.21875 35.15625 68.9375 26.53125 
Q 65.671875 17.921875 59.90625 12.015625 
Q 54.109375 5.953125 45.171875 2.96875 
Q 36.234375 0 24.03125 0 
L 2.6875 0 
z
M 25.203125 64.796875 
L 14.203125 8.109375 
L 27.09375 8.109375 
Q 43.65625 8.109375 52.734375 17.625 
Q 61.8125 27.15625 61.8125 44.484375 
Q 61.8125 54.984375 55.953125 59.890625 
Q 50.09375 64.796875 37.59375 64.796875 
z
" id="DejaVuSans-Oblique-68"/>
     <path d="M 53.71875 31.203125 
L 47.609375 0 
L 38.625 0 
L 40.28125 8.296875 
Q 36.328125 3.421875 31.265625 1 
Q 26.21875 -1.421875 20.015625 -1.421875 
Q 13.03125 -1.421875 8.5625 2.84375 
Q 4.109375 7.125 4.109375 13.8125 
Q 4.109375 23.390625 11.75 28.953125 
Q 19.390625 34.515625 32.8125 34.515625 
L 45.3125 34.515625 
L 45.796875 36.921875 
Q 45.90625 37.3125 45.953125 37.765625 
Q 46 38.234375 46 39.203125 
Q 46 43.5625 42.453125 45.96875 
Q 38.921875 48.390625 32.515625 48.390625 
Q 28.125 48.390625 23.5 47.265625 
Q 18.890625 46.140625 14.015625 43.890625 
L 15.578125 52.203125 
Q 20.65625 54.109375 25.515625 55.046875 
Q 30.375 56 34.90625 56 
Q 44.578125 56 49.625 51.796875 
Q 54.6875 47.609375 54.6875 39.59375 
Q 54.6875 37.984375 54.4375 35.8125 
Q 54.203125 33.640625 53.71875 31.203125 
z
M 44 27.484375 
L 35.015625 27.484375 
Q 23.96875 27.484375 18.671875 24.53125 
Q 13.375 21.578125 13.375 15.375 
Q 13.375 11.078125 16.078125 8.640625 
Q 18.796875 6.203125 23.578125 6.203125 
Q 30.90625 6.203125 36.375 11.453125 
Q 41.84375 16.703125 43.609375 25.484375 
z
" id="DejaVuSans-Oblique-97"/>
     <path d="M 55.71875 33.015625 
L 49.3125 0 
L 40.28125 0 
L 46.6875 32.671875 
Q 47.125 34.96875 47.359375 36.71875 
Q 47.609375 38.484375 47.609375 39.5 
Q 47.609375 43.609375 45.015625 45.890625 
Q 42.4375 48.1875 37.796875 48.1875 
Q 30.5625 48.1875 25.34375 43.375 
Q 20.125 38.578125 18.5 30.328125 
L 12.5 0 
L 3.515625 0 
L 14.109375 54.6875 
L 23.09375 54.6875 
L 21.296875 46.09375 
Q 25.046875 50.828125 30.3125 53.40625 
Q 35.59375 56 41.40625 56 
Q 48.640625 56 52.609375 52.09375 
Q 56.59375 48.1875 56.59375 41.109375 
Q 56.59375 39.359375 56.375 37.359375 
Q 56.15625 35.359375 55.71875 33.015625 
z
" id="DejaVuSans-Oblique-110"/>
     <path d="M 41.796875 8.203125 
Q 38.1875 3.46875 33.25 1.015625 
Q 28.328125 -1.421875 22.3125 -1.421875 
Q 14.109375 -1.421875 9.34375 4.171875 
Q 4.59375 9.765625 4.59375 19.484375 
Q 4.59375 27.59375 7.46875 34.9375 
Q 10.359375 42.28125 15.828125 48.09375 
Q 19.4375 51.953125 23.96875 53.96875 
Q 28.515625 56 33.5 56 
Q 38.765625 56 42.796875 53.453125 
Q 46.828125 50.921875 49.03125 46.1875 
L 54.890625 75.984375 
L 63.921875 75.984375 
L 49.125 0 
L 40.09375 0 
z
M 13.921875 21.09375 
Q 13.921875 14.015625 17.109375 10.0625 
Q 20.3125 6.109375 25.984375 6.109375 
Q 30.171875 6.109375 33.765625 8.125 
Q 37.359375 10.15625 40.09375 14.109375 
Q 42.96875 18.21875 44.625 23.578125 
Q 46.296875 28.953125 46.296875 34.1875 
Q 46.296875 40.96875 43.09375 44.765625 
Q 39.890625 48.578125 34.28125 48.578125 
Q 30.03125 48.578125 26.359375 46.578125 
Q 22.703125 44.578125 20.125 40.828125 
Q 17.28125 36.765625 15.59375 31.390625 
Q 13.921875 26.03125 13.921875 21.09375 
z
" id="DejaVuSans-Oblique-100"/>
     <path d="M 13.09375 72.90625 
L 70.3125 72.90625 
L 68.890625 65.375 
L 12.40625 8.296875 
L 58.890625 8.296875 
L 57.328125 0 
L -2.203125 0 
L -0.78125 7.515625 
L 55.71875 64.59375 
L 11.53125 64.59375 
z
" id="DejaVuSans-Oblique-90"/>
     <path d="M 18.3125 75.984375 
L 27.296875 75.984375 
L 25.09375 64.59375 
L 16.109375 64.59375 
z
M 14.203125 54.6875 
L 23.1875 54.6875 
L 12.5 0 
L 3.515625 0 
z
" id="DejaVuSans-Oblique-105"/>
     <path d="M 18.3125 75.984375 
L 27.296875 75.984375 
L 12.5 0 
L 3.515625 0 
z
" id="DejaVuSans-Oblique-108"/>
     <path d="M 8.5 54.6875 
L 17.390625 54.6875 
L 19.671875 10.6875 
L 40.09375 54.6875 
L 50.484375 54.6875 
L 53.515625 10.6875 
L 72.90625 54.6875 
L 81.890625 54.6875 
L 56.890625 0 
L 46.390625 0 
L 43.703125 45.3125 
L 22.796875 0 
L 12.203125 0 
z
" id="DejaVuSans-Oblique-119"/>
    </defs>
    <g style="fill:#808080;" transform="translate(66.053125 30)scale(0.08 -0.08)">
     <use xlink:href="#DejaVuSans-Oblique-83"/>
     <use x="63.476562" xlink:href="#DejaVuSans-Oblique-111"/>
     <use x="124.658203" xlink:href="#DejaVuSans-Oblique-117"/>
     <use x="188.037109" xlink:href="#DejaVuSans-Oblique-114"/>
     <use x="229.150391" xlink:href="#DejaVuSans-Oblique-99"/>
     <use x="284.130859" xlink:href="#DejaVuSans-Oblique-101"/>
     <use x="345.654297" xlink:href="#DejaVuSans-Oblique-58"/>
     <use x="379.345703" xlink:href="#DejaVuSans-Oblique-32"/>
     <use x="411.132812" xlink:href="#DejaVuSans-Oblique-70"/>
     <use x="468.652344" xlink:href="#DejaVuSans-Oblique-82"/>
     <use x="538.134766" xlink:href="#DejaVuSans-Oblique-69"/>
     <use x="601.318359" xlink:href="#DejaVuSans-Oblique-68"/>
     <use x="678.320312" xlink:href="#DejaVuSans-Oblique-32"/>
     <use x="710.107422" xlink:href="#DejaVuSans-Oblique-97"/>
     <use x="771.386719" xlink:href="#DejaVuSans-Oblique-110"/>
     <use x="834.765625" xlink:href="#DejaVuSans-Oblique-100"/>
     <use x="898.242188" xlink:href="#DejaVuSans-Oblique-32"/>
     <use x="930.029297" xlink:href="#DejaVuSans-Oblique-90"/>
     <use x="998.535156" xlink:href="#DejaVuSans-Oblique-105"/>
     <use x="1026.318359" xlink:href="#DejaVuSans-Oblique-108"/>
     <use x="1054.101562" xlink:href="#DejaVuSans-Oblique-108"/>
     <use x="1081.884766" xlink:href="#DejaVuSans-Oblique-111"/>
     <use x="1143.066406" xlink:href="#DejaVuSans-Oblique-119"/>
    </g>
   </g>
  </g>
  <g id="text_16">
   <!-- House Value -->
   <defs>
    <path d="M 9.8125 72.90625 
L 19.671875 72.90625 
L 19.671875 43.015625 
L 55.515625 43.015625 
L 55.515625 72.90625 
L 65.375 72.90625 
L 65.375 0 
L 55.515625 0 
L 55.515625 34.71875 
L 19.671875 34.71875 
L 19.671875 0 
L 9.8125 0 
z
" id="DejaVuSans-72"/>
    <path d="M 44.28125 53.078125 
L 44.28125 44.578125 
Q 40.484375 46.53125 36.375 47.5 
Q 32.28125 48.484375 27.875 48.484375 
Q 21.1875 48.484375 17.84375 46.4375 
Q 14.5 44.390625 14.5 40.28125 
Q 14.5 37.15625 16.890625 35.375 
Q 19.28125 33.59375 26.515625 31.984375 
L 29.59375 31.296875 
Q 39.15625 29.25 43.1875 25.515625 
Q 47.21875 21.78125 47.21875 15.09375 
Q 47.21875 7.46875 41.1875 3.015625 
Q 35.15625 -1.421875 24.609375 -1.421875 
Q 20.21875 -1.421875 15.453125 -0.5625 
Q 10.6875 0.296875 5.421875 2 
L 5.421875 11.28125 
Q 10.40625 8.6875 15.234375 7.390625 
Q 20.0625 6.109375 24.8125 6.109375 
Q 31.15625 6.109375 34.5625 8.28125 
Q 37.984375 10.453125 37.984375 14.40625 
Q 37.984375 18.0625 35.515625 20.015625 
Q 33.0625 21.96875 24.703125 23.78125 
L 21.578125 24.515625 
Q 13.234375 26.265625 9.515625 29.90625 
Q 5.8125 33.546875 5.8125 39.890625 
Q 5.8125 47.609375 11.28125 51.796875 
Q 16.75 56 26.8125 56 
Q 31.78125 56 36.171875 55.265625 
Q 40.578125 54.546875 44.28125 53.078125 
z
" id="DejaVuSans-115"/>
    <path id="DejaVuSans-32"/>
    <path d="M 28.609375 0 
L 0.78125 72.90625 
L 11.078125 72.90625 
L 34.1875 11.53125 
L 57.328125 72.90625 
L 67.578125 72.90625 
L 39.796875 0 
z
" id="DejaVuSans-86"/>
   </defs>
   <g transform="translate(181.568359 18.597656)scale(0.15 -0.15)">
    <use xlink:href="#DejaVuSans-72"/>
    <use x="75.195312" xlink:href="#DejaVuSans-111"/>
    <use x="136.376953" xlink:href="#DejaVuSans-117"/>
    <use x="199.755859" xlink:href="#DejaVuSans-115"/>
    <use x="251.855469" xlink:href="#DejaVuSans-101"/>
    <use x="313.378906" xlink:href="#DejaVuSans-32"/>
    <use x="345.166016" xlink:href="#DejaVuSans-86"/>
    <use x="405.824219" xlink:href="#DejaVuSans-97"/>
    <use x="467.103516" xlink:href="#DejaVuSans-108"/>
    <use x="494.886719" xlink:href="#DejaVuSans-117"/>
    <use x="558.265625" xlink:href="#DejaVuSans-101"/>
   </g>
  </g>
 </g>
 <defs>
  <clipPath id="p4c6c0e76b9">
   <rect height="217.44" width="334.8" x="66.053125" y="36"/>
  </clipPath>
 </defs>
</svg>
