<?xml version="1.0" encoding="utf-8" standalone="no"?>
<!DOCTYPE svg PUBLIC "-//W3C//DTD SVG 1.1//EN"
  "http://www.w3.org/Graphics/SVG/1.1/DTD/svg11.dtd">
<!-- Created with matplotlib (https://matplotlib.org/) -->
<svg height="290.99625pt" version="1.1" viewBox="0 0 408.053125 290.99625" width="408.053125pt" xmlns="http://www.w3.org/2000/svg" xmlns:xlink="http://www.w3.org/1999/xlink">
 <defs>
  <style type="text/css">
*{stroke-linecap:butt;stroke-linejoin:round;}
  </style>
 </defs>
 <g id="figure_1">
  <g id="patch_1">
   <path d="M 0 290.99625 
L 408.053125 290.99625 
L 408.053125 0 
L 0 0 
z
" style="fill:#ffffff;"/>
  </g>
  <g id="axes_1">
   <g id="patch_2">
    <path d="M 66.053125 253.44 
L 400.853125 253.44 
L 400.853125 36 
L 66.053125 36 
z
" style="fill:#ffffff;"/>
   </g>
   <g id="PathCollection_1">
    <defs>
     <path d="M 0 3 
C 0.795609 3 1.55874 2.683901 2.12132 2.12132 
C 2.683901 1.55874 3 0.795609 3 0 
C 3 -0.795609 2.683901 -1.55874 2.12132 -2.12132 
C 1.55874 -2.683901 0.795609 -3 0 -3 
C -0.795609 -3 -1.55874 -2.683901 -2.12132 -2.12132 
C -2.683901 -1.55874 -3 -0.795609 -3 0 
C -3 0.795609 -2.683901 1.55874 -2.12132 2.12132 
C -1.55874 2.683901 -0.795609 3 0 3 
z
" id="mfa64818d12" style="stroke:#1f77b4;"/>
    </defs>
    <g clip-path="url(#pc52f1fa3b5)">
     <use style="fill:#1f77b4;stroke:#1f77b4;" x="112.363158" xlink:href="#mfa64818d12" y="223.197321"/>
     <use style="fill:#1f77b4;stroke:#1f77b4;" x="197.751828" xlink:href="#mfa64818d12" y="174.343364"/>
     <use style="fill:#1f77b4;stroke:#1f77b4;" x="224.391971" xlink:href="#mfa64818d12" y="149.992009"/>
     <use style="fill:#1f77b4;stroke:#1f77b4;" x="345.674728" xlink:href="#mfa64818d12" y="73.563577"/>
     <use style="fill:#1f77b4;stroke:#1f77b4;" x="105.072172" xlink:href="#mfa64818d12" y="237.027679"/>
     <use style="fill:#1f77b4;stroke:#1f77b4;" x="276.270145" xlink:href="#mfa64818d12" y="124.357988"/>
     <use style="fill:#1f77b4;stroke:#1f77b4;" x="279.775427" xlink:href="#mfa64818d12" y="131.370672"/>
     <use style="fill:#1f77b4;stroke:#1f77b4;" x="105.212383" xlink:href="#mfa64818d12" y="243.552478"/>
     <use style="fill:#1f77b4;stroke:#1f77b4;" x="168.307459" xlink:href="#mfa64818d12" y="201.221732"/>
     <use style="fill:#1f77b4;stroke:#1f77b4;" x="105.212383" xlink:href="#mfa64818d12" y="239.761612"/>
     <use style="fill:#1f77b4;stroke:#1f77b4;" x="196.349715" xlink:href="#mfa64818d12" y="156.245741"/>
     <use style="fill:#1f77b4;stroke:#1f77b4;" x="253.83634" xlink:href="#mfa64818d12" y="124.350216"/>
     <use style="fill:#1f77b4;stroke:#1f77b4;" x="101.006044" xlink:href="#mfa64818d12" y="232.449039"/>
     <use style="fill:#1f77b4;stroke:#1f77b4;" x="91.191255" xlink:href="#mfa64818d12" y="224.533984"/>
     <use style="fill:#1f77b4;stroke:#1f77b4;" x="133.254639" xlink:href="#mfa64818d12" y="222.760997"/>
     <use style="fill:#1f77b4;stroke:#1f77b4;" x="258.042678" xlink:href="#mfa64818d12" y="127.464255"/>
     <use style="fill:#1f77b4;stroke:#1f77b4;" x="221.587745" xlink:href="#mfa64818d12" y="148.883599"/>
     <use style="fill:#1f77b4;stroke:#1f77b4;" x="161.296895" xlink:href="#mfa64818d12" y="210.260924"/>
     <use style="fill:#1f77b4;stroke:#1f77b4;" x="98.201819" xlink:href="#mfa64818d12" y="232.867769"/>
     <use style="fill:#1f77b4;stroke:#1f77b4;" x="234.206761" xlink:href="#mfa64818d12" y="141.809475"/>
     <use style="fill:#1f77b4;stroke:#1f77b4;" x="217.381407" xlink:href="#mfa64818d12" y="146.851465"/>
     <use style="fill:#1f77b4;stroke:#1f77b4;" x="101.917418" xlink:href="#mfa64818d12" y="232.859025"/>
     <use style="fill:#1f77b4;stroke:#1f77b4;" x="147.275767" xlink:href="#mfa64818d12" y="211.14608"/>
     <use style="fill:#1f77b4;stroke:#1f77b4;" x="140.265203" xlink:href="#mfa64818d12" y="229.542839"/>
     <use style="fill:#1f77b4;stroke:#1f77b4;" x="126.244075" xlink:href="#mfa64818d12" y="228.221327"/>
     <use style="fill:#1f77b4;stroke:#1f77b4;" x="185.833869" xlink:href="#mfa64818d12" y="180.652081"/>
     <use style="fill:#1f77b4;stroke:#1f77b4;" x="101.006044" xlink:href="#mfa64818d12" y="225.538103"/>
     <use style="fill:#1f77b4;stroke:#1f77b4;" x="175.318023" xlink:href="#mfa64818d12" y="198.142486"/>
     <use style="fill:#1f77b4;stroke:#1f77b4;" x="230.701479" xlink:href="#mfa64818d12" y="141.809475"/>
     <use style="fill:#1f77b4;stroke:#1f77b4;" x="360.396913" xlink:href="#mfa64818d12" y="45.906953"/>
     <use style="fill:#1f77b4;stroke:#1f77b4;" x="189.339151" xlink:href="#mfa64818d12" y="174.341421"/>
     <use style="fill:#1f77b4;stroke:#1f77b4;" x="105.212383" xlink:href="#mfa64818d12" y="222.498508"/>
     <use style="fill:#1f77b4;stroke:#1f77b4;" x="168.307459" xlink:href="#mfa64818d12" y="196.372035"/>
     <use style="fill:#1f77b4;stroke:#1f77b4;" x="185.132813" xlink:href="#mfa64818d12" y="191.81739"/>
     <use style="fill:#1f77b4;stroke:#1f77b4;" x="154.286331" xlink:href="#mfa64818d12" y="191.530036"/>
     <use style="fill:#1f77b4;stroke:#1f77b4;" x="164.802177" xlink:href="#mfa64818d12" y="210.27744"/>
     <use style="fill:#1f77b4;stroke:#1f77b4;" x="162.699008" xlink:href="#mfa64818d12" y="207.527111"/>
     <use style="fill:#1f77b4;stroke:#1f77b4;" x="168.307459" xlink:href="#mfa64818d12" y="210.273554"/>
     <use style="fill:#1f77b4;stroke:#1f77b4;" x="98.061608" xlink:href="#mfa64818d12" y="225.3577"/>
     <use style="fill:#1f77b4;stroke:#1f77b4;" x="98.201819" xlink:href="#mfa64818d12" y="239.419394"/>
     <use style="fill:#1f77b4;stroke:#1f77b4;" x="106.614496" xlink:href="#mfa64818d12" y="240.152219"/>
     <use style="fill:#1f77b4;stroke:#1f77b4;" x="159.894782" xlink:href="#mfa64818d12" y="206.965367"/>
     <use style="fill:#1f77b4;stroke:#1f77b4;" x="128.207033" xlink:href="#mfa64818d12" y="233.748195"/>
     <use style="fill:#1f77b4;stroke:#1f77b4;" x="151.482105" xlink:href="#mfa64818d12" y="210.147687"/>
     <use style="fill:#1f77b4;stroke:#1f77b4;" x="105.072172" xlink:href="#mfa64818d12" y="235.321038"/>
     <use style="fill:#1f77b4;stroke:#1f77b4;" x="112.222947" xlink:href="#mfa64818d12" y="242.209469"/>
     <use style="fill:#1f77b4;stroke:#1f77b4;" x="371.613815" xlink:href="#mfa64818d12" y="45.883636"/>
     <use style="fill:#1f77b4;stroke:#1f77b4;" x="113.62506" xlink:href="#mfa64818d12" y="219.304299"/>
     <use style="fill:#1f77b4;stroke:#1f77b4;" x="228.598309" xlink:href="#mfa64818d12" y="154.524"/>
     <use style="fill:#1f77b4;stroke:#1f77b4;" x="189.339151" xlink:href="#mfa64818d12" y="185.246016"/>
     <use style="fill:#1f77b4;stroke:#1f77b4;" x="98.201819" xlink:href="#mfa64818d12" y="224.545006"/>
     <use style="fill:#1f77b4;stroke:#1f77b4;" x="206.164505" xlink:href="#mfa64818d12" y="173.386039"/>
     <use style="fill:#1f77b4;stroke:#1f77b4;" x="84.180691" xlink:href="#mfa64818d12" y="231.347816"/>
     <use style="fill:#1f77b4;stroke:#1f77b4;" x="322.539867" xlink:href="#mfa64818d12" y="78.581045"/>
     <use style="fill:#1f77b4;stroke:#1f77b4;" x="126.244075" xlink:href="#mfa64818d12" y="216.081324"/>
     <use style="fill:#1f77b4;stroke:#1f77b4;" x="108.717665" xlink:href="#mfa64818d12" y="243.556364"/>
     <use style="fill:#1f77b4;stroke:#1f77b4;" x="200.556053" xlink:href="#mfa64818d12" y="174.413922"/>
     <use style="fill:#1f77b4;stroke:#1f77b4;" x="213.175069" xlink:href="#mfa64818d12" y="152.10205"/>
     <use style="fill:#1f77b4;stroke:#1f77b4;" x="224.391971" xlink:href="#mfa64818d12" y="148.885542"/>
     <use style="fill:#1f77b4;stroke:#1f77b4;" x="192.844433" xlink:href="#mfa64818d12" y="185.24213"/>
     <use style="fill:#1f77b4;stroke:#1f77b4;" x="98.201819" xlink:href="#mfa64818d12" y="236.255398"/>
     <use style="fill:#1f77b4;stroke:#1f77b4;" x="101.006044" xlink:href="#mfa64818d12" y="225.814072"/>
     <use style="fill:#1f77b4;stroke:#1f77b4;" x="201.25711" xlink:href="#mfa64818d12" y="156.233111"/>
     <use style="fill:#1f77b4;stroke:#1f77b4;" x="217.381407" xlink:href="#mfa64818d12" y="173.387011"/>
     <use style="fill:#1f77b4;stroke:#1f77b4;" x="212.333801" xlink:href="#mfa64818d12" y="146.898385"/>
     <use style="fill:#1f77b4;stroke:#1f77b4;" x="136.953413" xlink:href="#mfa64818d12" y="216.365171"/>
     <use style="fill:#1f77b4;stroke:#1f77b4;" x="140.265203" xlink:href="#mfa64818d12" y="225.596826"/>
     <use style="fill:#1f77b4;stroke:#1f77b4;" x="92.593368" xlink:href="#mfa64818d12" y="231.862349"/>
     <use style="fill:#1f77b4;stroke:#1f77b4;" x="170.740125" xlink:href="#mfa64818d12" y="195.537744"/>
     <use style="fill:#1f77b4;stroke:#1f77b4;" x="323.240924" xlink:href="#mfa64818d12" y="116.832504"/>
     <use style="fill:#1f77b4;stroke:#1f77b4;" x="322.539867" xlink:href="#mfa64818d12" y="107.167969"/>
     <use style="fill:#1f77b4;stroke:#1f77b4;" x="182.328587" xlink:href="#mfa64818d12" y="178.228749"/>
     <use style="fill:#1f77b4;stroke:#1f77b4;" x="84.881747" xlink:href="#mfa64818d12" y="235.444337"/>
     <use style="fill:#1f77b4;stroke:#1f77b4;" x="273.465919" xlink:href="#mfa64818d12" y="140.147791"/>
     <use style="fill:#1f77b4;stroke:#1f77b4;" x="119.233511" xlink:href="#mfa64818d12" y="217.9996"/>
     <use style="fill:#1f77b4;stroke:#1f77b4;" x="122.738793" xlink:href="#mfa64818d12" y="218.008343"/>
     <use style="fill:#1f77b4;stroke:#1f77b4;" x="85.582804" xlink:href="#mfa64818d12" y="231.346845"/>
     <use style="fill:#1f77b4;stroke:#1f77b4;" x="196.349715" xlink:href="#mfa64818d12" y="165.931891"/>
     <use style="fill:#1f77b4;stroke:#1f77b4;" x="175.177812" xlink:href="#mfa64818d12" y="196.081746"/>
     <use style="fill:#1f77b4;stroke:#1f77b4;" x="105.212383" xlink:href="#mfa64818d12" y="225.546847"/>
     <use style="fill:#1f77b4;stroke:#1f77b4;" x="210.370843" xlink:href="#mfa64818d12" y="174.414894"/>
     <use style="fill:#1f77b4;stroke:#1f77b4;" x="217.381407" xlink:href="#mfa64818d12" y="153.91828"/>
     <use style="fill:#1f77b4;stroke:#1f77b4;" x="108.016609" xlink:href="#mfa64818d12" y="239.873422"/>
     <use style="fill:#1f77b4;stroke:#1f77b4;" x="178.122249" xlink:href="#mfa64818d12" y="184.694733"/>
     <use style="fill:#1f77b4;stroke:#1f77b4;" x="118.532455" xlink:href="#mfa64818d12" y="231.701114"/>
     <use style="fill:#1f77b4;stroke:#1f77b4;" x="147.275767" xlink:href="#mfa64818d12" y="199.541228"/>
     <use style="fill:#1f77b4;stroke:#1f77b4;" x="102.408157" xlink:href="#mfa64818d12" y="234.224053"/>
     <use style="fill:#1f77b4;stroke:#1f77b4;" x="105.212383" xlink:href="#mfa64818d12" y="227.208036"/>
     <use style="fill:#1f77b4;stroke:#1f77b4;" x="97.500762" xlink:href="#mfa64818d12" y="225.365473"/>
     <use style="fill:#1f77b4;stroke:#1f77b4;" x="91.191255" xlink:href="#mfa64818d12" y="231.87145"/>
     <use style="fill:#1f77b4;stroke:#1f77b4;" x="172.513797" xlink:href="#mfa64818d12" y="196.081746"/>
     <use style="fill:#1f77b4;stroke:#1f77b4;" x="98.201819" xlink:href="#mfa64818d12" y="232.862912"/>
     <use style="fill:#1f77b4;stroke:#1f77b4;" x="92.593368" xlink:href="#mfa64818d12" y="232.449039"/>
     <use style="fill:#1f77b4;stroke:#1f77b4;" x="154.286331" xlink:href="#mfa64818d12" y="201.485099"/>
     <use style="fill:#1f77b4;stroke:#1f77b4;" x="131.852526" xlink:href="#mfa64818d12" y="214.00771"/>
     <use style="fill:#1f77b4;stroke:#1f77b4;" x="301.508175" xlink:href="#mfa64818d12" y="116.578991"/>
     <use style="fill:#1f77b4;stroke:#1f77b4;" x="112.924003" xlink:href="#mfa64818d12" y="236.611097"/>
     <use style="fill:#1f77b4;stroke:#1f77b4;" x="236.870775" xlink:href="#mfa64818d12" y="141.809475"/>
     <use style="fill:#1f77b4;stroke:#1f77b4;" x="166.905346" xlink:href="#mfa64818d12" y="191.36377"/>
     <use style="fill:#1f77b4;stroke:#1f77b4;" x="110.820834" xlink:href="#mfa64818d12" y="234.142016"/>
     <use style="fill:#1f77b4;stroke:#1f77b4;" x="357.592687" xlink:href="#mfa64818d12" y="54.723296"/>
     <use style="fill:#1f77b4;stroke:#1f77b4;" x="105.212383" xlink:href="#mfa64818d12" y="238.761472"/>
     <use style="fill:#1f77b4;stroke:#1f77b4;" x="140.265203" xlink:href="#mfa64818d12" y="211.018412"/>
     <use style="fill:#1f77b4;stroke:#1f77b4;" x="105.072172" xlink:href="#mfa64818d12" y="222.515024"/>
     <use style="fill:#1f77b4;stroke:#1f77b4;" x="98.201819" xlink:href="#mfa64818d12" y="242.851116"/>
     <use style="fill:#1f77b4;stroke:#1f77b4;" x="217.381407" xlink:href="#mfa64818d12" y="146.904214"/>
     <use style="fill:#1f77b4;stroke:#1f77b4;" x="103.81027" xlink:href="#mfa64818d12" y="225.809214"/>
     <use style="fill:#1f77b4;stroke:#1f77b4;" x="126.244075" xlink:href="#mfa64818d12" y="213.787045"/>
     <use style="fill:#1f77b4;stroke:#1f77b4;" x="108.717665" xlink:href="#mfa64818d12" y="234.872368"/>
     <use style="fill:#1f77b4;stroke:#1f77b4;" x="130.450413" xlink:href="#mfa64818d12" y="214.644993"/>
     <use style="fill:#1f77b4;stroke:#1f77b4;" x="192.143377" xlink:href="#mfa64818d12" y="165.944521"/>
     <use style="fill:#1f77b4;stroke:#1f77b4;" x="315.529303" xlink:href="#mfa64818d12" y="116.57802"/>
     <use style="fill:#1f77b4;stroke:#1f77b4;" x="147.275767" xlink:href="#mfa64818d12" y="212.373963"/>
     <use style="fill:#1f77b4;stroke:#1f77b4;" x="147.275767" xlink:href="#mfa64818d12" y="211.148994"/>
     <use style="fill:#1f77b4;stroke:#1f77b4;" x="266.455355" xlink:href="#mfa64818d12" y="142.087105"/>
     <use style="fill:#1f77b4;stroke:#1f77b4;" x="117.691187" xlink:href="#mfa64818d12" y="223.900701"/>
     <use style="fill:#1f77b4;stroke:#1f77b4;" x="315.529303" xlink:href="#mfa64818d12" y="116.838333"/>
     <use style="fill:#1f77b4;stroke:#1f77b4;" x="141.667316" xlink:href="#mfa64818d12" y="199.546085"/>
     <use style="fill:#1f77b4;stroke:#1f77b4;" x="203.360279" xlink:href="#mfa64818d12" y="190.353436"/>
     <use style="fill:#1f77b4;stroke:#1f77b4;" x="385.634943" xlink:href="#mfa64818d12" y="52.589189"/>
     <use style="fill:#1f77b4;stroke:#1f77b4;" x="112.222947" xlink:href="#mfa64818d12" y="223.388995"/>
     <use style="fill:#1f77b4;stroke:#1f77b4;" x="161.296895" xlink:href="#mfa64818d12" y="206.968281"/>
     <use style="fill:#1f77b4;stroke:#1f77b4;" x="231.402535" xlink:href="#mfa64818d12" y="159.764864"/>
     <use style="fill:#1f77b4;stroke:#1f77b4;" x="127.646188" xlink:href="#mfa64818d12" y="224.982693"/>
     <use style="fill:#1f77b4;stroke:#1f77b4;" x="189.339151" xlink:href="#mfa64818d12" y="163.87236"/>
     <use style="fill:#1f77b4;stroke:#1f77b4;" x="119.233511" xlink:href="#mfa64818d12" y="243.251016"/>
     <use style="fill:#1f77b4;stroke:#1f77b4;" x="154.286331" xlink:href="#mfa64818d12" y="207.09207"/>
     <use style="fill:#1f77b4;stroke:#1f77b4;" x="343.431348" xlink:href="#mfa64818d12" y="51.950172"/>
     <use style="fill:#1f77b4;stroke:#1f77b4;" x="124.701751" xlink:href="#mfa64818d12" y="214.644993"/>
     <use style="fill:#1f77b4;stroke:#1f77b4;" x="123.860483" xlink:href="#mfa64818d12" y="242.658374"/>
     <use style="fill:#1f77b4;stroke:#1f77b4;" x="199.153941" xlink:href="#mfa64818d12" y="174.358909"/>
     <use style="fill:#1f77b4;stroke:#1f77b4;" x="119.0933" xlink:href="#mfa64818d12" y="240.222483"/>
     <use style="fill:#1f77b4;stroke:#1f77b4;" x="322.539867" xlink:href="#mfa64818d12" y="90.053023"/>
     <use style="fill:#1f77b4;stroke:#1f77b4;" x="105.212383" xlink:href="#mfa64818d12" y="238.757585"/>
     <use style="fill:#1f77b4;stroke:#1f77b4;" x="117.831398" xlink:href="#mfa64818d12" y="231.696256"/>
     <use style="fill:#1f77b4;stroke:#1f77b4;" x="128.908089" xlink:href="#mfa64818d12" y="218.771698"/>
     <use style="fill:#1f77b4;stroke:#1f77b4;" x="182.328587" xlink:href="#mfa64818d12" y="184.700562"/>
     <use style="fill:#1f77b4;stroke:#1f77b4;" x="224.391971" xlink:href="#mfa64818d12" y="149.992009"/>
     <use style="fill:#1f77b4;stroke:#1f77b4;" x="138.86309" xlink:href="#mfa64818d12" y="211.034928"/>
     <use style="fill:#1f77b4;stroke:#1f77b4;" x="322.539867" xlink:href="#mfa64818d12" y="98.412659"/>
     <use style="fill:#1f77b4;stroke:#1f77b4;" x="196.349715" xlink:href="#mfa64818d12" y="163.873332"/>
     <use style="fill:#1f77b4;stroke:#1f77b4;" x="201.958166" xlink:href="#mfa64818d12" y="180.69962"/>
     <use style="fill:#1f77b4;stroke:#1f77b4;" x="117.130342" xlink:href="#mfa64818d12" y="219.27538"/>
     <use style="fill:#1f77b4;stroke:#1f77b4;" x="288.88916" xlink:href="#mfa64818d12" y="122.01236"/>
     <use style="fill:#1f77b4;stroke:#1f77b4;" x="127.646188" xlink:href="#mfa64818d12" y="224.990465"/>
     <use style="fill:#1f77b4;stroke:#1f77b4;" x="217.381407" xlink:href="#mfa64818d12" y="146.838835"/>
     <use style="fill:#1f77b4;stroke:#1f77b4;" x="126.244075" xlink:href="#mfa64818d12" y="218.76684"/>
     <use style="fill:#1f77b4;stroke:#1f77b4;" x="101.707101" xlink:href="#mfa64818d12" y="222.332469"/>
     <use style="fill:#1f77b4;stroke:#1f77b4;" x="102.408157" xlink:href="#mfa64818d12" y="237.013106"/>
     <use style="fill:#1f77b4;stroke:#1f77b4;" x="322.539867" xlink:href="#mfa64818d12" y="101.342257"/>
     <use style="fill:#1f77b4;stroke:#1f77b4;" x="189.339151" xlink:href="#mfa64818d12" y="185.239215"/>
     <use style="fill:#1f77b4;stroke:#1f77b4;" x="272.063806" xlink:href="#mfa64818d12" y="134.854821"/>
     <use style="fill:#1f77b4;stroke:#1f77b4;" x="273.465919" xlink:href="#mfa64818d12" y="131.373587"/>
     <use style="fill:#1f77b4;stroke:#1f77b4;" x="204.762392" xlink:href="#mfa64818d12" y="166.820733"/>
     <use style="fill:#1f77b4;stroke:#1f77b4;" x="91.191255" xlink:href="#mfa64818d12" y="227.126401"/>
     <use style="fill:#1f77b4;stroke:#1f77b4;" x="147.275767" xlink:href="#mfa64818d12" y="210.146715"/>
     <use style="fill:#1f77b4;stroke:#1f77b4;" x="119.233511" xlink:href="#mfa64818d12" y="219.254978"/>
     <use style="fill:#1f77b4;stroke:#1f77b4;" x="117.691187" xlink:href="#mfa64818d12" y="234.137158"/>
     <use style="fill:#1f77b4;stroke:#1f77b4;" x="98.201819" xlink:href="#mfa64818d12" y="231.881165"/>
     <use style="fill:#1f77b4;stroke:#1f77b4;" x="152.884218" xlink:href="#mfa64818d12" y="211.147051"/>
     <use style="fill:#1f77b4;stroke:#1f77b4;" x="143.069429" xlink:href="#mfa64818d12" y="223.603058"/>
     <use style="fill:#1f77b4;stroke:#1f77b4;" x="196.349715" xlink:href="#mfa64818d12" y="169.336248"/>
     <use style="fill:#1f77b4;stroke:#1f77b4;" x="221.938274" xlink:href="#mfa64818d12" y="153.916337"/>
     <use style="fill:#1f77b4;stroke:#1f77b4;" x="107.315552" xlink:href="#mfa64818d12" y="223.394824"/>
     <use style="fill:#1f77b4;stroke:#1f77b4;" x="315.529303" xlink:href="#mfa64818d12" y="90.053995"/>
     <use style="fill:#1f77b4;stroke:#1f77b4;" x="112.222947" xlink:href="#mfa64818d12" y="242.180323"/>
     <use style="fill:#1f77b4;stroke:#1f77b4;" x="119.233511" xlink:href="#mfa64818d12" y="240.23317"/>
     <use style="fill:#1f77b4;stroke:#1f77b4;" x="203.360279" xlink:href="#mfa64818d12" y="166.81879"/>
     <use style="fill:#1f77b4;stroke:#1f77b4;" x="217.381407" xlink:href="#mfa64818d12" y="147.667491"/>
     <use style="fill:#1f77b4;stroke:#1f77b4;" x="102.408157" xlink:href="#mfa64818d12" y="229.383643"/>
     <use style="fill:#1f77b4;stroke:#1f77b4;" x="184.85239" xlink:href="#mfa64818d12" y="186.666468"/>
     <use style="fill:#1f77b4;stroke:#1f77b4;" x="329.550431" xlink:href="#mfa64818d12" y="86.853417"/>
     <use style="fill:#1f77b4;stroke:#1f77b4;" x="111.521891" xlink:href="#mfa64818d12" y="235.315209"/>
     <use style="fill:#1f77b4;stroke:#1f77b4;" x="322.539867" xlink:href="#mfa64818d12" y="101.3442"/>
     <use style="fill:#1f77b4;stroke:#1f77b4;" x="164.802177" xlink:href="#mfa64818d12" y="195.501797"/>
     <use style="fill:#1f77b4;stroke:#1f77b4;" x="116.534444" xlink:href="#mfa64818d12" y="229.175422"/>
     <use style="fill:#1f77b4;stroke:#1f77b4;" x="322.539867" xlink:href="#mfa64818d12" y="107.177685"/>
     <use style="fill:#1f77b4;stroke:#1f77b4;" x="203.360279" xlink:href="#mfa64818d12" y="169.850808"/>
     <use style="fill:#1f77b4;stroke:#1f77b4;" x="180.926474" xlink:href="#mfa64818d12" y="191.820305"/>
     <use style="fill:#1f77b4;stroke:#1f77b4;" x="354.087405" xlink:href="#mfa64818d12" y="54.764101"/>
     <use style="fill:#1f77b4;stroke:#1f77b4;" x="106.614496" xlink:href="#mfa64818d12" y="228.622332"/>
     <use style="fill:#1f77b4;stroke:#1f77b4;" x="322.539867" xlink:href="#mfa64818d12" y="101.35683"/>
     <use style="fill:#1f77b4;stroke:#1f77b4;" x="134.656752" xlink:href="#mfa64818d12" y="219.277148"/>
     <use style="fill:#1f77b4;stroke:#1f77b4;" x="182.328587" xlink:href="#mfa64818d12" y="184.697647"/>
     <use style="fill:#1f77b4;stroke:#1f77b4;" x="105.212383" xlink:href="#mfa64818d12" y="239.880222"/>
     <use style="fill:#1f77b4;stroke:#1f77b4;" x="105.212383" xlink:href="#mfa64818d12" y="243.555392"/>
     <use style="fill:#1f77b4;stroke:#1f77b4;" x="141.667316" xlink:href="#mfa64818d12" y="219.264518"/>
     <use style="fill:#1f77b4;stroke:#1f77b4;" x="133.254639" xlink:href="#mfa64818d12" y="214.651794"/>
     <use style="fill:#1f77b4;stroke:#1f77b4;" x="81.271307" xlink:href="#mfa64818d12" y="233.303162"/>
     <use style="fill:#1f77b4;stroke:#1f77b4;" x="102.408157" xlink:href="#mfa64818d12" y="243.250044"/>
     <use style="fill:#1f77b4;stroke:#1f77b4;" x="134.656752" xlink:href="#mfa64818d12" y="224.992408"/>
     <use style="fill:#1f77b4;stroke:#1f77b4;" x="336.560995" xlink:href="#mfa64818d12" y="78.616991"/>
     <use style="fill:#1f77b4;stroke:#1f77b4;" x="108.016609" xlink:href="#mfa64818d12" y="233.393785"/>
     <use style="fill:#1f77b4;stroke:#1f77b4;" x="143.069429" xlink:href="#mfa64818d12" y="212.373963"/>
     <use style="fill:#1f77b4;stroke:#1f77b4;" x="91.191255" xlink:href="#mfa64818d12" y="239.42328"/>
     <use style="fill:#1f77b4;stroke:#1f77b4;" x="112.222947" xlink:href="#mfa64818d12" y="230.598082"/>
     <use style="fill:#1f77b4;stroke:#1f77b4;" x="189.339151" xlink:href="#mfa64818d12" y="180.700591"/>
     <use style="fill:#1f77b4;stroke:#1f77b4;" x="159.894782" xlink:href="#mfa64818d12" y="207.919763"/>
     <use style="fill:#1f77b4;stroke:#1f77b4;" x="153.585275" xlink:href="#mfa64818d12" y="201.487042"/>
     <use style="fill:#1f77b4;stroke:#1f77b4;" x="221.587745" xlink:href="#mfa64818d12" y="148.048484"/>
     <use style="fill:#1f77b4;stroke:#1f77b4;" x="108.016609" xlink:href="#mfa64818d12" y="226.480565"/>
     <use style="fill:#1f77b4;stroke:#1f77b4;" x="102.408157" xlink:href="#mfa64818d12" y="235.462734"/>
     <use style="fill:#1f77b4;stroke:#1f77b4;" x="175.318023" xlink:href="#mfa64818d12" y="198.149287"/>
     <use style="fill:#1f77b4;stroke:#1f77b4;" x="168.307459" xlink:href="#mfa64818d12" y="207.531968"/>
     <use style="fill:#1f77b4;stroke:#1f77b4;" x="378.624379" xlink:href="#mfa64818d12" y="61.851901"/>
     <use style="fill:#1f77b4;stroke:#1f77b4;" x="255.939509" xlink:href="#mfa64818d12" y="134.992356"/>
     <use style="fill:#1f77b4;stroke:#1f77b4;" x="129.048301" xlink:href="#mfa64818d12" y="228.181204"/>
     <use style="fill:#1f77b4;stroke:#1f77b4;" x="102.408157" xlink:href="#mfa64818d12" y="239.767441"/>
     <use style="fill:#1f77b4;stroke:#1f77b4;" x="171.111685" xlink:href="#mfa64818d12" y="196.368148"/>
     <use style="fill:#1f77b4;stroke:#1f77b4;" x="204.762392" xlink:href="#mfa64818d12" y="166.827533"/>
     <use style="fill:#1f77b4;stroke:#1f77b4;" x="103.81027" xlink:href="#mfa64818d12" y="236.250541"/>
     <use style="fill:#1f77b4;stroke:#1f77b4;" x="203.220068" xlink:href="#mfa64818d12" y="166.819761"/>
     <use style="fill:#1f77b4;stroke:#1f77b4;" x="368.108533" xlink:href="#mfa64818d12" y="45.904039"/>
     <use style="fill:#1f77b4;stroke:#1f77b4;" x="164.101121" xlink:href="#mfa64818d12" y="197.695784"/>
     <use style="fill:#1f77b4;stroke:#1f77b4;" x="126.202012" xlink:href="#mfa64818d12" y="214.642079"/>
     <use style="fill:#1f77b4;stroke:#1f77b4;" x="126.244075" xlink:href="#mfa64818d12" y="218.588801"/>
     <use style="fill:#1f77b4;stroke:#1f77b4;" x="217.381407" xlink:href="#mfa64818d12" y="147.675264"/>
     <use style="fill:#1f77b4;stroke:#1f77b4;" x="329.550431" xlink:href="#mfa64818d12" y="107.185457"/>
     <use style="fill:#1f77b4;stroke:#1f77b4;" x="230.000422" xlink:href="#mfa64818d12" y="151.91157"/>
     <use style="fill:#1f77b4;stroke:#1f77b4;" x="154.286331" xlink:href="#mfa64818d12" y="200.22835"/>
     <use style="fill:#1f77b4;stroke:#1f77b4;" x="108.717665" xlink:href="#mfa64818d12" y="233.393785"/>
     <use style="fill:#1f77b4;stroke:#1f77b4;" x="112.222947" xlink:href="#mfa64818d12" y="239.876336"/>
     <use style="fill:#1f77b4;stroke:#1f77b4;" x="262.249017" xlink:href="#mfa64818d12" y="142.09002"/>
     <use style="fill:#1f77b4;stroke:#1f77b4;" x="98.201819" xlink:href="#mfa64818d12" y="225.54879"/>
     <use style="fill:#1f77b4;stroke:#1f77b4;" x="119.218088" xlink:href="#mfa64818d12" y="229.200682"/>
     <use style="fill:#1f77b4;stroke:#1f77b4;" x="129.048301" xlink:href="#mfa64818d12" y="218.588801"/>
     <use style="fill:#1f77b4;stroke:#1f77b4;" x="231.262324" xlink:href="#mfa64818d12" y="141.799759"/>
     <use style="fill:#1f77b4;stroke:#1f77b4;" x="217.381407" xlink:href="#mfa64818d12" y="151.919342"/>
     <use style="fill:#1f77b4;stroke:#1f77b4;" x="154.286331" xlink:href="#mfa64818d12" y="207.094013"/>
     <use style="fill:#1f77b4;stroke:#1f77b4;" x="267.857468" xlink:href="#mfa64818d12" y="134.866479"/>
     <use style="fill:#1f77b4;stroke:#1f77b4;" x="110.820834" xlink:href="#mfa64818d12" y="225.404223"/>
     <use style="fill:#1f77b4;stroke:#1f77b4;" x="173.91591" xlink:href="#mfa64818d12" y="190.783753"/>
     <use style="fill:#1f77b4;stroke:#1f77b4;" x="322.399656" xlink:href="#mfa64818d12" y="116.841248"/>
     <use style="fill:#1f77b4;stroke:#1f77b4;" x="140.966259" xlink:href="#mfa64818d12" y="205.145841"/>
     <use style="fill:#1f77b4;stroke:#1f77b4;" x="103.81027" xlink:href="#mfa64818d12" y="235.329782"/>
     <use style="fill:#1f77b4;stroke:#1f77b4;" x="105.212383" xlink:href="#mfa64818d12" y="228.624275"/>
     <use style="fill:#1f77b4;stroke:#1f77b4;" x="105.212383" xlink:href="#mfa64818d12" y="234.220167"/>
     <use style="fill:#1f77b4;stroke:#1f77b4;" x="163.400064" xlink:href="#mfa64818d12" y="195.498883"/>
     <use style="fill:#1f77b4;stroke:#1f77b4;" x="108.016609" xlink:href="#mfa64818d12" y="238.296288"/>
     <use style="fill:#1f77b4;stroke:#1f77b4;" x="357.592687" xlink:href="#mfa64818d12" y="45.883636"/>
     <use style="fill:#1f77b4;stroke:#1f77b4;" x="179.524361" xlink:href="#mfa64818d12" y="200.005822"/>
     <use style="fill:#1f77b4;stroke:#1f77b4;" x="322.539867" xlink:href="#mfa64818d12" y="107.166026"/>
     <use style="fill:#1f77b4;stroke:#1f77b4;" x="133.114428" xlink:href="#mfa64818d12" y="229.536038"/>
     <use style="fill:#1f77b4;stroke:#1f77b4;" x="224.391971" xlink:href="#mfa64818d12" y="144.639729"/>
     <use style="fill:#1f77b4;stroke:#1f77b4;" x="255.238453" xlink:href="#mfa64818d12" y="134.986527"/>
     <use style="fill:#1f77b4;stroke:#1f77b4;" x="129.048301" xlink:href="#mfa64818d12" y="214.732387"/>
     <use style="fill:#1f77b4;stroke:#1f77b4;" x="98.201819" xlink:href="#mfa64818d12" y="232.860969"/>
     <use style="fill:#1f77b4;stroke:#1f77b4;" x="152.673901" xlink:href="#mfa64818d12" y="200.22835"/>
     <use style="fill:#1f77b4;stroke:#1f77b4;" x="88.387029" xlink:href="#mfa64818d12" y="231.876308"/>
     <use style="fill:#1f77b4;stroke:#1f77b4;" x="349.18001" xlink:href="#mfa64818d12" y="51.923941"/>
     <use style="fill:#1f77b4;stroke:#1f77b4;" x="158.492669" xlink:href="#mfa64818d12" y="192.011352"/>
     <use style="fill:#1f77b4;stroke:#1f77b4;" x="194.246546" xlink:href="#mfa64818d12" y="163.86556"/>
     <use style="fill:#1f77b4;stroke:#1f77b4;" x="124.841962" xlink:href="#mfa64818d12" y="213.775387"/>
     <use style="fill:#1f77b4;stroke:#1f77b4;" x="105.212383" xlink:href="#mfa64818d12" y="234.142016"/>
     <use style="fill:#1f77b4;stroke:#1f77b4;" x="203.360279" xlink:href="#mfa64818d12" y="174.424609"/>
     <use style="fill:#1f77b4;stroke:#1f77b4;" x="182.328587" xlink:href="#mfa64818d12" y="184.703476"/>
     <use style="fill:#1f77b4;stroke:#1f77b4;" x="147.275767" xlink:href="#mfa64818d12" y="204.075007"/>
     <use style="fill:#1f77b4;stroke:#1f77b4;" x="217.100984" xlink:href="#mfa64818d12" y="153.104279"/>
     <use style="fill:#1f77b4;stroke:#1f77b4;" x="130.450413" xlink:href="#mfa64818d12" y="223.96267"/>
     <use style="fill:#1f77b4;stroke:#1f77b4;" x="181.934593" xlink:href="#mfa64818d12" y="185.031978"/>
     <use style="fill:#1f77b4;stroke:#1f77b4;" x="322.539867" xlink:href="#mfa64818d12" y="101.343228"/>
     <use style="fill:#1f77b4;stroke:#1f77b4;" x="210.370843" xlink:href="#mfa64818d12" y="153.914394"/>
     <use style="fill:#1f77b4;stroke:#1f77b4;" x="108.717665" xlink:href="#mfa64818d12" y="236.252484"/>
     <use style="fill:#1f77b4;stroke:#1f77b4;" x="207.566617" xlink:href="#mfa64818d12" y="169.850808"/>
     <use style="fill:#1f77b4;stroke:#1f77b4;" x="187.937038" xlink:href="#mfa64818d12" y="178.226806"/>
     <use style="fill:#1f77b4;stroke:#1f77b4;" x="217.381407" xlink:href="#mfa64818d12" y="151.926143"/>
     <use style="fill:#1f77b4;stroke:#1f77b4;" x="135.603178" xlink:href="#mfa64818d12" y="214.731416"/>
     <use style="fill:#1f77b4;stroke:#1f77b4;" x="98.201819" xlink:href="#mfa64818d12" y="231.938676"/>
     <use style="fill:#1f77b4;stroke:#1f77b4;" x="115.027173" xlink:href="#mfa64818d12" y="240.262028"/>
     <use style="fill:#1f77b4;stroke:#1f77b4;" x="147.275767" xlink:href="#mfa64818d12" y="201.482185"/>
     <use style="fill:#1f77b4;stroke:#1f77b4;" x="112.082736" xlink:href="#mfa64818d12" y="224.543063"/>
     <use style="fill:#1f77b4;stroke:#1f77b4;" x="126.244075" xlink:href="#mfa64818d12" y="228.181204"/>
     <use style="fill:#1f77b4;stroke:#1f77b4;" x="217.381407" xlink:href="#mfa64818d12" y="146.89547"/>
     <use style="fill:#1f77b4;stroke:#1f77b4;" x="147.275767" xlink:href="#mfa64818d12" y="204.069178"/>
     <use style="fill:#1f77b4;stroke:#1f77b4;" x="308.518739" xlink:href="#mfa64818d12" y="81.87566"/>
     <use style="fill:#1f77b4;stroke:#1f77b4;" x="101.636995" xlink:href="#mfa64818d12" y="222.521825"/>
     <use style="fill:#1f77b4;stroke:#1f77b4;" x="164.101121" xlink:href="#mfa64818d12" y="197.230455"/>
     <use style="fill:#1f77b4;stroke:#1f77b4;" x="224.391971" xlink:href="#mfa64818d12" y="144.623213"/>
     <use style="fill:#1f77b4;stroke:#1f77b4;" x="133.114428" xlink:href="#mfa64818d12" y="214.710894"/>
     <use style="fill:#1f77b4;stroke:#1f77b4;" x="119.233511" xlink:href="#mfa64818d12" y="233.765683"/>
     <use style="fill:#1f77b4;stroke:#1f77b4;" x="92.593368" xlink:href="#mfa64818d12" y="231.85652"/>
     <use style="fill:#1f77b4;stroke:#1f77b4;" x="224.391971" xlink:href="#mfa64818d12" y="144.625156"/>
     <use style="fill:#1f77b4;stroke:#1f77b4;" x="173.214854" xlink:href="#mfa64818d12" y="196.08369"/>
     <use style="fill:#1f77b4;stroke:#1f77b4;" x="109.27851" xlink:href="#mfa64818d12" y="225.412967"/>
     <use style="fill:#1f77b4;stroke:#1f77b4;" x="136.457065" xlink:href="#mfa64818d12" y="216.373915"/>
     <use style="fill:#1f77b4;stroke:#1f77b4;" x="175.177812" xlink:href="#mfa64818d12" y="200.009708"/>
     <use style="fill:#1f77b4;stroke:#1f77b4;" x="196.349715" xlink:href="#mfa64818d12" y="169.347907"/>
     <use style="fill:#1f77b4;stroke:#1f77b4;" x="113.798922" xlink:href="#mfa64818d12" y="223.894872"/>
     <use style="fill:#1f77b4;stroke:#1f77b4;" x="259.444791" xlink:href="#mfa64818d12" y="142.092934"/>
     <use style="fill:#1f77b4;stroke:#1f77b4;" x="140.265203" xlink:href="#mfa64818d12" y="215.765446"/>
     <use style="fill:#1f77b4;stroke:#1f77b4;" x="147.275767" xlink:href="#mfa64818d12" y="207.097899"/>
     <use style="fill:#1f77b4;stroke:#1f77b4;" x="91.191255" xlink:href="#mfa64818d12" y="231.947419"/>
     <use style="fill:#1f77b4;stroke:#1f77b4;" x="114.886961" xlink:href="#mfa64818d12" y="238.766329"/>
     <use style="fill:#1f77b4;stroke:#1f77b4;" x="116.008651" xlink:href="#mfa64818d12" y="230.796288"/>
     <use style="fill:#1f77b4;stroke:#1f77b4;" x="119.233511" xlink:href="#mfa64818d12" y="223.935677"/>
     <use style="fill:#1f77b4;stroke:#1f77b4;" x="122.037737" xlink:href="#mfa64818d12" y="236.630528"/>
     <use style="fill:#1f77b4;stroke:#1f77b4;" x="120.635624" xlink:href="#mfa64818d12" y="229.145304"/>
     <use style="fill:#1f77b4;stroke:#1f77b4;" x="182.328587" xlink:href="#mfa64818d12" y="174.770966"/>
     <use style="fill:#1f77b4;stroke:#1f77b4;" x="143.069429" xlink:href="#mfa64818d12" y="221.127556"/>
     <use style="fill:#1f77b4;stroke:#1f77b4;" x="109.418721" xlink:href="#mfa64818d12" y="240.159991"/>
     <use style="fill:#1f77b4;stroke:#1f77b4;" x="242.619437" xlink:href="#mfa64818d12" y="159.760007"/>
     <use style="fill:#1f77b4;stroke:#1f77b4;" x="259.444791" xlink:href="#mfa64818d12" y="136.615317"/>
     <use style="fill:#1f77b4;stroke:#1f77b4;" x="108.016609" xlink:href="#mfa64818d12" y="233.632461"/>
     <use style="fill:#1f77b4;stroke:#1f77b4;" x="147.275767" xlink:href="#mfa64818d12" y="200.225435"/>
     <use style="fill:#1f77b4;stroke:#1f77b4;" x="179.524361" xlink:href="#mfa64818d12" y="178.211262"/>
     <use style="fill:#1f77b4;stroke:#1f77b4;" x="182.328587" xlink:href="#mfa64818d12" y="178.220977"/>
     <use style="fill:#1f77b4;stroke:#1f77b4;" x="145.206248" xlink:href="#mfa64818d12" y="212.375906"/>
     <use style="fill:#1f77b4;stroke:#1f77b4;" x="355.769941" xlink:href="#mfa64818d12" y="54.709695"/>
     <use style="fill:#1f77b4;stroke:#1f77b4;" x="371.613815" xlink:href="#mfa64818d12" y="66.202027"/>
     <use style="fill:#1f77b4;stroke:#1f77b4;" x="91.191255" xlink:href="#mfa64818d12" y="225.365473"/>
     <use style="fill:#1f77b4;stroke:#1f77b4;" x="189.339151" xlink:href="#mfa64818d12" y="184.799993"/>
     <use style="fill:#1f77b4;stroke:#1f77b4;" x="312.024021" xlink:href="#mfa64818d12" y="116.582877"/>
     <use style="fill:#1f77b4;stroke:#1f77b4;" x="105.072172" xlink:href="#mfa64818d12" y="225.40228"/>
     <use style="fill:#1f77b4;stroke:#1f77b4;" x="168.307459" xlink:href="#mfa64818d12" y="191.36377"/>
     <use style="fill:#1f77b4;stroke:#1f77b4;" x="98.201819" xlink:href="#mfa64818d12" y="235.421021"/>
     <use style="fill:#1f77b4;stroke:#1f77b4;" x="266.315144" xlink:href="#mfa64818d12" y="136.619203"/>
     <use style="fill:#1f77b4;stroke:#1f77b4;" x="109.418721" xlink:href="#mfa64818d12" y="219.261779"/>
     <use style="fill:#1f77b4;stroke:#1f77b4;" x="84.180691" xlink:href="#mfa64818d12" y="231.349759"/>
     <use style="fill:#1f77b4;stroke:#1f77b4;" x="315.529303" xlink:href="#mfa64818d12" y="78.594646"/>
     <use style="fill:#1f77b4;stroke:#1f77b4;" x="119.006369" xlink:href="#mfa64818d12" y="240.276601"/>
     <use style="fill:#1f77b4;stroke:#1f77b4;" x="120.635624" xlink:href="#mfa64818d12" y="218.003486"/>
     <use style="fill:#1f77b4;stroke:#1f77b4;" x="308.518739" xlink:href="#mfa64818d12" y="116.577048"/>
     <use style="fill:#1f77b4;stroke:#1f77b4;" x="196.349715" xlink:href="#mfa64818d12" y="165.70514"/>
     <use style="fill:#1f77b4;stroke:#1f77b4;" x="110.820834" xlink:href="#mfa64818d12" y="223.37928"/>
     <use style="fill:#1f77b4;stroke:#1f77b4;" x="116.429285" xlink:href="#mfa64818d12" y="234.140073"/>
     <use style="fill:#1f77b4;stroke:#1f77b4;" x="210.230632" xlink:href="#mfa64818d12" y="152.097192"/>
     <use style="fill:#1f77b4;stroke:#1f77b4;" x="214.43697" xlink:href="#mfa64818d12" y="153.091649"/>
     <use style="fill:#1f77b4;stroke:#1f77b4;" x="112.222947" xlink:href="#mfa64818d12" y="228.625247"/>
     <use style="fill:#1f77b4;stroke:#1f77b4;" x="213.876125" xlink:href="#mfa64818d12" y="173.393812"/>
     <use style="fill:#1f77b4;stroke:#1f77b4;" x="172.513797" xlink:href="#mfa64818d12" y="196.081746"/>
     <use style="fill:#1f77b4;stroke:#1f77b4;" x="131.852526" xlink:href="#mfa64818d12" y="213.909799"/>
     <use style="fill:#1f77b4;stroke:#1f77b4;" x="89.789142" xlink:href="#mfa64818d12" y="227.126401"/>
     <use style="fill:#1f77b4;stroke:#1f77b4;" x="105.212383" xlink:href="#mfa64818d12" y="235.457876"/>
     <use style="fill:#1f77b4;stroke:#1f77b4;" x="180.155312" xlink:href="#mfa64818d12" y="200.003879"/>
     <use style="fill:#1f77b4;stroke:#1f77b4;" x="155.688444" xlink:href="#mfa64818d12" y="206.958566"/>
     <use style="fill:#1f77b4;stroke:#1f77b4;" x="194.246546" xlink:href="#mfa64818d12" y="148.130743"/>
     <use style="fill:#1f77b4;stroke:#1f77b4;" x="350.582123" xlink:href="#mfa64818d12" y="51.911311"/>
     <use style="fill:#1f77b4;stroke:#1f77b4;" x="262.950073" xlink:href="#mfa64818d12" y="142.086134"/>
     <use style="fill:#1f77b4;stroke:#1f77b4;" x="96.799706" xlink:href="#mfa64818d12" y="231.882137"/>
     <use style="fill:#1f77b4;stroke:#1f77b4;" x="217.381407" xlink:href="#mfa64818d12" y="146.842721"/>
     <use style="fill:#1f77b4;stroke:#1f77b4;" x="138.86309" xlink:href="#mfa64818d12" y="228.266017"/>
     <use style="fill:#1f77b4;stroke:#1f77b4;" x="357.592687" xlink:href="#mfa64818d12" y="73.618954"/>
     <use style="fill:#1f77b4;stroke:#1f77b4;" x="146.574711" xlink:href="#mfa64818d12" y="200.221549"/>
     <use style="fill:#1f77b4;stroke:#1f77b4;" x="111.460198" xlink:href="#mfa64818d12" y="219.299441"/>
     <use style="fill:#1f77b4;stroke:#1f77b4;" x="378.624379" xlink:href="#mfa64818d12" y="61.866474"/>
     <use style="fill:#1f77b4;stroke:#1f77b4;" x="98.201819" xlink:href="#mfa64818d12" y="239.427166"/>
     <use style="fill:#1f77b4;stroke:#1f77b4;" x="98.061608" xlink:href="#mfa64818d12" y="226.704958"/>
     <use style="fill:#1f77b4;stroke:#1f77b4;" x="96.09865" xlink:href="#mfa64818d12" y="235.434622"/>
     <use style="fill:#1f77b4;stroke:#1f77b4;" x="164.802177" xlink:href="#mfa64818d12" y="201.220761"/>
     <use style="fill:#1f77b4;stroke:#1f77b4;" x="148.67788" xlink:href="#mfa64818d12" y="205.14487"/>
     <use style="fill:#1f77b4;stroke:#1f77b4;" x="105.212383" xlink:href="#mfa64818d12" y="238.315718"/>
     <use style="fill:#1f77b4;stroke:#1f77b4;" x="168.307459" xlink:href="#mfa64818d12" y="196.364262"/>
     <use style="fill:#1f77b4;stroke:#1f77b4;" x="113.62506" xlink:href="#mfa64818d12" y="231.524615"/>
     <use style="fill:#1f77b4;stroke:#1f77b4;" x="105.212383" xlink:href="#mfa64818d12" y="227.200264"/>
     <use style="fill:#1f77b4;stroke:#1f77b4;" x="137.460977" xlink:href="#mfa64818d12" y="214.729473"/>
     <use style="fill:#1f77b4;stroke:#1f77b4;" x="105.212383" xlink:href="#mfa64818d12" y="242.838487"/>
     <use style="fill:#1f77b4;stroke:#1f77b4;" x="193.545489" xlink:href="#mfa64818d12" y="148.129772"/>
     <use style="fill:#1f77b4;stroke:#1f77b4;" x="185.833869" xlink:href="#mfa64818d12" y="174.775824"/>
     <use style="fill:#1f77b4;stroke:#1f77b4;" x="164.802177" xlink:href="#mfa64818d12" y="207.922678"/>
     <use style="fill:#1f77b4;stroke:#1f77b4;" x="129.749357" xlink:href="#mfa64818d12" y="214.691464"/>
     <use style="fill:#1f77b4;stroke:#1f77b4;" x="196.209504" xlink:href="#mfa64818d12" y="169.330419"/>
     <use style="fill:#1f77b4;stroke:#1f77b4;" x="103.179319" xlink:href="#mfa64818d12" y="231.463222"/>
     <use style="fill:#1f77b4;stroke:#1f77b4;" x="220.185633" xlink:href="#mfa64818d12" y="148.043626"/>
     <use style="fill:#1f77b4;stroke:#1f77b4;" x="126.244075" xlink:href="#mfa64818d12" y="233.775398"/>
     <use style="fill:#1f77b4;stroke:#1f77b4;" x="119.233511" xlink:href="#mfa64818d12" y="223.194406"/>
     <use style="fill:#1f77b4;stroke:#1f77b4;" x="378.624379" xlink:href="#mfa64818d12" y="61.871331"/>
     <use style="fill:#1f77b4;stroke:#1f77b4;" x="105.212383" xlink:href="#mfa64818d12" y="233.626632"/>
     <use style="fill:#1f77b4;stroke:#1f77b4;" x="194.246546" xlink:href="#mfa64818d12" y="184.796107"/>
     <use style="fill:#1f77b4;stroke:#1f77b4;" x="99.323509" xlink:href="#mfa64818d12" y="225.796584"/>
     <use style="fill:#1f77b4;stroke:#1f77b4;" x="115.027173" xlink:href="#mfa64818d12" y="230.594196"/>
     <use style="fill:#1f77b4;stroke:#1f77b4;" x="325.344093" xlink:href="#mfa64818d12" y="107.175741"/>
     <use style="fill:#1f77b4;stroke:#1f77b4;" x="224.427024" xlink:href="#mfa64818d12" y="153.914394"/>
     <use style="fill:#1f77b4;stroke:#1f77b4;" x="81.376465" xlink:href="#mfa64818d12" y="231.35656"/>
     <use style="fill:#1f77b4;stroke:#1f77b4;" x="213.876125" xlink:href="#mfa64818d12" y="173.388954"/>
    </g>
   </g>
   <g id="matplotlib.axis_1">
    <g id="xtick_1">
     <g id="line2d_1">
      <defs>
       <path d="M 0 0 
L 0 3.5 
" id="mdda1240308" style="stroke:#000000;stroke-width:0.8;"/>
      </defs>
      <g>
       <use style="stroke:#000000;stroke-width:0.8;" x="77.170127" xlink:href="#mdda1240308" y="253.44"/>
      </g>
     </g>
     <g id="text_1">
      <!-- 150000 -->
      <defs>
       <path d="M 12.40625 8.296875 
L 28.515625 8.296875 
L 28.515625 63.921875 
L 10.984375 60.40625 
L 10.984375 69.390625 
L 28.421875 72.90625 
L 38.28125 72.90625 
L 38.28125 8.296875 
L 54.390625 8.296875 
L 54.390625 0 
L 12.40625 0 
z
" id="DejaVuSans-49"/>
       <path d="M 10.796875 72.90625 
L 49.515625 72.90625 
L 49.515625 64.59375 
L 19.828125 64.59375 
L 19.828125 46.734375 
Q 21.96875 47.46875 24.109375 47.828125 
Q 26.265625 48.1875 28.421875 48.1875 
Q 40.625 48.1875 47.75 41.5 
Q 54.890625 34.8125 54.890625 23.390625 
Q 54.890625 11.625 47.5625 5.09375 
Q 40.234375 -1.421875 26.90625 -1.421875 
Q 22.3125 -1.421875 17.546875 -0.640625 
Q 12.796875 0.140625 7.71875 1.703125 
L 7.71875 11.625 
Q 12.109375 9.234375 16.796875 8.0625 
Q 21.484375 6.890625 26.703125 6.890625 
Q 35.15625 6.890625 40.078125 11.328125 
Q 45.015625 15.765625 45.015625 23.390625 
Q 45.015625 31 40.078125 35.4375 
Q 35.15625 39.890625 26.703125 39.890625 
Q 22.75 39.890625 18.8125 39.015625 
Q 14.890625 38.140625 10.796875 36.28125 
z
" id="DejaVuSans-53"/>
       <path d="M 31.78125 66.40625 
Q 24.171875 66.40625 20.328125 58.90625 
Q 16.5 51.421875 16.5 36.375 
Q 16.5 21.390625 20.328125 13.890625 
Q 24.171875 6.390625 31.78125 6.390625 
Q 39.453125 6.390625 43.28125 13.890625 
Q 47.125 21.390625 47.125 36.375 
Q 47.125 51.421875 43.28125 58.90625 
Q 39.453125 66.40625 31.78125 66.40625 
z
M 31.78125 74.21875 
Q 44.046875 74.21875 50.515625 64.515625 
Q 56.984375 54.828125 56.984375 36.375 
Q 56.984375 17.96875 50.515625 8.265625 
Q 44.046875 -1.421875 31.78125 -1.421875 
Q 19.53125 -1.421875 13.0625 8.265625 
Q 6.59375 17.96875 6.59375 36.375 
Q 6.59375 54.828125 13.0625 64.515625 
Q 19.53125 74.21875 31.78125 74.21875 
z
" id="DejaVuSans-48"/>
      </defs>
      <g transform="translate(58.082627 268.038437)scale(0.1 -0.1)">
       <use xlink:href="#DejaVuSans-49"/>
       <use x="63.623047" xlink:href="#DejaVuSans-53"/>
       <use x="127.246094" xlink:href="#DejaVuSans-48"/>
       <use x="190.869141" xlink:href="#DejaVuSans-48"/>
       <use x="254.492188" xlink:href="#DejaVuSans-48"/>
       <use x="318.115234" xlink:href="#DejaVuSans-48"/>
      </g>
     </g>
    </g>
    <g id="xtick_2">
     <g id="line2d_2">
      <g>
       <use style="stroke:#000000;stroke-width:0.8;" x="147.275767" xlink:href="#mdda1240308" y="253.44"/>
      </g>
     </g>
     <g id="text_2">
      <!-- 200000 -->
      <defs>
       <path d="M 19.1875 8.296875 
L 53.609375 8.296875 
L 53.609375 0 
L 7.328125 0 
L 7.328125 8.296875 
Q 12.9375 14.109375 22.625 23.890625 
Q 32.328125 33.6875 34.8125 36.53125 
Q 39.546875 41.84375 41.421875 45.53125 
Q 43.3125 49.21875 43.3125 52.78125 
Q 43.3125 58.59375 39.234375 62.25 
Q 35.15625 65.921875 28.609375 65.921875 
Q 23.96875 65.921875 18.8125 64.3125 
Q 13.671875 62.703125 7.8125 59.421875 
L 7.8125 69.390625 
Q 13.765625 71.78125 18.9375 73 
Q 24.125 74.21875 28.421875 74.21875 
Q 39.75 74.21875 46.484375 68.546875 
Q 53.21875 62.890625 53.21875 53.421875 
Q 53.21875 48.921875 51.53125 44.890625 
Q 49.859375 40.875 45.40625 35.40625 
Q 44.1875 33.984375 37.640625 27.21875 
Q 31.109375 20.453125 19.1875 8.296875 
z
" id="DejaVuSans-50"/>
      </defs>
      <g transform="translate(128.188267 268.038437)scale(0.1 -0.1)">
       <use xlink:href="#DejaVuSans-50"/>
       <use x="63.623047" xlink:href="#DejaVuSans-48"/>
       <use x="127.246094" xlink:href="#DejaVuSans-48"/>
       <use x="190.869141" xlink:href="#DejaVuSans-48"/>
       <use x="254.492188" xlink:href="#DejaVuSans-48"/>
       <use x="318.115234" xlink:href="#DejaVuSans-48"/>
      </g>
     </g>
    </g>
    <g id="xtick_3">
     <g id="line2d_3">
      <g>
       <use style="stroke:#000000;stroke-width:0.8;" x="217.381407" xlink:href="#mdda1240308" y="253.44"/>
      </g>
     </g>
     <g id="text_3">
      <!-- 250000 -->
      <g transform="translate(198.293907 268.038437)scale(0.1 -0.1)">
       <use xlink:href="#DejaVuSans-50"/>
       <use x="63.623047" xlink:href="#DejaVuSans-53"/>
       <use x="127.246094" xlink:href="#DejaVuSans-48"/>
       <use x="190.869141" xlink:href="#DejaVuSans-48"/>
       <use x="254.492188" xlink:href="#DejaVuSans-48"/>
       <use x="318.115234" xlink:href="#DejaVuSans-48"/>
      </g>
     </g>
    </g>
    <g id="xtick_4">
     <g id="line2d_4">
      <g>
       <use style="stroke:#000000;stroke-width:0.8;" x="287.487047" xlink:href="#mdda1240308" y="253.44"/>
      </g>
     </g>
     <g id="text_4">
      <!-- 300000 -->
      <defs>
       <path d="M 40.578125 39.3125 
Q 47.65625 37.796875 51.625 33 
Q 55.609375 28.21875 55.609375 21.1875 
Q 55.609375 10.40625 48.1875 4.484375 
Q 40.765625 -1.421875 27.09375 -1.421875 
Q 22.515625 -1.421875 17.65625 -0.515625 
Q 12.796875 0.390625 7.625 2.203125 
L 7.625 11.71875 
Q 11.71875 9.328125 16.59375 8.109375 
Q 21.484375 6.890625 26.8125 6.890625 
Q 36.078125 6.890625 40.9375 10.546875 
Q 45.796875 14.203125 45.796875 21.1875 
Q 45.796875 27.640625 41.28125 31.265625 
Q 36.765625 34.90625 28.71875 34.90625 
L 20.21875 34.90625 
L 20.21875 43.015625 
L 29.109375 43.015625 
Q 36.375 43.015625 40.234375 45.921875 
Q 44.09375 48.828125 44.09375 54.296875 
Q 44.09375 59.90625 40.109375 62.90625 
Q 36.140625 65.921875 28.71875 65.921875 
Q 24.65625 65.921875 20.015625 65.03125 
Q 15.375 64.15625 9.8125 62.3125 
L 9.8125 71.09375 
Q 15.4375 72.65625 20.34375 73.4375 
Q 25.25 74.21875 29.59375 74.21875 
Q 40.828125 74.21875 47.359375 69.109375 
Q 53.90625 64.015625 53.90625 55.328125 
Q 53.90625 49.265625 50.4375 45.09375 
Q 46.96875 40.921875 40.578125 39.3125 
z
" id="DejaVuSans-51"/>
      </defs>
      <g transform="translate(268.399547 268.038437)scale(0.1 -0.1)">
       <use xlink:href="#DejaVuSans-51"/>
       <use x="63.623047" xlink:href="#DejaVuSans-48"/>
       <use x="127.246094" xlink:href="#DejaVuSans-48"/>
       <use x="190.869141" xlink:href="#DejaVuSans-48"/>
       <use x="254.492188" xlink:href="#DejaVuSans-48"/>
       <use x="318.115234" xlink:href="#DejaVuSans-48"/>
      </g>
     </g>
    </g>
    <g id="xtick_5">
     <g id="line2d_5">
      <g>
       <use style="stroke:#000000;stroke-width:0.8;" x="357.592687" xlink:href="#mdda1240308" y="253.44"/>
      </g>
     </g>
     <g id="text_5">
      <!-- 350000 -->
      <g transform="translate(338.505187 268.038437)scale(0.1 -0.1)">
       <use xlink:href="#DejaVuSans-51"/>
       <use x="63.623047" xlink:href="#DejaVuSans-53"/>
       <use x="127.246094" xlink:href="#DejaVuSans-48"/>
       <use x="190.869141" xlink:href="#DejaVuSans-48"/>
       <use x="254.492188" xlink:href="#DejaVuSans-48"/>
       <use x="318.115234" xlink:href="#DejaVuSans-48"/>
      </g>
     </g>
    </g>
    <g id="text_6">
     <!-- Actual -->
     <defs>
      <path d="M 34.1875 63.1875 
L 20.796875 26.90625 
L 47.609375 26.90625 
z
M 28.609375 72.90625 
L 39.796875 72.90625 
L 67.578125 0 
L 57.328125 0 
L 50.6875 18.703125 
L 17.828125 18.703125 
L 11.1875 0 
L 0.78125 0 
z
" id="DejaVuSans-65"/>
      <path d="M 48.78125 52.59375 
L 48.78125 44.1875 
Q 44.96875 46.296875 41.140625 47.34375 
Q 37.3125 48.390625 33.40625 48.390625 
Q 24.65625 48.390625 19.8125 42.84375 
Q 14.984375 37.3125 14.984375 27.296875 
Q 14.984375 17.28125 19.8125 11.734375 
Q 24.65625 6.203125 33.40625 6.203125 
Q 37.3125 6.203125 41.140625 7.25 
Q 44.96875 8.296875 48.78125 10.40625 
L 48.78125 2.09375 
Q 45.015625 0.34375 40.984375 -0.53125 
Q 36.96875 -1.421875 32.421875 -1.421875 
Q 20.0625 -1.421875 12.78125 6.34375 
Q 5.515625 14.109375 5.515625 27.296875 
Q 5.515625 40.671875 12.859375 48.328125 
Q 20.21875 56 33.015625 56 
Q 37.15625 56 41.109375 55.140625 
Q 45.0625 54.296875 48.78125 52.59375 
z
" id="DejaVuSans-99"/>
      <path d="M 18.3125 70.21875 
L 18.3125 54.6875 
L 36.8125 54.6875 
L 36.8125 47.703125 
L 18.3125 47.703125 
L 18.3125 18.015625 
Q 18.3125 11.328125 20.140625 9.421875 
Q 21.96875 7.515625 27.59375 7.515625 
L 36.8125 7.515625 
L 36.8125 0 
L 27.59375 0 
Q 17.1875 0 13.234375 3.875 
Q 9.28125 7.765625 9.28125 18.015625 
L 9.28125 47.703125 
L 2.6875 47.703125 
L 2.6875 54.6875 
L 9.28125 54.6875 
L 9.28125 70.21875 
z
" id="DejaVuSans-116"/>
      <path d="M 8.5 21.578125 
L 8.5 54.6875 
L 17.484375 54.6875 
L 17.484375 21.921875 
Q 17.484375 14.15625 20.5 10.265625 
Q 23.53125 6.390625 29.59375 6.390625 
Q 36.859375 6.390625 41.078125 11.03125 
Q 45.3125 15.671875 45.3125 23.6875 
L 45.3125 54.6875 
L 54.296875 54.6875 
L 54.296875 0 
L 45.3125 0 
L 45.3125 8.40625 
Q 42.046875 3.421875 37.71875 1 
Q 33.40625 -1.421875 27.6875 -1.421875 
Q 18.265625 -1.421875 13.375 4.4375 
Q 8.5 10.296875 8.5 21.578125 
z
M 31.109375 56 
z
" id="DejaVuSans-117"/>
      <path d="M 34.28125 27.484375 
Q 23.390625 27.484375 19.1875 25 
Q 14.984375 22.515625 14.984375 16.5 
Q 14.984375 11.71875 18.140625 8.90625 
Q 21.296875 6.109375 26.703125 6.109375 
Q 34.1875 6.109375 38.703125 11.40625 
Q 43.21875 16.703125 43.21875 25.484375 
L 43.21875 27.484375 
z
M 52.203125 31.203125 
L 52.203125 0 
L 43.21875 0 
L 43.21875 8.296875 
Q 40.140625 3.328125 35.546875 0.953125 
Q 30.953125 -1.421875 24.3125 -1.421875 
Q 15.921875 -1.421875 10.953125 3.296875 
Q 6 8.015625 6 15.921875 
Q 6 25.140625 12.171875 29.828125 
Q 18.359375 34.515625 30.609375 34.515625 
L 43.21875 34.515625 
L 43.21875 35.40625 
Q 43.21875 41.609375 39.140625 45 
Q 35.0625 48.390625 27.6875 48.390625 
Q 23 48.390625 18.546875 47.265625 
Q 14.109375 46.140625 10.015625 43.890625 
L 10.015625 52.203125 
Q 14.9375 54.109375 19.578125 55.046875 
Q 24.21875 56 28.609375 56 
Q 40.484375 56 46.34375 49.84375 
Q 52.203125 43.703125 52.203125 31.203125 
z
" id="DejaVuSans-97"/>
      <path d="M 9.421875 75.984375 
L 18.40625 75.984375 
L 18.40625 0 
L 9.421875 0 
z
" id="DejaVuSans-108"/>
     </defs>
     <g transform="translate(217.789062 281.716562)scale(0.1 -0.1)">
      <use xlink:href="#DejaVuSans-65"/>
      <use x="66.658203" xlink:href="#DejaVuSans-99"/>
      <use x="121.638672" xlink:href="#DejaVuSans-116"/>
      <use x="160.847656" xlink:href="#DejaVuSans-117"/>
      <use x="224.226562" xlink:href="#DejaVuSans-97"/>
      <use x="285.505859" xlink:href="#DejaVuSans-108"/>
     </g>
    </g>
   </g>
   <g id="matplotlib.axis_2">
    <g id="ytick_1">
     <g id="line2d_6">
      <defs>
       <path d="M 0 0 
L -3.5 0 
" id="m57313060fd" style="stroke:#000000;stroke-width:0.8;"/>
      </defs>
      <g>
       <use style="stroke:#000000;stroke-width:0.8;" x="66.053125" xlink:href="#m57313060fd" y="206.27519"/>
      </g>
     </g>
     <g id="text_7">
      <!-- 200000 -->
      <g transform="translate(20.878125 210.074409)scale(0.1 -0.1)">
       <use xlink:href="#DejaVuSans-50"/>
       <use x="63.623047" xlink:href="#DejaVuSans-48"/>
       <use x="127.246094" xlink:href="#DejaVuSans-48"/>
       <use x="190.869141" xlink:href="#DejaVuSans-48"/>
       <use x="254.492188" xlink:href="#DejaVuSans-48"/>
       <use x="318.115234" xlink:href="#DejaVuSans-48"/>
      </g>
     </g>
    </g>
    <g id="ytick_2">
     <g id="line2d_7">
      <g>
       <use style="stroke:#000000;stroke-width:0.8;" x="66.053125" xlink:href="#m57313060fd" y="159.004273"/>
      </g>
     </g>
     <g id="text_8">
      <!-- 250000 -->
      <g transform="translate(20.878125 162.803491)scale(0.1 -0.1)">
       <use xlink:href="#DejaVuSans-50"/>
       <use x="63.623047" xlink:href="#DejaVuSans-53"/>
       <use x="127.246094" xlink:href="#DejaVuSans-48"/>
       <use x="190.869141" xlink:href="#DejaVuSans-48"/>
       <use x="254.492188" xlink:href="#DejaVuSans-48"/>
       <use x="318.115234" xlink:href="#DejaVuSans-48"/>
      </g>
     </g>
    </g>
    <g id="ytick_3">
     <g id="line2d_8">
      <g>
       <use style="stroke:#000000;stroke-width:0.8;" x="66.053125" xlink:href="#m57313060fd" y="111.733355"/>
      </g>
     </g>
     <g id="text_9">
      <!-- 300000 -->
      <g transform="translate(20.878125 115.532574)scale(0.1 -0.1)">
       <use xlink:href="#DejaVuSans-51"/>
       <use x="63.623047" xlink:href="#DejaVuSans-48"/>
       <use x="127.246094" xlink:href="#DejaVuSans-48"/>
       <use x="190.869141" xlink:href="#DejaVuSans-48"/>
       <use x="254.492188" xlink:href="#DejaVuSans-48"/>
       <use x="318.115234" xlink:href="#DejaVuSans-48"/>
      </g>
     </g>
    </g>
    <g id="ytick_4">
     <g id="line2d_9">
      <g>
       <use style="stroke:#000000;stroke-width:0.8;" x="66.053125" xlink:href="#m57313060fd" y="64.462437"/>
      </g>
     </g>
     <g id="text_10">
      <!-- 350000 -->
      <g transform="translate(20.878125 68.261656)scale(0.1 -0.1)">
       <use xlink:href="#DejaVuSans-51"/>
       <use x="63.623047" xlink:href="#DejaVuSans-53"/>
       <use x="127.246094" xlink:href="#DejaVuSans-48"/>
       <use x="190.869141" xlink:href="#DejaVuSans-48"/>
       <use x="254.492188" xlink:href="#DejaVuSans-48"/>
       <use x="318.115234" xlink:href="#DejaVuSans-48"/>
      </g>
     </g>
    </g>
    <g id="text_11">
     <!-- Prediction -->
     <defs>
      <path d="M 19.671875 64.796875 
L 19.671875 37.40625 
L 32.078125 37.40625 
Q 38.96875 37.40625 42.71875 40.96875 
Q 46.484375 44.53125 46.484375 51.125 
Q 46.484375 57.671875 42.71875 61.234375 
Q 38.96875 64.796875 32.078125 64.796875 
z
M 9.8125 72.90625 
L 32.078125 72.90625 
Q 44.34375 72.90625 50.609375 67.359375 
Q 56.890625 61.8125 56.890625 51.125 
Q 56.890625 40.328125 50.609375 34.8125 
Q 44.34375 29.296875 32.078125 29.296875 
L 19.671875 29.296875 
L 19.671875 0 
L 9.8125 0 
z
" id="DejaVuSans-80"/>
      <path d="M 41.109375 46.296875 
Q 39.59375 47.171875 37.8125 47.578125 
Q 36.03125 48 33.890625 48 
Q 26.265625 48 22.1875 43.046875 
Q 18.109375 38.09375 18.109375 28.8125 
L 18.109375 0 
L 9.078125 0 
L 9.078125 54.6875 
L 18.109375 54.6875 
L 18.109375 46.1875 
Q 20.953125 51.171875 25.484375 53.578125 
Q 30.03125 56 36.53125 56 
Q 37.453125 56 38.578125 55.875 
Q 39.703125 55.765625 41.0625 55.515625 
z
" id="DejaVuSans-114"/>
      <path d="M 56.203125 29.59375 
L 56.203125 25.203125 
L 14.890625 25.203125 
Q 15.484375 15.921875 20.484375 11.0625 
Q 25.484375 6.203125 34.421875 6.203125 
Q 39.59375 6.203125 44.453125 7.46875 
Q 49.3125 8.734375 54.109375 11.28125 
L 54.109375 2.78125 
Q 49.265625 0.734375 44.1875 -0.34375 
Q 39.109375 -1.421875 33.890625 -1.421875 
Q 20.796875 -1.421875 13.15625 6.1875 
Q 5.515625 13.8125 5.515625 26.8125 
Q 5.515625 40.234375 12.765625 48.109375 
Q 20.015625 56 32.328125 56 
Q 43.359375 56 49.78125 48.890625 
Q 56.203125 41.796875 56.203125 29.59375 
z
M 47.21875 32.234375 
Q 47.125 39.59375 43.09375 43.984375 
Q 39.0625 48.390625 32.421875 48.390625 
Q 24.90625 48.390625 20.390625 44.140625 
Q 15.875 39.890625 15.1875 32.171875 
z
" id="DejaVuSans-101"/>
      <path d="M 45.40625 46.390625 
L 45.40625 75.984375 
L 54.390625 75.984375 
L 54.390625 0 
L 45.40625 0 
L 45.40625 8.203125 
Q 42.578125 3.328125 38.25 0.953125 
Q 33.9375 -1.421875 27.875 -1.421875 
Q 17.96875 -1.421875 11.734375 6.484375 
Q 5.515625 14.40625 5.515625 27.296875 
Q 5.515625 40.1875 11.734375 48.09375 
Q 17.96875 56 27.875 56 
Q 33.9375 56 38.25 53.625 
Q 42.578125 51.265625 45.40625 46.390625 
z
M 14.796875 27.296875 
Q 14.796875 17.390625 18.875 11.75 
Q 22.953125 6.109375 30.078125 6.109375 
Q 37.203125 6.109375 41.296875 11.75 
Q 45.40625 17.390625 45.40625 27.296875 
Q 45.40625 37.203125 41.296875 42.84375 
Q 37.203125 48.484375 30.078125 48.484375 
Q 22.953125 48.484375 18.875 42.84375 
Q 14.796875 37.203125 14.796875 27.296875 
z
" id="DejaVuSans-100"/>
      <path d="M 9.421875 54.6875 
L 18.40625 54.6875 
L 18.40625 0 
L 9.421875 0 
z
M 9.421875 75.984375 
L 18.40625 75.984375 
L 18.40625 64.59375 
L 9.421875 64.59375 
z
" id="DejaVuSans-105"/>
      <path d="M 30.609375 48.390625 
Q 23.390625 48.390625 19.1875 42.75 
Q 14.984375 37.109375 14.984375 27.296875 
Q 14.984375 17.484375 19.15625 11.84375 
Q 23.34375 6.203125 30.609375 6.203125 
Q 37.796875 6.203125 41.984375 11.859375 
Q 46.1875 17.53125 46.1875 27.296875 
Q 46.1875 37.015625 41.984375 42.703125 
Q 37.796875 48.390625 30.609375 48.390625 
z
M 30.609375 56 
Q 42.328125 56 49.015625 48.375 
Q 55.71875 40.765625 55.71875 27.296875 
Q 55.71875 13.875 49.015625 6.21875 
Q 42.328125 -1.421875 30.609375 -1.421875 
Q 18.84375 -1.421875 12.171875 6.21875 
Q 5.515625 13.875 5.515625 27.296875 
Q 5.515625 40.765625 12.171875 48.375 
Q 18.84375 56 30.609375 56 
z
" id="DejaVuSans-111"/>
      <path d="M 54.890625 33.015625 
L 54.890625 0 
L 45.90625 0 
L 45.90625 32.71875 
Q 45.90625 40.484375 42.875 44.328125 
Q 39.84375 48.1875 33.796875 48.1875 
Q 26.515625 48.1875 22.3125 43.546875 
Q 18.109375 38.921875 18.109375 30.90625 
L 18.109375 0 
L 9.078125 0 
L 9.078125 54.6875 
L 18.109375 54.6875 
L 18.109375 46.1875 
Q 21.34375 51.125 25.703125 53.5625 
Q 30.078125 56 35.796875 56 
Q 45.21875 56 50.046875 50.171875 
Q 54.890625 44.34375 54.890625 33.015625 
z
" id="DejaVuSans-110"/>
     </defs>
     <g transform="translate(14.798438 169.556719)rotate(-90)scale(0.1 -0.1)">
      <use xlink:href="#DejaVuSans-80"/>
      <use x="58.552734" xlink:href="#DejaVuSans-114"/>
      <use x="97.416016" xlink:href="#DejaVuSans-101"/>
      <use x="158.939453" xlink:href="#DejaVuSans-100"/>
      <use x="222.416016" xlink:href="#DejaVuSans-105"/>
      <use x="250.199219" xlink:href="#DejaVuSans-99"/>
      <use x="305.179688" xlink:href="#DejaVuSans-116"/>
      <use x="344.388672" xlink:href="#DejaVuSans-105"/>
      <use x="372.171875" xlink:href="#DejaVuSans-111"/>
      <use x="433.353516" xlink:href="#DejaVuSans-110"/>
     </g>
    </g>
   </g>
   <g id="patch_3">
    <path d="M 66.053125 253.44 
L 66.053125 36 
" style="fill:none;stroke:#000000;stroke-linecap:square;stroke-linejoin:miter;stroke-width:0.8;"/>
   </g>
   <g id="patch_4">
    <path d="M 400.853125 253.44 
L 400.853125 36 
" style="fill:none;stroke:#000000;stroke-linecap:square;stroke-linejoin:miter;stroke-width:0.8;"/>
   </g>
   <g id="patch_5">
    <path d="M 66.053125 253.44 
L 400.853125 253.44 
" style="fill:none;stroke:#000000;stroke-linecap:square;stroke-linejoin:miter;stroke-width:0.8;"/>
   </g>
   <g id="patch_6">
    <path d="M 66.053125 36 
L 400.853125 36 
" style="fill:none;stroke:#000000;stroke-linecap:square;stroke-linejoin:miter;stroke-width:0.8;"/>
   </g>
   <g id="text_12">
    <!-- Source: FRED and Zillow -->
    <defs>
     <path d="M 60.296875 70.515625 
L 58.40625 60.890625 
Q 53.46875 63.53125 48.609375 64.875 
Q 43.75 66.21875 39.203125 66.21875 
Q 30.375 66.21875 25.140625 62.359375 
Q 19.921875 58.5 19.921875 52.09375 
Q 19.921875 48.578125 21.84375 46.703125 
Q 23.78125 44.828125 31.78125 42.671875 
L 37.703125 41.21875 
Q 47.703125 38.625 51.609375 34.640625 
Q 55.515625 30.671875 55.515625 23.484375 
Q 55.515625 12.453125 46.84375 5.515625 
Q 38.1875 -1.421875 24.03125 -1.421875 
Q 18.21875 -1.421875 12.359375 -0.265625 
Q 6.5 0.875 0.59375 3.21875 
L 2.59375 13.375 
Q 8.015625 10.015625 13.453125 8.296875 
Q 18.890625 6.59375 24.3125 6.59375 
Q 33.546875 6.59375 39.109375 10.6875 
Q 44.671875 14.796875 44.671875 21.390625 
Q 44.671875 25.78125 42.453125 28.046875 
Q 40.234375 30.328125 32.90625 32.171875 
L 27 33.6875 
Q 16.890625 36.328125 13.203125 39.765625 
Q 9.515625 43.21875 9.515625 49.421875 
Q 9.515625 60.296875 17.890625 67.25 
Q 26.265625 74.21875 39.703125 74.21875 
Q 44.921875 74.21875 50.046875 73.28125 
Q 55.171875 72.359375 60.296875 70.515625 
z
" id="DejaVuSans-Oblique-83"/>
     <path d="M 25.390625 -1.421875 
Q 15.765625 -1.421875 10.171875 4.515625 
Q 4.59375 10.453125 4.59375 20.703125 
Q 4.59375 26.65625 6.515625 32.828125 
Q 8.453125 39.015625 11.53125 43.21875 
Q 16.359375 49.75 22.3125 52.875 
Q 28.265625 56 35.796875 56 
Q 45.125 56 50.859375 50.1875 
Q 56.59375 44.390625 56.59375 35.015625 
Q 56.59375 28.515625 54.6875 22.0625 
Q 52.78125 15.625 49.703125 11.375 
Q 44.921875 4.828125 38.96875 1.703125 
Q 33.015625 -1.421875 25.390625 -1.421875 
z
M 13.921875 21 
Q 13.921875 13.578125 17.015625 9.890625 
Q 20.125 6.203125 26.421875 6.203125 
Q 35.453125 6.203125 41.375 14.078125 
Q 47.3125 21.96875 47.3125 34.078125 
Q 47.3125 41.15625 44.140625 44.765625 
Q 40.96875 48.390625 34.8125 48.390625 
Q 29.734375 48.390625 25.78125 46.015625 
Q 21.828125 43.65625 18.703125 38.8125 
Q 16.40625 35.203125 15.15625 30.5625 
Q 13.921875 25.921875 13.921875 21 
z
" id="DejaVuSans-Oblique-111"/>
     <path d="M 6.6875 21.6875 
L 13.09375 54.6875 
L 22.125 54.6875 
L 15.71875 22.015625 
Q 15.234375 19.625 15.015625 17.921875 
Q 14.796875 16.21875 14.796875 15.09375 
Q 14.796875 10.9375 17.328125 8.65625 
Q 19.875 6.390625 24.515625 6.390625 
Q 31.734375 6.390625 37 11.265625 
Q 42.28125 16.15625 43.890625 24.421875 
L 49.90625 54.6875 
L 58.890625 54.6875 
L 48.296875 0 
L 39.3125 0 
L 41.109375 8.59375 
Q 37.3125 3.8125 32.0625 1.1875 
Q 26.8125 -1.421875 20.90625 -1.421875 
Q 13.71875 -1.421875 9.71875 2.515625 
Q 5.71875 6.453125 5.71875 13.484375 
Q 5.71875 14.9375 5.953125 17.140625 
Q 6.203125 19.34375 6.6875 21.6875 
z
" id="DejaVuSans-Oblique-117"/>
     <path d="M 44.578125 46.390625 
Q 43.21875 47.125 41.453125 47.515625 
Q 39.703125 47.90625 37.703125 47.90625 
Q 30.515625 47.90625 25.140625 42.453125 
Q 19.78125 37.015625 18.015625 27.875 
L 12.5 0 
L 3.515625 0 
L 14.203125 54.6875 
L 23.1875 54.6875 
L 21.484375 46.1875 
Q 25.046875 50.921875 30 53.453125 
Q 34.96875 56 40.578125 56 
Q 42.046875 56 43.453125 55.828125 
Q 44.875 55.671875 46.296875 55.28125 
z
" id="DejaVuSans-Oblique-114"/>
     <path d="M 53.609375 52.59375 
L 51.8125 43.703125 
Q 48.578125 46.046875 44.9375 47.21875 
Q 41.3125 48.390625 37.40625 48.390625 
Q 33.109375 48.390625 29.21875 46.875 
Q 25.34375 45.359375 22.703125 42.578125 
Q 18.5 38.328125 16.203125 32.609375 
Q 13.921875 26.90625 13.921875 20.796875 
Q 13.921875 13.421875 17.609375 9.8125 
Q 21.296875 6.203125 28.8125 6.203125 
Q 32.515625 6.203125 36.6875 7.328125 
Q 40.875 8.453125 45.40625 10.6875 
L 43.703125 1.8125 
Q 39.796875 0.203125 35.671875 -0.609375 
Q 31.546875 -1.421875 27.203125 -1.421875 
Q 16.3125 -1.421875 10.453125 4.015625 
Q 4.59375 9.46875 4.59375 19.578125 
Q 4.59375 28.078125 7.640625 35.234375 
Q 10.6875 42.390625 16.703125 48.09375 
Q 20.796875 52 26.3125 54 
Q 31.84375 56 38.375 56 
Q 42.1875 56 45.9375 55.140625 
Q 49.703125 54.296875 53.609375 52.59375 
z
" id="DejaVuSans-Oblique-99"/>
     <path d="M 48.09375 32.234375 
Q 48.25 33.015625 48.3125 33.84375 
Q 48.390625 34.671875 48.390625 35.5 
Q 48.390625 41.453125 44.890625 44.921875 
Q 41.40625 48.390625 35.40625 48.390625 
Q 28.71875 48.390625 23.578125 44.15625 
Q 18.453125 39.9375 15.828125 32.171875 
z
M 55.90625 25.203125 
L 14.109375 25.203125 
Q 13.8125 23.34375 13.71875 22.265625 
Q 13.625 21.1875 13.625 20.40625 
Q 13.625 13.625 17.796875 9.90625 
Q 21.96875 6.203125 29.59375 6.203125 
Q 35.453125 6.203125 40.671875 7.515625 
Q 45.90625 8.84375 50.390625 11.375 
L 48.6875 2.484375 
Q 43.84375 0.53125 38.6875 -0.4375 
Q 33.546875 -1.421875 28.21875 -1.421875 
Q 16.84375 -1.421875 10.71875 4.015625 
Q 4.59375 9.46875 4.59375 19.484375 
Q 4.59375 28.03125 7.640625 35.375 
Q 10.6875 42.71875 16.609375 48.484375 
Q 20.40625 52.09375 25.65625 54.046875 
Q 30.90625 56 36.8125 56 
Q 46.09375 56 51.578125 50.4375 
Q 57.078125 44.875 57.078125 35.5 
Q 57.078125 33.25 56.78125 30.6875 
Q 56.5 28.125 55.90625 25.203125 
z
" id="DejaVuSans-Oblique-101"/>
     <path d="M 15.28125 51.703125 
L 25.59375 51.703125 
L 23.1875 39.3125 
L 12.890625 39.3125 
z
M 7.625 12.40625 
L 17.921875 12.40625 
L 15.484375 0 
L 5.171875 0 
z
" id="DejaVuSans-Oblique-58"/>
     <path id="DejaVuSans-Oblique-32"/>
     <path d="M 16.890625 72.90625 
L 58.6875 72.90625 
L 57.078125 64.59375 
L 25.09375 64.59375 
L 20.90625 43.109375 
L 49.8125 43.109375 
L 48.1875 34.8125 
L 19.28125 34.8125 
L 12.5 0 
L 2.6875 0 
z
" id="DejaVuSans-Oblique-70"/>
     <path d="M 25.203125 64.796875 
L 20.21875 38.921875 
L 32.90625 38.921875 
Q 40.375 38.921875 44.984375 43.046875 
Q 49.609375 47.171875 49.609375 53.8125 
Q 49.609375 59.125 46.5 61.953125 
Q 43.40625 64.796875 37.59375 64.796875 
z
M 43.3125 35.015625 
Q 46.4375 34.28125 48.515625 31.390625 
Q 50.59375 28.515625 53.328125 19.921875 
L 59.515625 0 
L 49.125 0 
L 43.40625 18.703125 
Q 41.21875 25.921875 38.328125 28.359375 
Q 35.453125 30.8125 29.5 30.8125 
L 18.609375 30.8125 
L 12.59375 0 
L 2.6875 0 
L 16.890625 72.90625 
L 39.109375 72.90625 
Q 49.21875 72.90625 54.609375 68.328125 
Q 60.015625 63.765625 60.015625 55.171875 
Q 60.015625 47.5625 55.421875 41.984375 
Q 50.828125 36.421875 43.3125 35.015625 
z
" id="DejaVuSans-Oblique-82"/>
     <path d="M 16.890625 72.90625 
L 62.984375 72.90625 
L 61.375 64.59375 
L 25.09375 64.59375 
L 20.90625 43.015625 
L 55.71875 43.015625 
L 54.109375 34.71875 
L 19.28125 34.71875 
L 14.203125 8.296875 
L 51.3125 8.296875 
L 49.703125 0 
L 2.6875 0 
z
" id="DejaVuSans-Oblique-69"/>
     <path d="M 16.890625 72.90625 
L 38.09375 72.90625 
Q 54.984375 72.90625 63.59375 65.75 
Q 72.21875 58.59375 72.21875 44.484375 
Q 72.21875 35.15625 68.9375 26.53125 
Q 65.671875 17.921875 59.90625 12.015625 
Q 54.109375 5.953125 45.171875 2.96875 
Q 36.234375 0 24.03125 0 
L 2.6875 0 
z
M 25.203125 64.796875 
L 14.203125 8.109375 
L 27.09375 8.109375 
Q 43.65625 8.109375 52.734375 17.625 
Q 61.8125 27.15625 61.8125 44.484375 
Q 61.8125 54.984375 55.953125 59.890625 
Q 50.09375 64.796875 37.59375 64.796875 
z
" id="DejaVuSans-Oblique-68"/>
     <path d="M 53.71875 31.203125 
L 47.609375 0 
L 38.625 0 
L 40.28125 8.296875 
Q 36.328125 3.421875 31.265625 1 
Q 26.21875 -1.421875 20.015625 -1.421875 
Q 13.03125 -1.421875 8.5625 2.84375 
Q 4.109375 7.125 4.109375 13.8125 
Q 4.109375 23.390625 11.75 28.953125 
Q 19.390625 34.515625 32.8125 34.515625 
L 45.3125 34.515625 
L 45.796875 36.921875 
Q 45.90625 37.3125 45.953125 37.765625 
Q 46 38.234375 46 39.203125 
Q 46 43.5625 42.453125 45.96875 
Q 38.921875 48.390625 32.515625 48.390625 
Q 28.125 48.390625 23.5 47.265625 
Q 18.890625 46.140625 14.015625 43.890625 
L 15.578125 52.203125 
Q 20.65625 54.109375 25.515625 55.046875 
Q 30.375 56 34.90625 56 
Q 44.578125 56 49.625 51.796875 
Q 54.6875 47.609375 54.6875 39.59375 
Q 54.6875 37.984375 54.4375 35.8125 
Q 54.203125 33.640625 53.71875 31.203125 
z
M 44 27.484375 
L 35.015625 27.484375 
Q 23.96875 27.484375 18.671875 24.53125 
Q 13.375 21.578125 13.375 15.375 
Q 13.375 11.078125 16.078125 8.640625 
Q 18.796875 6.203125 23.578125 6.203125 
Q 30.90625 6.203125 36.375 11.453125 
Q 41.84375 16.703125 43.609375 25.484375 
z
" id="DejaVuSans-Oblique-97"/>
     <path d="M 55.71875 33.015625 
L 49.3125 0 
L 40.28125 0 
L 46.6875 32.671875 
Q 47.125 34.96875 47.359375 36.71875 
Q 47.609375 38.484375 47.609375 39.5 
Q 47.609375 43.609375 45.015625 45.890625 
Q 42.4375 48.1875 37.796875 48.1875 
Q 30.5625 48.1875 25.34375 43.375 
Q 20.125 38.578125 18.5 30.328125 
L 12.5 0 
L 3.515625 0 
L 14.109375 54.6875 
L 23.09375 54.6875 
L 21.296875 46.09375 
Q 25.046875 50.828125 30.3125 53.40625 
Q 35.59375 56 41.40625 56 
Q 48.640625 56 52.609375 52.09375 
Q 56.59375 48.1875 56.59375 41.109375 
Q 56.59375 39.359375 56.375 37.359375 
Q 56.15625 35.359375 55.71875 33.015625 
z
" id="DejaVuSans-Oblique-110"/>
     <path d="M 41.796875 8.203125 
Q 38.1875 3.46875 33.25 1.015625 
Q 28.328125 -1.421875 22.3125 -1.421875 
Q 14.109375 -1.421875 9.34375 4.171875 
Q 4.59375 9.765625 4.59375 19.484375 
Q 4.59375 27.59375 7.46875 34.9375 
Q 10.359375 42.28125 15.828125 48.09375 
Q 19.4375 51.953125 23.96875 53.96875 
Q 28.515625 56 33.5 56 
Q 38.765625 56 42.796875 53.453125 
Q 46.828125 50.921875 49.03125 46.1875 
L 54.890625 75.984375 
L 63.921875 75.984375 
L 49.125 0 
L 40.09375 0 
z
M 13.921875 21.09375 
Q 13.921875 14.015625 17.109375 10.0625 
Q 20.3125 6.109375 25.984375 6.109375 
Q 30.171875 6.109375 33.765625 8.125 
Q 37.359375 10.15625 40.09375 14.109375 
Q 42.96875 18.21875 44.625 23.578125 
Q 46.296875 28.953125 46.296875 34.1875 
Q 46.296875 40.96875 43.09375 44.765625 
Q 39.890625 48.578125 34.28125 48.578125 
Q 30.03125 48.578125 26.359375 46.578125 
Q 22.703125 44.578125 20.125 40.828125 
Q 17.28125 36.765625 15.59375 31.390625 
Q 13.921875 26.03125 13.921875 21.09375 
z
" id="DejaVuSans-Oblique-100"/>
     <path d="M 13.09375 72.90625 
L 70.3125 72.90625 
L 68.890625 65.375 
L 12.40625 8.296875 
L 58.890625 8.296875 
L 57.328125 0 
L -2.203125 0 
L -0.78125 7.515625 
L 55.71875 64.59375 
L 11.53125 64.59375 
z
" id="DejaVuSans-Oblique-90"/>
     <path d="M 18.3125 75.984375 
L 27.296875 75.984375 
L 25.09375 64.59375 
L 16.109375 64.59375 
z
M 14.203125 54.6875 
L 23.1875 54.6875 
L 12.5 0 
L 3.515625 0 
z
" id="DejaVuSans-Oblique-105"/>
     <path d="M 18.3125 75.984375 
L 27.296875 75.984375 
L 12.5 0 
L 3.515625 0 
z
" id="DejaVuSans-Oblique-108"/>
     <path d="M 8.5 54.6875 
L 17.390625 54.6875 
L 19.671875 10.6875 
L 40.09375 54.6875 
L 50.484375 54.6875 
L 53.515625 10.6875 
L 72.90625 54.6875 
L 81.890625 54.6875 
L 56.890625 0 
L 46.390625 0 
L 43.703125 45.3125 
L 22.796875 0 
L 12.203125 0 
z
" id="DejaVuSans-Oblique-119"/>
    </defs>
    <g style="fill:#808080;" transform="translate(66.053125 30)scale(0.08 -0.08)">
     <use xlink:href="#DejaVuSans-Oblique-83"/>
     <use x="63.476562" xlink:href="#DejaVuSans-Oblique-111"/>
     <use x="124.658203" xlink:href="#DejaVuSans-Oblique-117"/>
     <use x="188.037109" xlink:href="#DejaVuSans-Oblique-114"/>
     <use x="229.150391" xlink:href="#DejaVuSans-Oblique-99"/>
     <use x="284.130859" xlink:href="#DejaVuSans-Oblique-101"/>
     <use x="345.654297" xlink:href="#DejaVuSans-Oblique-58"/>
     <use x="379.345703" xlink:href="#DejaVuSans-Oblique-32"/>
     <use x="411.132812" xlink:href="#DejaVuSans-Oblique-70"/>
     <use x="468.652344" xlink:href="#DejaVuSans-Oblique-82"/>
     <use x="538.134766" xlink:href="#DejaVuSans-Oblique-69"/>
     <use x="601.318359" xlink:href="#DejaVuSans-Oblique-68"/>
     <use x="678.320312" xlink:href="#DejaVuSans-Oblique-32"/>
     <use x="710.107422" xlink:href="#DejaVuSans-Oblique-97"/>
     <use x="771.386719" xlink:href="#DejaVuSans-Oblique-110"/>
     <use x="834.765625" xlink:href="#DejaVuSans-Oblique-100"/>
     <use x="898.242188" xlink:href="#DejaVuSans-Oblique-32"/>
     <use x="930.029297" xlink:href="#DejaVuSans-Oblique-90"/>
     <use x="998.535156" xlink:href="#DejaVuSans-Oblique-105"/>
     <use x="1026.318359" xlink:href="#DejaVuSans-Oblique-108"/>
     <use x="1054.101562" xlink:href="#DejaVuSans-Oblique-108"/>
     <use x="1081.884766" xlink:href="#DejaVuSans-Oblique-111"/>
     <use x="1143.066406" xlink:href="#DejaVuSans-Oblique-119"/>
    </g>
   </g>
  </g>
  <g id="text_13">
   <!-- House Price -->
   <defs>
    <path d="M 9.8125 72.90625 
L 19.671875 72.90625 
L 19.671875 43.015625 
L 55.515625 43.015625 
L 55.515625 72.90625 
L 65.375 72.90625 
L 65.375 0 
L 55.515625 0 
L 55.515625 34.71875 
L 19.671875 34.71875 
L 19.671875 0 
L 9.8125 0 
z
" id="DejaVuSans-72"/>
    <path d="M 44.28125 53.078125 
L 44.28125 44.578125 
Q 40.484375 46.53125 36.375 47.5 
Q 32.28125 48.484375 27.875 48.484375 
Q 21.1875 48.484375 17.84375 46.4375 
Q 14.5 44.390625 14.5 40.28125 
Q 14.5 37.15625 16.890625 35.375 
Q 19.28125 33.59375 26.515625 31.984375 
L 29.59375 31.296875 
Q 39.15625 29.25 43.1875 25.515625 
Q 47.21875 21.78125 47.21875 15.09375 
Q 47.21875 7.46875 41.1875 3.015625 
Q 35.15625 -1.421875 24.609375 -1.421875 
Q 20.21875 -1.421875 15.453125 -0.5625 
Q 10.6875 0.296875 5.421875 2 
L 5.421875 11.28125 
Q 10.40625 8.6875 15.234375 7.390625 
Q 20.0625 6.109375 24.8125 6.109375 
Q 31.15625 6.109375 34.5625 8.28125 
Q 37.984375 10.453125 37.984375 14.40625 
Q 37.984375 18.0625 35.515625 20.015625 
Q 33.0625 21.96875 24.703125 23.78125 
L 21.578125 24.515625 
Q 13.234375 26.265625 9.515625 29.90625 
Q 5.8125 33.546875 5.8125 39.890625 
Q 5.8125 47.609375 11.28125 51.796875 
Q 16.75 56 26.8125 56 
Q 31.78125 56 36.171875 55.265625 
Q 40.578125 54.546875 44.28125 53.078125 
z
" id="DejaVuSans-115"/>
    <path id="DejaVuSans-32"/>
   </defs>
   <g transform="translate(183.86875 18.597656)scale(0.15 -0.15)">
    <use xlink:href="#DejaVuSans-72"/>
    <use x="75.195312" xlink:href="#DejaVuSans-111"/>
    <use x="136.376953" xlink:href="#DejaVuSans-117"/>
    <use x="199.755859" xlink:href="#DejaVuSans-115"/>
    <use x="251.855469" xlink:href="#DejaVuSans-101"/>
    <use x="313.378906" xlink:href="#DejaVuSans-32"/>
    <use x="345.166016" xlink:href="#DejaVuSans-80"/>
    <use x="403.71875" xlink:href="#DejaVuSans-114"/>
    <use x="444.832031" xlink:href="#DejaVuSans-105"/>
    <use x="472.615234" xlink:href="#DejaVuSans-99"/>
    <use x="527.595703" xlink:href="#DejaVuSans-101"/>
   </g>
  </g>
 </g>
 <defs>
  <clipPath id="pc52f1fa3b5">
   <rect height="217.44" width="334.8" x="66.053125" y="36"/>
  </clipPath>
 </defs>
</svg>
